<?xml version="1.0" encoding="UTF-8" standalone="no"?>
<!DOCTYPE svg PUBLIC "-//W3C//DTD SVG 1.1//EN" "http://www.w3.org/Graphics/SVG/1.1/DTD/svg11.dtd">
<!-- Generated by graphviz version 2.26.3 (20100126.1600)
 -->
<!-- Title: inheritance Pages: 1 -->
<svg xmlns="http://www.w3.org/2000/svg" xmlns:xlink="http://www.w3.org/1999/xlink" width="248px" height="88px" viewBox="0.00 0.00 275.00 98.00">
<g id="graph1" class="graph" transform="rotate(0) translate(4 94)">
<title>inheritance</title>
<!-- base -->
<g id="node1" class="node"><title>base</title>
<a>
<polygon fill="white" stroke="black" points="122,-90 5.68434e-14,-90 7.10543e-15,-54 122,-54 122,-90"/>
<text text-anchor="middle" x="61" y="-68.4" font-family="DejaVu Sans, verdana, sans-serif" font-size="14.00">messages_base</text>
</a>
</g>
<!-- f1 -->
<g id="node2" class="node"><title>f1</title>
<a>
<polygon fill="white" stroke="black" points="118,-36 4,-36 4,-1.77636e-14 118,-3.55271e-15 118,-36"/>
<text text-anchor="middle" x="61" y="-14.4" font-family="DejaVu Sans, verdana, sans-serif" font-size="14.00">locale::facet</text>
</a>
</g>
<!-- facet -->
<g id="node3" class="node"><title>facet</title>
<a>
<polygon fill="lightgrey" stroke="black" points="266,-66 152,-66 152,-24 266,-24 266,-66"/>
<text text-anchor="start" x="175.5" y="-51.7333" font-family="DejaVu Sans, verdana, sans-serif" font-size="14.00">messages</text>
<text text-anchor="start" x="175.5" y="-34.9333" font-family="DejaVu Sans, verdana, sans-serif" font-size="14.00" fill="#808080">&lt;CharT&gt;</text>
</a>
</g>
<!-- facet&#45;&gt;base -->
<g id="edge2" class="edge"><title>facet-&gt;base</title>
<path fill="none" stroke="black" d="M151.356,-55.5162C146.717,-56.3625 141.987,-57.2253 137.246,-58.0903"/>
<polygon fill="none" stroke="black" points="135.97,-52.9864 122.155,-60.8433 137.854,-63.3159 135.97,-52.9864"/>
</g>
<!-- facet&#45;&gt;f1 -->
<g id="edge4" class="edge"><title>facet-&gt;f1</title>
<path fill="none" stroke="black" d="M151.356,-34.4838C145.497,-33.4149 139.494,-32.3198 133.504,-31.227"/>
<polygon fill="none" stroke="black" points="134.429,-26.0593 118.731,-28.5319 132.545,-36.3888 134.429,-26.0593"/>
</g>
</g>
</svg>
