<?xml version="1.0" encoding="UTF-8" standalone="no"?>
<!DOCTYPE svg PUBLIC "-//W3C//DTD SVG 1.1//EN" "http://www.w3.org/Graphics/SVG/1.1/DTD/svg11.dtd">
<!-- Generated by graphviz version 2.26.3 (20100126.1600)
 -->
<!-- Title: inheritance Pages: 1 -->
<svg xmlns="http://www.w3.org/2000/svg" xmlns:xlink="http://www.w3.org/1999/xlink" width="306px" height="88px" viewBox="0.00 0.00 339.00 98.00">
<g id="graph1" class="graph" transform="rotate(0) translate(4 94)">
<title>inheritance</title>
<!-- base -->
<g id="node1" class="node"><title>base</title>
<a>
<polygon fill="white" stroke="black" points="115,-90 1,-90 1,-54 115,-54 115,-90"/>
<text text-anchor="middle" x="58" y="-68.4" font-family="DejaVu Sans, verdana, sans-serif" font-size="14.00">codecvt_base</text>
</a>
</g>
<!-- f1 -->
<g id="node2" class="node"><title>f1</title>
<a>
<polygon fill="white" stroke="black" points="115,-36 1,-36 1,-1.77636e-14 115,-3.55271e-15 115,-36"/>
<text text-anchor="middle" x="58" y="-14.4" font-family="DejaVu Sans, verdana, sans-serif" font-size="14.00">locale::facet</text>
</a>
</g>
<!-- facet -->
<g id="node3" class="node"><title>facet</title>
<a>
<polygon fill="lightgrey" stroke="black" points="331,-66 145,-66 145,-24 331,-24 331,-66"/>
<text text-anchor="start" x="211.5" y="-51.7333" font-family="DejaVu Sans, verdana, sans-serif" font-size="14.00">codecvt</text>
<text text-anchor="start" x="153.5" y="-34.9333" font-family="DejaVu Sans, verdana, sans-serif" font-size="14.00" fill="#808080">&lt;Intern, Extern, State&gt;</text>
</a>
</g>
<!-- facet&#45;&gt;base -->
<g id="edge2" class="edge"><title>facet-&gt;base</title>
<path fill="none" stroke="black" d="M144.837,-58.9745C140.017,-59.6975 135.209,-60.4187 130.468,-61.1297"/>
<polygon fill="none" stroke="black" points="129.681,-55.939 115.626,-63.3561 131.239,-66.3228 129.681,-55.939"/>
</g>
<!-- facet&#45;&gt;f1 -->
<g id="edge4" class="edge"><title>facet-&gt;f1</title>
<path fill="none" stroke="black" d="M144.837,-31.0255C140.017,-30.3025 135.209,-29.5813 130.468,-28.8703"/>
<polygon fill="none" stroke="black" points="131.239,-23.6772 115.626,-26.6439 129.681,-34.061 131.239,-23.6772"/>
</g>
</g>
</svg>
