<?xml version="1.0" encoding="UTF-8" standalone="no"?>
<!DOCTYPE svg PUBLIC "-//W3C//DTD SVG 1.1//EN" "http://www.w3.org/Graphics/SVG/1.1/DTD/svg11.dtd">
<!-- Generated by graphviz version 2.26.3 (20100126.1600)
 -->
<!-- Title: inheritance Pages: 1 -->
<svg xmlns="http://www.w3.org/2000/svg" xmlns:xlink="http://www.w3.org/1999/xlink" width="243px" height="88px" viewBox="0.00 0.00 269.00 98.00">
<g id="graph1" class="graph" transform="rotate(0) translate(4 94)">
<title>inheritance</title>
<!-- base -->
<g id="node1" class="node"><title>base</title>
<a>
<polygon fill="white" stroke="black" points="115,-90 1,-90 1,-54 115,-54 115,-90"/>
<text text-anchor="middle" x="58" y="-68.4" font-family="DejaVu Sans, verdana, sans-serif" font-size="14.00">ctype_base</text>
</a>
</g>
<!-- f1 -->
<g id="node2" class="node"><title>f1</title>
<a>
<polygon fill="white" stroke="black" points="115,-36 1,-36 1,-1.77636e-14 115,-3.55271e-15 115,-36"/>
<text text-anchor="middle" x="58" y="-14.4" font-family="DejaVu Sans, verdana, sans-serif" font-size="14.00">locale::facet</text>
</a>
</g>
<!-- facet -->
<g id="node3" class="node"><title>facet</title>
<a>
<polygon fill="lightgrey" stroke="black" points="260,-63 146,-63 146,-27 260,-27 260,-63"/>
<text text-anchor="middle" x="203" y="-41.4" font-family="DejaVu Sans, verdana, sans-serif" font-size="14.00">ctype&lt;char&gt;</text>
</a>
</g>
<!-- facet&#45;&gt;base -->
<g id="edge2" class="edge"><title>facet-&gt;base</title>
<path fill="none" stroke="black" d="M145.276,-55.7487C140.379,-56.6605 135.389,-57.5897 130.399,-58.5188"/>
<polygon fill="none" stroke="black" points="129.311,-53.381 115.526,-61.2883 131.233,-63.7036 129.311,-53.381"/>
</g>
<!-- facet&#45;&gt;f1 -->
<g id="edge4" class="edge"><title>facet-&gt;f1</title>
<path fill="none" stroke="black" d="M145.276,-34.2513C140.379,-33.3395 135.389,-32.4103 130.399,-31.4812"/>
<polygon fill="none" stroke="black" points="131.233,-26.2964 115.526,-28.7117 129.311,-36.619 131.233,-26.2964"/>
</g>
</g>
</svg>
