<?xml version="1.0" encoding="UTF-8" standalone="no"?>
<!DOCTYPE svg PUBLIC "-//W3C//DTD SVG 1.1//EN" "http://www.w3.org/Graphics/SVG/1.1/DTD/svg11.dtd">
<!-- Generated by graphviz version 2.26.3 (20100126.1600)
 -->
<!-- Title: inheritance Pages: 1 -->
<svg xmlns="http://www.w3.org/2000/svg" xmlns:xlink="http://www.w3.org/1999/xlink" width="302px" height="88px" viewBox="0.00 0.00 335.00 98.00">
<g id="graph1" class="graph" transform="rotate(0) translate(4 94)">
<title>inheritance</title>
<!-- base -->
<g id="node1" class="node"><title>base</title>
<a>
<polygon fill="white" stroke="black" points="115,-90 1,-90 1,-54 115,-54 115,-90"/>
<text text-anchor="middle" x="58" y="-68.4" font-family="DejaVu Sans, verdana, sans-serif" font-size="14.00">money_base</text>
</a>
</g>
<!-- f1 -->
<g id="node2" class="node"><title>f1</title>
<a>
<polygon fill="white" stroke="black" points="115,-36 1,-36 1,-1.77636e-14 115,-3.55271e-15 115,-36"/>
<text text-anchor="middle" x="58" y="-14.4" font-family="DejaVu Sans, verdana, sans-serif" font-size="14.00">locale::facet</text>
</a>
</g>
<!-- facet -->
<g id="node3" class="node"><title>facet</title>
<a>
<polygon fill="lightgrey" stroke="black" points="327,-66 145,-66 145,-24 327,-24 327,-66"/>
<text text-anchor="start" x="193" y="-51.7333" font-family="DejaVu Sans, verdana, sans-serif" font-size="14.00">moneypunct</text>
<text text-anchor="start" x="153.5" y="-34.9333" font-family="DejaVu Sans, verdana, sans-serif" font-size="14.00" fill="#808080">&lt;CharT, International&gt;</text>
</a>
</g>
<!-- facet&#45;&gt;base -->
<g id="edge4" class="edge"><title>facet-&gt;base</title>
<path fill="none" stroke="black" d="M144.914,-58.8164C140.108,-59.5454 135.31,-60.2732 130.577,-60.9912"/>
<polygon fill="none" stroke="black" points="129.788,-55.8006 115.745,-63.2409 131.363,-66.1819 129.788,-55.8006"/>
</g>
<!-- facet&#45;&gt;f1 -->
<g id="edge2" class="edge"><title>facet-&gt;f1</title>
<path fill="none" stroke="black" d="M144.914,-31.1836C140.108,-30.4546 135.31,-29.7268 130.577,-29.0088"/>
<polygon fill="none" stroke="black" points="131.363,-23.8181 115.745,-26.7591 129.788,-34.1994 131.363,-23.8181"/>
</g>
</g>
</svg>
