<?xml version="1.0" encoding="UTF-8" standalone="no"?>
<!DOCTYPE svg PUBLIC "-//W3C//DTD SVG 1.1//EN" "http://www.w3.org/Graphics/SVG/1.1/DTD/svg11.dtd">
<!-- Generated by graphviz version 2.26.3 (20100126.1600)
 -->
<!-- Title: inheritance Pages: 1 -->
<svg xmlns="http://www.w3.org/2000/svg" xmlns:xlink="http://www.w3.org/1999/xlink" width="277px" height="88px" viewBox="0.00 0.00 307.00 98.00">
<g id="graph1" class="graph" transform="rotate(0) translate(4 94)">
<title>inheritance</title>
<!-- base -->
<g id="node1" class="node"><title>base</title>
<a>
<polygon fill="white" stroke="black" points="115,-90 1,-90 1,-54 115,-54 115,-90"/>
<text text-anchor="middle" x="58" y="-68.4" font-family="DejaVu Sans, verdana, sans-serif" font-size="14.00">time_base</text>
</a>
</g>
<!-- f1 -->
<g id="node2" class="node"><title>f1</title>
<a>
<polygon fill="white" stroke="black" points="115,-36 1,-36 1,-1.77636e-14 115,-3.55271e-15 115,-36"/>
<text text-anchor="middle" x="58" y="-14.4" font-family="DejaVu Sans, verdana, sans-serif" font-size="14.00">locale::facet</text>
</a>
</g>
<!-- facet -->
<g id="node3" class="node"><title>facet</title>
<a>
<polygon fill="lightgrey" stroke="black" points="298,-66 146,-66 146,-24 298,-24 298,-66"/>
<text text-anchor="start" x="191" y="-51.7333" font-family="DejaVu Sans, verdana, sans-serif" font-size="14.00">time_put</text>
<text text-anchor="start" x="154" y="-34.9333" font-family="DejaVu Sans, verdana, sans-serif" font-size="14.00" fill="#808080">&lt;CharT, OutputIt&gt;</text>
</a>
</g>
<!-- facet&#45;&gt;base -->
<g id="edge2" class="edge"><title>facet-&gt;base</title>
<path fill="none" stroke="black" d="M145.282,-57.6304C140.436,-58.4282 135.566,-59.23 130.739,-60.0247"/>
<polygon fill="none" stroke="black" points="129.502,-54.9076 115.554,-62.5247 131.207,-65.2682 129.502,-54.9076"/>
</g>
<!-- facet&#45;&gt;f1 -->
<g id="edge4" class="edge"><title>facet-&gt;f1</title>
<path fill="none" stroke="black" d="M145.282,-32.3696C140.436,-31.5718 135.566,-30.77 130.739,-29.9753"/>
<polygon fill="none" stroke="black" points="131.207,-24.7318 115.554,-27.4753 129.502,-35.0924 131.207,-24.7318"/>
</g>
</g>
</svg>
