<?xml version="1.0" encoding="utf-8"?>
<!-- Generator: Adobe Illustrator 26.0.1, SVG Export Plug-In . SVG Version: 6.00 Build 0)  -->
<svg version="1.1" id="Capa_1" xmlns="http://www.w3.org/2000/svg" xmlns:xlink="http://www.w3.org/1999/xlink" x="0px" y="0px"
	 viewBox="0 0 400 400" style="enable-background:new 0 0 400 400;" xml:space="preserve">
<style type="text/css">
	.st0{fill:#FFFFFF;}
	.st1{fill:#7C00CD;}
</style>
<path id="Mask_3_" class="st0" d="M368,400H31.6c-17.7,0-32-14.3-32-32V31.5c0-17.7,14.3-32,32-32H368c17.7,0,32,14.3,32,32V368
	C400,385.7,385.7,400,368,400z"/>
<g id="layer1">
	<g id="text2383">
		<path id="path27" class="st1" d="M237.7,20.6h2.7v2.9h-2.7V20.6z M237.7,26.2h2.7v2.9h-2.7V26.2z"/>
		<path id="path29" class="st1" d="M247.7,20.6h2.7v2.9h-2.7V20.6z M247.7,26.2h2.7v2.9h-2.7V26.2z"/>
		<path id="path31" class="st1" d="M257.6,20.6h2.7v2.9h-2.7V20.6z M257.6,26.2h2.7v2.9h-2.7V26.2z"/>
		<path id="path33" class="st1" d="M97.2,40.7h4.7v7.2h2.9v1.8h-8.2v-1.8h2.9v-5.4h-2.3L97.2,40.7z M99.6,36.3h2.4V39h-2.4V36.3z"/>
		<path id="path35" class="st1" d="M107.2,49.7v-12h2.4v9.9h5.1v2.1H107.2z"/>
		<path id="path37" class="st1" d="M124.1,49.7h-7.5v-12h7.5v2.1H119v2.6h4.6v2.1H119v3.1h5.1V49.7z"/>
		<path id="path39" class="st1" d="M130.1,44.3c-0.5,0-1,0.2-1.3,0.5c-0.3,0.3-0.5,0.8-0.5,1.3c0,0.6,0.2,1,0.5,1.3
			c0.3,0.3,0.8,0.5,1.3,0.5c0.5,0,1-0.2,1.3-0.5c0.3-0.3,0.5-0.8,0.5-1.3c0-0.6-0.2-1-0.5-1.3C131.1,44.5,130.7,44.3,130.1,44.3z
			 M128.4,43.3c-0.6-0.2-1.1-0.5-1.4-1c-0.3-0.4-0.5-1-0.5-1.6c0-1,0.3-1.8,1-2.4c0.6-0.6,1.5-0.9,2.6-0.9c1.1,0,2,0.3,2.7,0.9
			c0.6,0.6,1,1.4,1,2.4c0,0.6-0.2,1.2-0.5,1.6c-0.3,0.4-0.8,0.8-1.4,1c0.7,0.2,1.2,0.6,1.6,1.1s0.6,1.2,0.6,1.9c0,1.2-0.3,2-1,2.7
			c-0.7,0.6-1.6,0.9-2.9,0.9c-1.2,0-2.2-0.3-2.9-0.9c-0.7-0.6-1-1.5-1-2.7c0-0.7,0.2-1.4,0.6-1.9C127.2,43.9,127.7,43.5,128.4,43.3z
			 M128.6,40.9c0,0.5,0.1,0.8,0.4,1.1c0.3,0.3,0.6,0.4,1.1,0.4c0.5,0,0.8-0.1,1.1-0.4c0.3-0.3,0.4-0.7,0.4-1.1
			c0-0.5-0.1-0.8-0.4-1.1c-0.3-0.3-0.6-0.4-1.1-0.4c-0.5,0-0.8,0.1-1.1,0.4C128.8,40.1,128.6,40.4,128.6,40.9z"/>
		<path id="path41" class="st1" d="M140,44.3c-0.5,0-1,0.2-1.3,0.5c-0.3,0.3-0.5,0.8-0.5,1.3c0,0.6,0.2,1,0.5,1.3
			c0.3,0.3,0.8,0.5,1.3,0.5s1-0.2,1.3-0.5c0.3-0.3,0.5-0.8,0.5-1.3c0-0.6-0.2-1-0.5-1.3C141,44.5,140.6,44.3,140,44.3z M138.3,43.3
			c-0.6-0.2-1.1-0.5-1.4-1c-0.3-0.4-0.5-1-0.5-1.6c0-1,0.3-1.8,1-2.4c0.6-0.6,1.5-0.9,2.6-0.9c1.1,0,2,0.3,2.7,0.9
			c0.6,0.6,1,1.4,1,2.4c0,0.6-0.2,1.2-0.5,1.6c-0.3,0.4-0.8,0.8-1.4,1c0.7,0.2,1.2,0.6,1.6,1.1c0.4,0.5,0.6,1.2,0.6,1.9
			c0,1.2-0.3,2-1,2.7c-0.7,0.6-1.6,0.9-2.9,0.9c-1.2,0-2.2-0.3-2.9-0.9c-0.7-0.6-1-1.5-1-2.7c0-0.7,0.2-1.4,0.6-1.9
			C137.1,43.9,137.6,43.5,138.3,43.3L138.3,43.3z M138.5,40.9c0,0.5,0.1,0.8,0.4,1.1c0.3,0.3,0.6,0.4,1.1,0.4c0.5,0,0.8-0.1,1.1-0.4
			c0.3-0.3,0.4-0.7,0.4-1.1c0-0.5-0.1-0.8-0.4-1.1c-0.3-0.3-0.6-0.4-1.1-0.4c-0.5,0-0.8,0.1-1.1,0.4
			C138.7,40.1,138.5,40.4,138.5,40.9z"/>
		<path id="path43" class="st1" d="M148.5,39.8v7.7h0.6c0.9,0,1.6-0.3,2-0.9c0.4-0.6,0.6-1.6,0.6-3c0-1.4-0.2-2.4-0.6-3
			c-0.4-0.6-1.1-0.9-2-0.9H148.5z M146.1,37.7h2.5c2,0,3.4,0.5,4.2,1.4c0.9,0.9,1.3,2.5,1.3,4.6c0,2.1-0.4,3.7-1.3,4.6
			c-0.9,0.9-2.3,1.4-4.2,1.4h-2.5V37.7z"/>
		<path id="path45" class="st1" d="M161.7,49.3c0,1.3-0.2,2.3-0.7,2.9c-0.5,0.6-1.3,0.9-2.4,0.9h-2.5v-1.8h1.9
			c0.5,0,0.9-0.1,1.1-0.4c0.2-0.3,0.3-0.8,0.3-1.5v-6.8H157v-1.8h4.7V49.3z M161.7,39h-2.4v-2.7h2.4V39z"/>
		<path id="path47" class="st1" d="M168.4,46.7h2.7v2.9h-2.7V46.7z"/>
		<path id="path49" class="st1" d="M198.1,41.1h2.7v2.9h-2.7V41.1z M198.1,46.7h2.7v2.9h-2.7V46.7z"/>
		<path id="path51" class="st1" d="M211.3,49.3c0,1.3-0.2,2.3-0.7,2.9c-0.5,0.6-1.3,0.9-2.4,0.9h-2.5v-1.8h1.9
			c0.5,0,0.9-0.1,1.1-0.4c0.2-0.3,0.3-0.8,0.3-1.5v-6.8h-2.4v-1.8h4.7V49.3z M211.3,39h-2.4v-2.7h2.4V39z"/>
		<path id="path53" class="st1" d="M217.8,39.8v7.7h0.6c0.9,0,1.6-0.3,2-0.9c0.4-0.6,0.6-1.6,0.6-3c0-1.4-0.2-2.4-0.6-3
			c-0.4-0.6-1.1-0.9-2-0.9H217.8z M215.4,37.7h2.5c2,0,3.4,0.5,4.2,1.4c0.9,0.9,1.3,2.5,1.3,4.6c0,2.1-0.4,3.7-1.3,4.6
			c-0.9,0.9-2.3,1.4-4.2,1.4h-2.5V37.7z"/>
		<path id="path55" class="st1" d="M229.2,44.3c-0.5,0-1,0.2-1.3,0.5c-0.3,0.3-0.5,0.8-0.5,1.3c0,0.6,0.2,1,0.5,1.3
			c0.3,0.3,0.8,0.5,1.3,0.5s1-0.2,1.3-0.5c0.3-0.3,0.5-0.8,0.5-1.3c0-0.6-0.2-1-0.5-1.3C230.2,44.5,229.7,44.3,229.2,44.3z
			 M227.4,43.3c-0.6-0.2-1.1-0.5-1.4-1c-0.3-0.4-0.5-1-0.5-1.6c0-1,0.3-1.8,1-2.4c0.6-0.6,1.5-0.9,2.6-0.9c1.1,0,2,0.3,2.7,0.9
			c0.6,0.6,1,1.4,1,2.4c0,0.6-0.2,1.2-0.5,1.6c-0.3,0.4-0.8,0.8-1.4,1c0.7,0.2,1.2,0.6,1.6,1.1c0.4,0.5,0.6,1.2,0.6,1.9
			c0,1.2-0.3,2-1,2.7c-0.7,0.6-1.6,0.9-2.9,0.9c-1.2,0-2.2-0.3-2.9-0.9c-0.7-0.6-1-1.5-1-2.7c0-0.7,0.2-1.4,0.6-1.9
			C226.2,43.9,226.8,43.5,227.4,43.3z M227.7,40.9c0,0.5,0.1,0.8,0.4,1.1c0.3,0.3,0.6,0.4,1.1,0.4c0.5,0,0.8-0.1,1.1-0.4
			c0.3-0.3,0.4-0.7,0.4-1.1c0-0.5-0.1-0.8-0.4-1.1c-0.3-0.3-0.6-0.4-1.1-0.4c-0.5,0-0.8,0.1-1.1,0.4
			C227.8,40.1,227.7,40.4,227.7,40.9L227.7,40.9z"/>
		<path id="path57" class="st1" d="M239.1,44.3c-0.5,0-1,0.2-1.3,0.5c-0.3,0.3-0.5,0.8-0.5,1.3c0,0.6,0.2,1,0.5,1.3
			c0.3,0.3,0.8,0.5,1.3,0.5c0.5,0,1-0.2,1.3-0.5c0.3-0.3,0.5-0.8,0.5-1.3c0-0.6-0.2-1-0.5-1.3C240.1,44.5,239.6,44.3,239.1,44.3
			L239.1,44.3z M237.3,43.3c-0.6-0.2-1.1-0.5-1.4-1c-0.3-0.4-0.5-1-0.5-1.6c0-1,0.3-1.8,1-2.4c0.6-0.6,1.5-0.9,2.6-0.9
			c1.1,0,2,0.3,2.7,0.9c0.6,0.6,1,1.4,1,2.4c0,0.6-0.2,1.2-0.5,1.6c-0.3,0.4-0.8,0.8-1.4,1c0.7,0.2,1.2,0.6,1.6,1.1
			c0.4,0.5,0.6,1.2,0.6,1.9c0,1.2-0.3,2-1,2.7c-0.7,0.6-1.6,0.9-2.9,0.9c-1.2,0-2.2-0.3-2.9-0.9c-0.7-0.6-1-1.5-1-2.7
			c0-0.7,0.2-1.4,0.6-1.9C236.1,43.9,236.7,43.5,237.3,43.3z M237.6,40.9c0,0.5,0.1,0.8,0.4,1.1c0.3,0.3,0.6,0.4,1.1,0.4
			c0.5,0,0.8-0.1,1.1-0.4c0.3-0.3,0.4-0.7,0.4-1.1c0-0.5-0.1-0.8-0.4-1.1c-0.3-0.3-0.6-0.4-1.1-0.4c-0.5,0-0.8,0.1-1.1,0.4
			C237.7,40.1,237.6,40.4,237.6,40.9z"/>
		<path id="path59" class="st1" d="M249,44.3c-0.5,0-1,0.2-1.3,0.5c-0.3,0.3-0.5,0.8-0.5,1.3c0,0.6,0.2,1,0.5,1.3
			c0.3,0.3,0.8,0.5,1.3,0.5c0.5,0,1-0.2,1.3-0.5c0.3-0.3,0.5-0.8,0.5-1.3c0-0.6-0.2-1-0.5-1.3C250,44.5,249.5,44.3,249,44.3
			L249,44.3z M247.2,43.3c-0.6-0.2-1.1-0.5-1.4-1c-0.3-0.4-0.5-1-0.5-1.6c0-1,0.3-1.8,1-2.4c0.6-0.6,1.5-0.9,2.6-0.9
			c1.1,0,2,0.3,2.7,0.9c0.6,0.6,1,1.4,1,2.4c0,0.6-0.2,1.2-0.5,1.6c-0.3,0.4-0.8,0.8-1.4,1c0.7,0.2,1.2,0.6,1.6,1.1
			c0.4,0.5,0.6,1.2,0.6,1.9c0,1.2-0.3,2-1,2.7c-0.7,0.6-1.6,0.9-2.9,0.9c-1.2,0-2.2-0.3-2.9-0.9c-0.7-0.6-1-1.5-1-2.7
			c0-0.7,0.2-1.4,0.6-1.9C246,43.9,246.6,43.5,247.2,43.3z M247.5,40.9c0,0.5,0.1,0.8,0.4,1.1c0.3,0.3,0.6,0.4,1.1,0.4
			c0.5,0,0.8-0.1,1.1-0.4c0.3-0.3,0.4-0.7,0.4-1.1c0-0.5-0.1-0.8-0.4-1.1c-0.3-0.3-0.6-0.4-1.1-0.4c-0.5,0-0.8,0.1-1.1,0.4
			C247.6,40.1,247.5,40.4,247.5,40.9z"/>
		<path id="path61" class="st1" d="M258.9,44.3c-0.5,0-1,0.2-1.3,0.5c-0.3,0.3-0.5,0.8-0.5,1.3c0,0.6,0.2,1,0.5,1.3
			c0.3,0.3,0.8,0.5,1.3,0.5s1-0.2,1.3-0.5c0.3-0.3,0.5-0.8,0.5-1.3c0-0.6-0.2-1-0.5-1.3C259.9,44.5,259.4,44.3,258.9,44.3
			L258.9,44.3z M257.1,43.3c-0.6-0.2-1.1-0.5-1.4-1c-0.3-0.4-0.5-1-0.5-1.6c0-1,0.3-1.8,1-2.4c0.6-0.6,1.5-0.9,2.6-0.9
			c1.1,0,2,0.3,2.7,0.9c0.6,0.6,1,1.4,1,2.4c0,0.6-0.2,1.2-0.5,1.6c-0.3,0.4-0.8,0.8-1.4,1c0.7,0.2,1.2,0.6,1.6,1.1
			c0.4,0.5,0.6,1.2,0.6,1.9c0,1.2-0.3,2-1,2.7c-0.7,0.6-1.6,0.9-2.9,0.9c-1.2,0-2.2-0.3-2.9-0.9c-0.7-0.6-1-1.5-1-2.7
			c0-0.7,0.2-1.4,0.6-1.9C255.9,43.9,256.5,43.5,257.1,43.3z M257.4,40.9c0,0.5,0.1,0.8,0.4,1.1c0.3,0.3,0.6,0.4,1.1,0.4
			c0.5,0,0.8-0.1,1.1-0.4c0.3-0.3,0.4-0.7,0.4-1.1c0-0.5-0.1-0.8-0.4-1.1c-0.3-0.3-0.6-0.4-1.1-0.4c-0.5,0-0.8,0.1-1.1,0.4
			C257.5,40.1,257.4,40.4,257.4,40.9L257.4,40.9z"/>
		<path id="path63" class="st1" d="M268.8,44.3c-0.5,0-1,0.2-1.3,0.5c-0.3,0.3-0.5,0.8-0.5,1.3c0,0.6,0.2,1,0.5,1.3s0.8,0.5,1.3,0.5
			c0.5,0,1-0.2,1.3-0.5c0.3-0.3,0.5-0.8,0.5-1.3c0-0.6-0.2-1-0.5-1.3C269.8,44.5,269.3,44.3,268.8,44.3z M267,43.3
			c-0.6-0.2-1.1-0.5-1.4-1c-0.3-0.4-0.5-1-0.5-1.6c0-1,0.3-1.8,1-2.4c0.6-0.6,1.5-0.9,2.6-0.9c1.1,0,2,0.3,2.7,0.9
			c0.6,0.6,1,1.4,1,2.4c0,0.6-0.2,1.2-0.5,1.6c-0.3,0.4-0.8,0.8-1.4,1c0.7,0.2,1.2,0.6,1.6,1.1s0.6,1.2,0.6,1.9c0,1.2-0.3,2-1,2.7
			c-0.7,0.6-1.6,0.9-2.9,0.9c-1.2,0-2.2-0.3-2.9-0.9c-0.7-0.6-1-1.5-1-2.7c0-0.7,0.2-1.4,0.6-1.9C265.8,43.9,266.4,43.5,267,43.3z
			 M267.3,40.9c0,0.5,0.1,0.8,0.4,1.1c0.3,0.3,0.6,0.4,1.1,0.4c0.5,0,0.8-0.1,1.1-0.4c0.3-0.3,0.4-0.7,0.4-1.1
			c0-0.5-0.1-0.8-0.4-1.1c-0.3-0.3-0.6-0.4-1.1-0.4c-0.5,0-0.8,0.1-1.1,0.4C267.4,40.1,267.3,40.4,267.3,40.9L267.3,40.9z"/>
		<path id="path65" class="st1" d="M277.2,39.8v7.7h0.6c0.9,0,1.6-0.3,2-0.9c0.4-0.6,0.6-1.6,0.6-3c0-1.4-0.2-2.4-0.6-3
			c-0.4-0.6-1.1-0.9-2-0.9H277.2z M274.9,37.7h2.5c2,0,3.4,0.5,4.2,1.4c0.9,0.9,1.3,2.5,1.3,4.6c0,2.1-0.4,3.7-1.3,4.6
			c-0.9,0.9-2.3,1.4-4.2,1.4h-2.5V37.7z"/>
		<path id="path67" class="st1" d="M290.5,49.3c0,1.3-0.2,2.3-0.7,2.9c-0.5,0.6-1.3,0.9-2.4,0.9h-2.5v-1.8h1.9
			c0.5,0,0.9-0.1,1.1-0.4c0.2-0.3,0.3-0.8,0.3-1.5v-6.8h-2.4v-1.8h4.7L290.5,49.3z M290.5,39h-2.4v-2.7h2.4V39z"/>
		<path id="path69" class="st1" d="M297.2,41.1h2.7v2.9h-2.7V41.1z M297.2,46.7h2.7v2.9h-2.7V46.7z"/>
		<path id="path71" class="st1" d="M79.3,67.3h2.7v2.9h-2.7V67.3z"/>
		<path id="path73" class="st1" d="M87.4,70.2v-12h2.4v9.9h5.1v2.1H87.4z"/>
		<path id="path75" class="st1" d="M102.5,68.1v-2.3h-1.6v-2h3.7v5.5c-0.5,0.4-1,0.7-1.5,0.9c-0.5,0.2-1.1,0.3-1.8,0.3
			c-1.6,0-2.8-0.5-3.6-1.6c-0.8-1.1-1.3-2.6-1.3-4.6c0-2,0.4-3.6,1.3-4.6c0.9-1.1,2.1-1.6,3.7-1.6c0.5,0,1,0.1,1.4,0.2
			c0.5,0.1,0.9,0.3,1.3,0.6v2.6c-0.3-0.4-0.7-0.7-1.1-1c-0.4-0.2-0.9-0.3-1.4-0.3c-0.9,0-1.6,0.3-2,1c-0.4,0.7-0.7,1.7-0.7,3.1
			c0,1.3,0.2,2.3,0.6,3c0.4,0.7,1.1,1,1.9,1c0.2,0,0.5,0,0.6-0.1C102.2,68.2,102.4,68.2,102.5,68.1z"/>
		<path id="path77" class="st1" d="M107.2,61.2h4.7v7.2h2.9v1.8h-8.2v-1.8h2.9V63h-2.3V61.2z M109.5,56.9h2.4v2.7h-2.4V56.9z"/>
		<path id="path79" class="st1" d="M120.8,58.7v2.6h3.1V63h-3.1v4.3c0,0.4,0.1,0.7,0.3,0.9c0.2,0.2,0.5,0.3,1,0.3h1.8v1.8h-2
			c-1.3,0-2.3-0.2-2.7-0.6c-0.5-0.4-0.7-1.2-0.7-2.4V63h-2.3v-1.8h2.3v-2.6H120.8z"/>
		<path id="path81" class="st1" d="M134,70.2h-7.5v-12h7.5v2.1h-5.1v2.6h4.6V65h-4.6v3.1h5.1V70.2z"/>
		<path id="path83" class="st1" d="M140,64.9c-0.5,0-1,0.2-1.3,0.5c-0.3,0.3-0.5,0.8-0.5,1.3c0,0.6,0.2,1,0.5,1.3
			c0.3,0.3,0.8,0.5,1.3,0.5s1-0.2,1.3-0.5c0.3-0.3,0.5-0.8,0.5-1.3c0-0.6-0.2-1-0.5-1.3C141,65.1,140.6,64.9,140,64.9z M138.3,63.9
			c-0.6-0.2-1.1-0.5-1.4-1c-0.3-0.4-0.5-1-0.5-1.6c0-1,0.3-1.8,1-2.4c0.6-0.6,1.5-0.9,2.6-0.9c1.1,0,2,0.3,2.7,0.9
			c0.6,0.6,1,1.4,1,2.4c0,0.6-0.2,1.2-0.5,1.6c-0.3,0.4-0.8,0.8-1.4,1c0.7,0.2,1.2,0.6,1.6,1.1c0.4,0.5,0.6,1.2,0.6,1.9
			c0,1.2-0.3,2-1,2.7c-0.7,0.6-1.6,0.9-2.9,0.9c-1.2,0-2.2-0.3-2.9-0.9s-1-1.5-1-2.7c0-0.7,0.2-1.4,0.6-1.9
			C137.1,64.4,137.6,64.1,138.3,63.9L138.3,63.9z M138.5,61.4c0,0.5,0.1,0.8,0.4,1.1c0.3,0.3,0.6,0.4,1.1,0.4c0.5,0,0.8-0.1,1.1-0.4
			c0.3-0.3,0.4-0.7,0.4-1.1c0-0.5-0.1-0.8-0.4-1.1c-0.3-0.3-0.6-0.4-1.1-0.4c-0.5,0-0.8,0.1-1.1,0.4C138.7,60.6,138.5,61,138.5,61.4
			z"/>
		<path id="path85" class="st1" d="M149.9,64.9c-0.5,0-1,0.2-1.3,0.5c-0.3,0.3-0.5,0.8-0.5,1.3c0,0.6,0.2,1,0.5,1.3s0.8,0.5,1.3,0.5
			c0.5,0,1-0.2,1.3-0.5c0.3-0.3,0.5-0.8,0.5-1.3c0-0.6-0.2-1-0.5-1.3C150.9,65.1,150.5,64.9,149.9,64.9z M148.2,63.9
			c-0.6-0.2-1.1-0.5-1.4-1c-0.3-0.4-0.5-1-0.5-1.6c0-1,0.3-1.8,1-2.4c0.6-0.6,1.5-0.9,2.6-0.9c1.1,0,2,0.3,2.7,0.9s1,1.4,1,2.4
			c0,0.6-0.2,1.2-0.5,1.6c-0.3,0.4-0.8,0.8-1.4,1c0.7,0.2,1.2,0.6,1.6,1.1c0.4,0.5,0.6,1.2,0.6,1.9c0,1.2-0.3,2-1,2.7
			c-0.7,0.6-1.6,0.9-2.9,0.9c-1.2,0-2.2-0.3-2.9-0.9s-1-1.5-1-2.7c0-0.7,0.2-1.4,0.6-1.9C147,64.4,147.5,64.1,148.2,63.9L148.2,63.9
			z M148.4,61.4c0,0.5,0.1,0.8,0.4,1.1c0.3,0.3,0.6,0.4,1.1,0.4c0.5,0,0.8-0.1,1.1-0.4c0.3-0.3,0.4-0.7,0.4-1.1
			c0-0.5-0.1-0.8-0.4-1.1c-0.3-0.3-0.6-0.4-1.1-0.4c-0.5,0-0.8,0.1-1.1,0.4C148.6,60.6,148.4,61,148.4,61.4z"/>
		<path id="path87" class="st1" d="M159.9,64.9c-0.5,0-1,0.2-1.3,0.5c-0.3,0.3-0.5,0.8-0.5,1.3c0,0.6,0.2,1,0.5,1.3s0.8,0.5,1.3,0.5
			c0.5,0,1-0.2,1.3-0.5c0.3-0.3,0.5-0.8,0.5-1.3c0-0.6-0.2-1-0.5-1.3C160.8,65.1,160.4,64.9,159.9,64.9z M158.1,63.9
			c-0.6-0.2-1.1-0.5-1.4-1c-0.3-0.4-0.5-1-0.5-1.6c0-1,0.3-1.8,1-2.4c0.6-0.6,1.5-0.9,2.6-0.9c1.1,0,2,0.3,2.7,0.9
			c0.6,0.6,1,1.4,1,2.4c0,0.6-0.2,1.2-0.5,1.6c-0.3,0.4-0.8,0.8-1.4,1c0.7,0.2,1.2,0.6,1.6,1.1s0.6,1.2,0.6,1.9c0,1.2-0.3,2-1,2.7
			c-0.7,0.6-1.6,0.9-2.9,0.9c-1.2,0-2.2-0.3-2.9-0.9c-0.7-0.6-1-1.5-1-2.7c0-0.7,0.2-1.4,0.6-1.9C156.9,64.4,157.4,64.1,158.1,63.9
			L158.1,63.9z M158.3,61.4c0,0.5,0.1,0.8,0.4,1.1c0.3,0.3,0.6,0.4,1.1,0.4c0.5,0,0.8-0.1,1.1-0.4c0.3-0.3,0.4-0.7,0.4-1.1
			c0-0.5-0.1-0.8-0.4-1.1c-0.3-0.3-0.6-0.4-1.1-0.4c-0.5,0-0.8,0.1-1.1,0.4C158.5,60.6,158.3,61,158.3,61.4z"/>
		<path id="path89" class="st1" d="M168.3,60.4v7.7h0.6c0.9,0,1.6-0.3,2-0.9c0.4-0.6,0.6-1.6,0.6-3c0-1.4-0.2-2.4-0.6-3
			c-0.4-0.6-1.1-0.9-2-0.9H168.3z M165.9,58.2h2.5c2,0,3.4,0.5,4.2,1.4c0.9,0.9,1.3,2.5,1.3,4.6c0,2.1-0.4,3.7-1.3,4.6
			c-0.9,0.9-2.3,1.4-4.2,1.4h-2.5V58.2z"/>
		<path id="path91" class="st1" d="M178.3,67.3h2.7v2.9h-2.7V67.3z"/>
		<path id="path93" class="st1" d="M190.6,60.5v0.8h2.8V63h-2.8v7.2h-2.4V63H186v-1.8h2.2v-0.6c0-1.1,0.2-1.8,0.7-2.2
			c0.4-0.4,1.3-0.6,2.5-0.6h1.9v1.8h-1.8c-0.4,0-0.6,0.1-0.7,0.2C190.6,59.9,190.6,60.1,190.6,60.5z"/>
		<path id="path95" class="st1" d="M199.5,64.9c-0.5,0-1,0.2-1.3,0.5c-0.3,0.3-0.5,0.8-0.5,1.3c0,0.6,0.2,1,0.5,1.3
			c0.3,0.3,0.8,0.5,1.3,0.5c0.5,0,1-0.2,1.3-0.5c0.3-0.3,0.5-0.8,0.5-1.3c0-0.6-0.2-1-0.5-1.3C200.4,65.1,200,64.9,199.5,64.9z
			 M197.7,63.9c-0.6-0.2-1.1-0.5-1.4-1c-0.3-0.4-0.5-1-0.5-1.6c0-1,0.3-1.8,1-2.4c0.6-0.6,1.5-0.9,2.6-0.9c1.1,0,2,0.3,2.7,0.9
			s1,1.4,1,2.4c0,0.6-0.2,1.2-0.5,1.6c-0.3,0.4-0.8,0.8-1.4,1c0.7,0.2,1.2,0.6,1.6,1.1c0.4,0.5,0.6,1.2,0.6,1.9c0,1.2-0.3,2-1,2.7
			c-0.7,0.6-1.6,0.9-2.9,0.9c-1.2,0-2.2-0.3-2.9-0.9s-1-1.5-1-2.7c0-0.7,0.2-1.4,0.6-1.9C196.5,64.4,197,64.1,197.7,63.9z M198,61.4
			c0,0.5,0.1,0.8,0.4,1.1c0.3,0.3,0.6,0.4,1.1,0.4c0.5,0,0.8-0.1,1.1-0.4c0.3-0.3,0.4-0.7,0.4-1.1c0-0.5-0.1-0.8-0.4-1.1
			c-0.3-0.3-0.6-0.4-1.1-0.4c-0.5,0-0.8,0.1-1.1,0.4C198.1,60.6,198,61,198,61.4z"/>
		<path id="path97" class="st1" d="M211.4,68.1v-2.3h-1.6v-2h3.7v5.5c-0.5,0.4-1,0.7-1.5,0.9c-0.5,0.2-1.1,0.3-1.8,0.3
			c-1.6,0-2.8-0.5-3.6-1.6c-0.8-1.1-1.3-2.6-1.3-4.6c0-2,0.4-3.6,1.3-4.6c0.9-1.1,2.1-1.6,3.7-1.6c0.5,0,1,0.1,1.4,0.2
			c0.5,0.1,0.9,0.3,1.3,0.6v2.6c-0.3-0.4-0.7-0.7-1.1-1c-0.4-0.2-0.9-0.3-1.4-0.3c-0.9,0-1.6,0.3-2,1c-0.4,0.7-0.7,1.7-0.7,3.1
			c0,1.3,0.2,2.3,0.6,3c0.4,0.7,1.1,1,1.9,1c0.2,0,0.5,0,0.6-0.1C211.2,68.2,211.3,68.2,211.4,68.1L211.4,68.1z"/>
		<path id="path99" class="st1" d="M221.2,69.9c0,1.3-0.2,2.3-0.7,2.9c-0.5,0.6-1.3,0.9-2.4,0.9h-2.5v-1.8h1.9
			c0.5,0,0.9-0.1,1.1-0.4c0.2-0.3,0.3-0.8,0.3-1.5V63h-2.4v-1.8h4.7L221.2,69.9z M221.2,59.6h-2.4v-2.7h2.4V59.6z"/>
		<path id="path101" class="st1" d="M231.1,69.9c0,1.3-0.2,2.3-0.7,2.9c-0.5,0.6-1.3,0.9-2.4,0.9h-2.5v-1.8h1.9
			c0.5,0,0.9-0.1,1.1-0.4c0.2-0.3,0.3-0.8,0.3-1.5V63h-2.4v-1.8h4.7L231.1,69.9z M231.1,59.6h-2.4v-2.7h2.4V59.6z"/>
		<path id="path103" class="st1" d="M241,69.9c0,1.3-0.2,2.3-0.7,2.9c-0.5,0.6-1.3,0.9-2.4,0.9h-2.5v-1.8h1.9c0.5,0,0.9-0.1,1.1-0.4
			c0.2-0.3,0.3-0.8,0.3-1.5V63h-2.4v-1.8h4.7L241,69.9z M241,59.6h-2.4v-2.7h2.4V59.6z"/>
		<path id="path105" class="st1" d="M245.9,70.2v-12h2.4v9.9h5.1v2.1H245.9z"/>
		<path id="path107" class="st1" d="M258.9,64.9c-0.5,0-1,0.2-1.3,0.5c-0.3,0.3-0.5,0.8-0.5,1.3c0,0.6,0.2,1,0.5,1.3
			c0.3,0.3,0.8,0.5,1.3,0.5s1-0.2,1.3-0.5c0.3-0.3,0.5-0.8,0.5-1.3c0-0.6-0.2-1-0.5-1.3C259.9,65.1,259.4,64.9,258.9,64.9
			L258.9,64.9z M257.1,63.9c-0.6-0.2-1.1-0.5-1.4-1c-0.3-0.4-0.5-1-0.5-1.6c0-1,0.3-1.8,1-2.4c0.6-0.6,1.5-0.9,2.6-0.9
			c1.1,0,2,0.3,2.7,0.9s1,1.4,1,2.4c0,0.6-0.2,1.2-0.5,1.6c-0.3,0.4-0.8,0.8-1.4,1c0.7,0.2,1.2,0.6,1.6,1.1c0.4,0.5,0.6,1.2,0.6,1.9
			c0,1.2-0.3,2-1,2.7c-0.7,0.6-1.6,0.9-2.9,0.9c-1.2,0-2.2-0.3-2.9-0.9c-0.7-0.6-1-1.5-1-2.7c0-0.7,0.2-1.4,0.6-1.9
			C255.9,64.4,256.5,64.1,257.1,63.9z M257.4,61.4c0,0.5,0.1,0.8,0.4,1.1c0.3,0.3,0.6,0.4,1.1,0.4c0.5,0,0.8-0.1,1.1-0.4
			c0.3-0.3,0.4-0.7,0.4-1.1c0-0.5-0.1-0.8-0.4-1.1c-0.3-0.3-0.6-0.4-1.1-0.4c-0.5,0-0.8,0.1-1.1,0.4C257.5,60.6,257.4,61,257.4,61.4
			L257.4,61.4z"/>
		<path id="path109" class="st1" d="M268.8,64.9c-0.5,0-1,0.2-1.3,0.5c-0.3,0.3-0.5,0.8-0.5,1.3c0,0.6,0.2,1,0.5,1.3
			s0.8,0.5,1.3,0.5c0.5,0,1-0.2,1.3-0.5c0.3-0.3,0.5-0.8,0.5-1.3c0-0.6-0.2-1-0.5-1.3C269.8,65.1,269.3,64.9,268.8,64.9z M267,63.9
			c-0.6-0.2-1.1-0.5-1.4-1c-0.3-0.4-0.5-1-0.5-1.6c0-1,0.3-1.8,1-2.4c0.6-0.6,1.5-0.9,2.6-0.9c1.1,0,2,0.3,2.7,0.9
			c0.6,0.6,1,1.4,1,2.4c0,0.6-0.2,1.2-0.5,1.6c-0.3,0.4-0.8,0.8-1.4,1c0.7,0.2,1.2,0.6,1.6,1.1s0.6,1.2,0.6,1.9c0,1.2-0.3,2-1,2.7
			s-1.6,0.9-2.9,0.9c-1.2,0-2.2-0.3-2.9-0.9s-1-1.5-1-2.7c0-0.7,0.2-1.4,0.6-1.9C265.8,64.4,266.4,64.1,267,63.9z M267.3,61.4
			c0,0.5,0.1,0.8,0.4,1.1c0.3,0.3,0.6,0.4,1.1,0.4c0.5,0,0.8-0.1,1.1-0.4c0.3-0.3,0.4-0.7,0.4-1.1c0-0.5-0.1-0.8-0.4-1.1
			c-0.3-0.3-0.6-0.4-1.1-0.4c-0.5,0-0.8,0.1-1.1,0.4C267.4,60.6,267.3,61,267.3,61.4L267.3,61.4z"/>
		<path id="path111" class="st1" d="M278.7,64.9c-0.5,0-1,0.2-1.3,0.5c-0.3,0.3-0.5,0.8-0.5,1.3c0,0.6,0.2,1,0.5,1.3
			c0.3,0.3,0.8,0.5,1.3,0.5c0.5,0,1-0.2,1.3-0.5c0.3-0.3,0.5-0.8,0.5-1.3c0-0.6-0.2-1-0.5-1.3C279.7,65.1,279.2,64.9,278.7,64.9
			L278.7,64.9z M277,63.9c-0.6-0.2-1.1-0.5-1.4-1c-0.3-0.4-0.5-1-0.5-1.6c0-1,0.3-1.8,1-2.4c0.6-0.6,1.5-0.9,2.6-0.9
			c1.1,0,2,0.3,2.7,0.9s1,1.4,1,2.4c0,0.6-0.2,1.2-0.5,1.6c-0.3,0.4-0.8,0.8-1.4,1c0.7,0.2,1.2,0.6,1.6,1.1c0.4,0.5,0.6,1.2,0.6,1.9
			c0,1.2-0.3,2-1,2.7c-0.7,0.6-1.6,0.9-2.9,0.9c-1.2,0-2.2-0.3-2.9-0.9c-0.7-0.6-1-1.5-1-2.7c0-0.7,0.2-1.4,0.6-1.9
			C275.7,64.4,276.3,64.1,277,63.9z M277.2,61.4c0,0.5,0.1,0.8,0.4,1.1c0.3,0.3,0.6,0.4,1.1,0.4c0.5,0,0.8-0.1,1.1-0.4
			c0.3-0.3,0.4-0.7,0.4-1.1c0-0.5-0.1-0.8-0.4-1.1c-0.3-0.3-0.6-0.4-1.1-0.4c-0.5,0-0.8,0.1-1.1,0.4C277.3,60.6,277.2,61,277.2,61.4
			z"/>
		<path id="path113" class="st1" d="M288.6,64.9c-0.5,0-1,0.2-1.3,0.5c-0.3,0.3-0.5,0.8-0.5,1.3c0,0.6,0.2,1,0.5,1.3
			c0.3,0.3,0.8,0.5,1.3,0.5s1-0.2,1.3-0.5c0.3-0.3,0.5-0.8,0.5-1.3c0-0.6-0.2-1-0.5-1.3C289.6,65.1,289.2,64.9,288.6,64.9z
			 M286.9,63.9c-0.6-0.2-1.1-0.5-1.4-1c-0.3-0.4-0.5-1-0.5-1.6c0-1,0.3-1.8,1-2.4c0.6-0.6,1.5-0.9,2.6-0.9c1.1,0,2,0.3,2.7,0.9
			c0.6,0.6,1,1.4,1,2.4c0,0.6-0.2,1.2-0.5,1.6c-0.3,0.4-0.8,0.8-1.4,1c0.7,0.2,1.2,0.6,1.6,1.1c0.4,0.5,0.6,1.2,0.6,1.9
			c0,1.2-0.3,2-1,2.7c-0.7,0.6-1.6,0.9-2.9,0.9c-1.2,0-2.2-0.3-2.9-0.9c-0.7-0.6-1-1.5-1-2.7c0-0.7,0.2-1.4,0.6-1.9
			C285.7,64.4,286.2,64.1,286.9,63.9L286.9,63.9z M287.1,61.4c0,0.5,0.1,0.8,0.4,1.1c0.3,0.3,0.6,0.4,1.1,0.4c0.5,0,0.8-0.1,1.1-0.4
			c0.3-0.3,0.4-0.7,0.4-1.1c0-0.5-0.1-0.8-0.4-1.1c-0.3-0.3-0.6-0.4-1.1-0.4c-0.5,0-0.8,0.1-1.1,0.4C287.2,60.6,287.1,61,287.1,61.4
			L287.1,61.4z"/>
		<path id="path115" class="st1" d="M302.4,70.2h-7.5v-12h7.5v2.1h-5.1v2.6h4.6V65h-4.6v3.1h5.1V70.2z"/>
		<path id="path117" class="st1" d="M307.1,67.3h2.7v2.2l-1.6,3.1h-1.7l0.6-3.1V67.3z M307.1,61.7h2.7v2.9h-2.7V61.7z"/>
		<path id="path119" class="st1" d="M77.4,81.8h4.7V89H85v1.8h-8.2V89h2.9v-5.4h-2.3L77.4,81.8z M79.7,77.4h2.4v2.7h-2.4V77.4z"/>
		<path id="path121" class="st1" d="M94.4,90.8h-7.5v-12h7.5v2.1h-5.1v2.6h4.6v2.1h-4.6v3.1h5.1V90.8z"/>
		<path id="path123" class="st1" d="M128.8,82.3h2.7v2.9h-2.7V82.3z M128.8,87.9h2.7v2.9h-2.7V87.9z"/>
		<path id="path125" class="st1" d="M140,85.5c-0.5,0-1,0.2-1.3,0.5c-0.3,0.3-0.5,0.8-0.5,1.3c0,0.6,0.2,1,0.5,1.3
			c0.3,0.3,0.8,0.5,1.3,0.5s1-0.2,1.3-0.5c0.3-0.3,0.5-0.8,0.5-1.3c0-0.6-0.2-1-0.5-1.3C141,85.6,140.6,85.5,140,85.5z M138.3,84.4
			c-0.6-0.2-1.1-0.5-1.4-1c-0.3-0.4-0.5-1-0.5-1.6c0-1,0.3-1.8,1-2.4c0.6-0.6,1.5-0.9,2.6-0.9c1.1,0,2,0.3,2.7,0.9
			c0.6,0.6,1,1.4,1,2.4c0,0.6-0.2,1.2-0.5,1.6c-0.3,0.4-0.8,0.8-1.4,1c0.7,0.2,1.2,0.6,1.6,1.1c0.4,0.5,0.6,1.2,0.6,1.9
			c0,1.2-0.3,2-1,2.7c-0.7,0.6-1.6,0.9-2.9,0.9c-1.2,0-2.2-0.3-2.9-0.9c-0.7-0.6-1-1.5-1-2.7c0-0.7,0.2-1.4,0.6-1.9
			C137.1,85,137.6,84.6,138.3,84.4L138.3,84.4z M138.5,82c0,0.5,0.1,0.8,0.4,1.1c0.3,0.3,0.6,0.4,1.1,0.4c0.5,0,0.8-0.1,1.1-0.4
			c0.3-0.3,0.4-0.7,0.4-1.1c0-0.5-0.1-0.8-0.4-1.1c-0.3-0.3-0.6-0.4-1.1-0.4c-0.5,0-0.8,0.1-1.1,0.4C138.7,81.2,138.5,81.6,138.5,82
			z"/>
		<path id="path127" class="st1" d="M149.9,85.5c-0.5,0-1,0.2-1.3,0.5c-0.3,0.3-0.5,0.8-0.5,1.3c0,0.6,0.2,1,0.5,1.3
			c0.3,0.3,0.8,0.5,1.3,0.5c0.5,0,1-0.2,1.3-0.5c0.3-0.3,0.5-0.8,0.5-1.3c0-0.6-0.2-1-0.5-1.3C150.9,85.6,150.5,85.5,149.9,85.5z
			 M148.2,84.4c-0.6-0.2-1.1-0.5-1.4-1c-0.3-0.4-0.5-1-0.5-1.6c0-1,0.3-1.8,1-2.4c0.6-0.6,1.5-0.9,2.6-0.9c1.1,0,2,0.3,2.7,0.9
			c0.6,0.6,1,1.4,1,2.4c0,0.6-0.2,1.2-0.5,1.6c-0.3,0.4-0.8,0.8-1.4,1c0.7,0.2,1.2,0.6,1.6,1.1c0.4,0.5,0.6,1.2,0.6,1.9
			c0,1.2-0.3,2-1,2.7c-0.7,0.6-1.6,0.9-2.9,0.9c-1.2,0-2.2-0.3-2.9-0.9c-0.7-0.6-1-1.5-1-2.7c0-0.7,0.2-1.4,0.6-1.9
			C147,85,147.5,84.6,148.2,84.4L148.2,84.4z M148.4,82c0,0.5,0.1,0.8,0.4,1.1c0.3,0.3,0.6,0.4,1.1,0.4c0.5,0,0.8-0.1,1.1-0.4
			c0.3-0.3,0.4-0.7,0.4-1.1c0-0.5-0.1-0.8-0.4-1.1c-0.3-0.3-0.6-0.4-1.1-0.4c-0.5,0-0.8,0.1-1.1,0.4C148.6,81.2,148.4,81.6,148.4,82
			z"/>
		<path id="path129" class="st1" d="M159.9,85.5c-0.5,0-1,0.2-1.3,0.5c-0.3,0.3-0.5,0.8-0.5,1.3c0,0.6,0.2,1,0.5,1.3
			c0.3,0.3,0.8,0.5,1.3,0.5c0.5,0,1-0.2,1.3-0.5c0.3-0.3,0.5-0.8,0.5-1.3c0-0.6-0.2-1-0.5-1.3C160.8,85.6,160.4,85.5,159.9,85.5z
			 M158.1,84.4c-0.6-0.2-1.1-0.5-1.4-1c-0.3-0.4-0.5-1-0.5-1.6c0-1,0.3-1.8,1-2.4c0.6-0.6,1.5-0.9,2.6-0.9c1.1,0,2,0.3,2.7,0.9
			c0.6,0.6,1,1.4,1,2.4c0,0.6-0.2,1.2-0.5,1.6c-0.3,0.4-0.8,0.8-1.4,1c0.7,0.2,1.2,0.6,1.6,1.1s0.6,1.2,0.6,1.9c0,1.2-0.3,2-1,2.7
			c-0.7,0.6-1.6,0.9-2.9,0.9c-1.2,0-2.2-0.3-2.9-0.9c-0.7-0.6-1-1.5-1-2.7c0-0.7,0.2-1.4,0.6-1.9C156.9,85,157.4,84.6,158.1,84.4
			L158.1,84.4z M158.3,82c0,0.5,0.1,0.8,0.4,1.1c0.3,0.3,0.6,0.4,1.1,0.4c0.5,0,0.8-0.1,1.1-0.4c0.3-0.3,0.4-0.7,0.4-1.1
			c0-0.5-0.1-0.8-0.4-1.1c-0.3-0.3-0.6-0.4-1.1-0.4c-0.5,0-0.8,0.1-1.1,0.4C158.5,81.2,158.3,81.6,158.3,82z"/>
		<path id="path131" class="st1" d="M169.8,85.5c-0.5,0-1,0.2-1.3,0.5c-0.3,0.3-0.5,0.8-0.5,1.3c0,0.6,0.2,1,0.5,1.3
			c0.3,0.3,0.8,0.5,1.3,0.5s1-0.2,1.3-0.5c0.3-0.3,0.5-0.8,0.5-1.3c0-0.6-0.2-1-0.5-1.3C170.7,85.6,170.3,85.5,169.8,85.5z
			 M168,84.4c-0.6-0.2-1.1-0.5-1.4-1c-0.3-0.4-0.5-1-0.5-1.6c0-1,0.3-1.8,1-2.4c0.6-0.6,1.5-0.9,2.6-0.9c1.1,0,2,0.3,2.7,0.9
			c0.6,0.6,1,1.4,1,2.4c0,0.6-0.2,1.2-0.5,1.6c-0.3,0.4-0.8,0.8-1.4,1c0.7,0.2,1.2,0.6,1.6,1.1s0.6,1.2,0.6,1.9c0,1.2-0.3,2-1,2.7
			c-0.7,0.6-1.6,0.9-2.9,0.9c-1.2,0-2.2-0.3-2.9-0.9c-0.7-0.6-1-1.5-1-2.7c0-0.7,0.2-1.4,0.6-1.9C166.8,85,167.3,84.6,168,84.4z
			 M168.2,82c0,0.5,0.1,0.8,0.4,1.1c0.3,0.3,0.6,0.4,1.1,0.4c0.5,0,0.8-0.1,1.1-0.4c0.3-0.3,0.4-0.7,0.4-1.1c0-0.5-0.1-0.8-0.4-1.1
			c-0.3-0.3-0.6-0.4-1.1-0.4c-0.5,0-0.8,0.1-1.1,0.4C168.4,81.2,168.2,81.6,168.2,82z"/>
		<path id="path133" class="st1" d="M183.5,90.8h-7.5v-12h7.5v2.1h-5.1v2.6h4.6v2.1h-4.6v3.1h5.1V90.8z"/>
		<path id="path135" class="st1" d="M190.2,79.3v2.6h3.1v1.8h-3.1v4.3c0,0.4,0.1,0.7,0.3,0.9c0.2,0.2,0.5,0.3,1,0.3h1.8v1.8h-2
			c-1.3,0-2.3-0.2-2.7-0.6c-0.5-0.4-0.7-1.2-0.7-2.4v-4.1h-2.3v-1.8h2.3v-2.6H190.2z"/>
		<path id="path137" class="st1" d="M198.1,87.9h2.7v2.9h-2.7V87.9z"/>
		<path id="path139" class="st1" d="M257.6,87.9h2.7v2.9h-2.7V87.9z"/>
		<path id="path141" class="st1" d="M270.9,88.6v-2.3h-1.6v-2h3.7v5.5c-0.5,0.4-1,0.7-1.5,0.9c-0.5,0.2-1.1,0.3-1.8,0.3
			c-1.6,0-2.8-0.5-3.6-1.6c-0.8-1.1-1.3-2.6-1.3-4.6c0-2,0.4-3.6,1.3-4.6c0.9-1.1,2.1-1.6,3.7-1.6c0.5,0,1,0.1,1.4,0.2
			c0.5,0.1,0.9,0.3,1.3,0.6V82c-0.3-0.4-0.7-0.7-1.1-1c-0.4-0.2-0.9-0.3-1.4-0.3c-0.9,0-1.6,0.3-2,1c-0.4,0.7-0.7,1.7-0.7,3.1
			c0,1.3,0.2,2.3,0.6,3c0.4,0.7,1.1,1,1.9,1c0.2,0,0.5,0,0.6-0.1C270.6,88.8,270.7,88.7,270.9,88.6L270.9,88.6z"/>
		<path id="path143" class="st1" d="M278.7,85.5c-0.5,0-1,0.2-1.3,0.5c-0.3,0.3-0.5,0.8-0.5,1.3c0,0.6,0.2,1,0.5,1.3
			c0.3,0.3,0.8,0.5,1.3,0.5c0.5,0,1-0.2,1.3-0.5c0.3-0.3,0.5-0.8,0.5-1.3c0-0.6-0.2-1-0.5-1.3C279.7,85.6,279.2,85.5,278.7,85.5
			L278.7,85.5z M277,84.4c-0.6-0.2-1.1-0.5-1.4-1c-0.3-0.4-0.5-1-0.5-1.6c0-1,0.3-1.8,1-2.4c0.6-0.6,1.5-0.9,2.6-0.9
			c1.1,0,2,0.3,2.7,0.9c0.6,0.6,1,1.4,1,2.4c0,0.6-0.2,1.2-0.5,1.6c-0.3,0.4-0.8,0.8-1.4,1c0.7,0.2,1.2,0.6,1.6,1.1
			c0.4,0.5,0.6,1.2,0.6,1.9c0,1.2-0.3,2-1,2.7c-0.7,0.6-1.6,0.9-2.9,0.9c-1.2,0-2.2-0.3-2.9-0.9c-0.7-0.6-1-1.5-1-2.7
			c0-0.7,0.2-1.4,0.6-1.9C275.7,85,276.3,84.6,277,84.4z M277.2,82c0,0.5,0.1,0.8,0.4,1.1c0.3,0.3,0.6,0.4,1.1,0.4
			c0.5,0,0.8-0.1,1.1-0.4c0.3-0.3,0.4-0.7,0.4-1.1c0-0.5-0.1-0.8-0.4-1.1c-0.3-0.3-0.6-0.4-1.1-0.4c-0.5,0-0.8,0.1-1.1,0.4
			C277.3,81.2,277.2,81.6,277.2,82z"/>
		<path id="path145" class="st1" d="M288.6,85.5c-0.5,0-1,0.2-1.3,0.5c-0.3,0.3-0.5,0.8-0.5,1.3c0,0.6,0.2,1,0.5,1.3
			c0.3,0.3,0.8,0.5,1.3,0.5s1-0.2,1.3-0.5c0.3-0.3,0.5-0.8,0.5-1.3c0-0.6-0.2-1-0.5-1.3C289.6,85.6,289.2,85.5,288.6,85.5z
			 M286.9,84.4c-0.6-0.2-1.1-0.5-1.4-1c-0.3-0.4-0.5-1-0.5-1.6c0-1,0.3-1.8,1-2.4c0.6-0.6,1.5-0.9,2.6-0.9c1.1,0,2,0.3,2.7,0.9
			c0.6,0.6,1,1.4,1,2.4c0,0.6-0.2,1.2-0.5,1.6c-0.3,0.4-0.8,0.8-1.4,1c0.7,0.2,1.2,0.6,1.6,1.1c0.4,0.5,0.6,1.2,0.6,1.9
			c0,1.2-0.3,2-1,2.7c-0.7,0.6-1.6,0.9-2.9,0.9c-1.2,0-2.2-0.3-2.9-0.9c-0.7-0.6-1-1.5-1-2.7c0-0.7,0.2-1.4,0.6-1.9
			C285.7,85,286.2,84.6,286.9,84.4L286.9,84.4z M287.1,82c0,0.5,0.1,0.8,0.4,1.1c0.3,0.3,0.6,0.4,1.1,0.4c0.5,0,0.8-0.1,1.1-0.4
			c0.3-0.3,0.4-0.7,0.4-1.1c0-0.5-0.1-0.8-0.4-1.1c-0.3-0.3-0.6-0.4-1.1-0.4c-0.5,0-0.8,0.1-1.1,0.4C287.2,81.2,287.1,81.6,287.1,82
			L287.1,82z"/>
		<path id="path147" class="st1" d="M298.5,85.5c-0.5,0-1,0.2-1.3,0.5c-0.3,0.3-0.5,0.8-0.5,1.3c0,0.6,0.2,1,0.5,1.3
			c0.3,0.3,0.8,0.5,1.3,0.5c0.5,0,1-0.2,1.3-0.5c0.3-0.3,0.5-0.8,0.5-1.3c0-0.6-0.2-1-0.5-1.3C299.5,85.6,299.1,85.5,298.5,85.5
			L298.5,85.5z M296.8,84.4c-0.6-0.2-1.1-0.5-1.4-1c-0.3-0.4-0.5-1-0.5-1.6c0-1,0.3-1.8,1-2.4c0.6-0.6,1.5-0.9,2.6-0.9
			c1.1,0,2,0.3,2.7,0.9c0.6,0.6,1,1.4,1,2.4c0,0.6-0.2,1.2-0.5,1.6c-0.3,0.4-0.8,0.8-1.4,1c0.7,0.2,1.2,0.6,1.6,1.1s0.6,1.2,0.6,1.9
			c0,1.2-0.3,2-1,2.7c-0.7,0.6-1.6,0.9-2.9,0.9c-1.2,0-2.2-0.3-2.9-0.9c-0.7-0.6-1-1.5-1-2.7c0-0.7,0.2-1.4,0.6-1.9
			C295.6,85,296.1,84.6,296.8,84.4z M297,82c0,0.5,0.1,0.8,0.4,1.1c0.3,0.3,0.6,0.4,1.1,0.4c0.5,0,0.8-0.1,1.1-0.4
			c0.3-0.3,0.4-0.7,0.4-1.1c0-0.5-0.1-0.8-0.4-1.1c-0.3-0.3-0.6-0.4-1.1-0.4c-0.5,0-0.8,0.1-1.1,0.4C297.1,81.2,297,81.6,297,82z"/>
		<path id="path149" class="st1" d="M308.4,85.5c-0.5,0-1,0.2-1.3,0.5c-0.3,0.3-0.5,0.8-0.5,1.3c0,0.6,0.2,1,0.5,1.3
			c0.3,0.3,0.8,0.5,1.3,0.5c0.5,0,1-0.2,1.3-0.5c0.3-0.3,0.5-0.8,0.5-1.3c0-0.6-0.2-1-0.5-1.3C309.4,85.6,309,85.5,308.4,85.5
			L308.4,85.5z M306.7,84.4c-0.6-0.2-1.1-0.5-1.4-1c-0.3-0.4-0.5-1-0.5-1.6c0-1,0.3-1.8,1-2.4c0.6-0.6,1.5-0.9,2.6-0.9
			c1.1,0,2,0.3,2.7,0.9c0.6,0.6,1,1.4,1,2.4c0,0.6-0.2,1.2-0.5,1.6c-0.3,0.4-0.8,0.8-1.4,1c0.7,0.2,1.2,0.6,1.6,1.1s0.6,1.2,0.6,1.9
			c0,1.2-0.3,2-1,2.7c-0.7,0.6-1.6,0.9-2.9,0.9c-1.2,0-2.2-0.3-2.9-0.9c-0.7-0.6-1-1.5-1-2.7c0-0.7,0.2-1.4,0.6-1.9
			C305.5,85,306,84.6,306.7,84.4L306.7,84.4z M306.9,82c0,0.5,0.1,0.8,0.4,1.1c0.3,0.3,0.6,0.4,1.1,0.4c0.5,0,0.8-0.1,1.1-0.4
			c0.3-0.3,0.4-0.7,0.4-1.1c0-0.5-0.1-0.8-0.4-1.1c-0.3-0.3-0.6-0.4-1.1-0.4c-0.5,0-0.8,0.1-1.1,0.4C307.1,81.2,306.9,81.6,306.9,82
			z"/>
		<path id="path151" class="st1" d="M317,87.9h2.7v2.9H317V87.9z"/>
		<path id="path153" class="st1" d="M79.3,108.4h2.7v2.2l-1.6,3.1h-1.7l0.6-3.1L79.3,108.4z M79.3,102.8h2.7v2.9h-2.7V102.8z"/>
		<path id="path155" class="st1" d="M87.3,102.4H92v7.2h2.9v1.8h-8.2v-1.8h2.9v-5.4h-2.3V102.4z M89.7,98H92v2.7h-2.4V98z"/>
		<path id="path157" class="st1" d="M143.9,111.4h-7.5v-12h7.5v2.1h-5.1v2.6h4.6v2.1h-4.6v3.1h5.1V111.4z"/>
		<path id="path159" class="st1" d="M149.9,106c-0.5,0-1,0.2-1.3,0.5c-0.3,0.3-0.5,0.8-0.5,1.3c0,0.6,0.2,1,0.5,1.3
			c0.3,0.3,0.8,0.5,1.3,0.5c0.5,0,1-0.2,1.3-0.5c0.3-0.3,0.5-0.8,0.5-1.3c0-0.6-0.2-1-0.5-1.3C150.9,106.2,150.5,106,149.9,106z
			 M148.2,105c-0.6-0.2-1.1-0.5-1.4-1c-0.3-0.4-0.5-1-0.5-1.6c0-1,0.3-1.8,1-2.4c0.6-0.6,1.5-0.9,2.6-0.9c1.1,0,2,0.3,2.7,0.9
			c0.6,0.6,1,1.4,1,2.4c0,0.6-0.2,1.2-0.5,1.6c-0.3,0.4-0.8,0.8-1.4,1c0.7,0.2,1.2,0.6,1.6,1.1c0.4,0.5,0.6,1.2,0.6,1.9
			c0,1.2-0.3,2-1,2.7c-0.7,0.6-1.6,0.9-2.9,0.9c-1.2,0-2.2-0.3-2.9-0.9s-1-1.5-1-2.7c0-0.7,0.2-1.4,0.6-1.9
			C147,105.6,147.5,105.2,148.2,105L148.2,105z M148.4,102.6c0,0.5,0.1,0.8,0.4,1.1c0.3,0.3,0.6,0.4,1.1,0.4c0.5,0,0.8-0.1,1.1-0.4
			c0.3-0.3,0.4-0.7,0.4-1.1c0-0.5-0.1-0.8-0.4-1.1c-0.3-0.3-0.6-0.4-1.1-0.4c-0.5,0-0.8,0.1-1.1,0.4
			C148.6,101.8,148.4,102.1,148.4,102.6z"/>
		<path id="path161" class="st1" d="M159.9,106c-0.5,0-1,0.2-1.3,0.5c-0.3,0.3-0.5,0.8-0.5,1.3c0,0.6,0.2,1,0.5,1.3
			c0.3,0.3,0.8,0.5,1.3,0.5c0.5,0,1-0.2,1.3-0.5c0.3-0.3,0.5-0.8,0.5-1.3c0-0.6-0.2-1-0.5-1.3C160.8,106.2,160.4,106,159.9,106z
			 M158.1,105c-0.6-0.2-1.1-0.5-1.4-1c-0.3-0.4-0.5-1-0.5-1.6c0-1,0.3-1.8,1-2.4c0.6-0.6,1.5-0.9,2.6-0.9c1.1,0,2,0.3,2.7,0.9
			c0.6,0.6,1,1.4,1,2.4c0,0.6-0.2,1.2-0.5,1.6c-0.3,0.4-0.8,0.8-1.4,1c0.7,0.2,1.2,0.6,1.6,1.1c0.4,0.5,0.6,1.2,0.6,1.9
			c0,1.2-0.3,2-1,2.7c-0.7,0.6-1.6,0.9-2.9,0.9c-1.2,0-2.2-0.3-2.9-0.9c-0.7-0.6-1-1.5-1-2.7c0-0.7,0.2-1.4,0.6-1.9
			C156.9,105.6,157.4,105.2,158.1,105L158.1,105z M158.3,102.6c0,0.5,0.1,0.8,0.4,1.1c0.3,0.3,0.6,0.4,1.1,0.4
			c0.5,0,0.8-0.1,1.1-0.4c0.3-0.3,0.4-0.7,0.4-1.1c0-0.5-0.1-0.8-0.4-1.1c-0.3-0.3-0.6-0.4-1.1-0.4c-0.5,0-0.8,0.1-1.1,0.4
			C158.5,101.8,158.3,102.1,158.3,102.6z"/>
		<path id="path163" class="st1" d="M169.8,106c-0.5,0-1,0.2-1.3,0.5c-0.3,0.3-0.5,0.8-0.5,1.3c0,0.6,0.2,1,0.5,1.3
			c0.3,0.3,0.8,0.5,1.3,0.5s1-0.2,1.3-0.5c0.3-0.3,0.5-0.8,0.5-1.3c0-0.6-0.2-1-0.5-1.3C170.7,106.2,170.3,106,169.8,106z M168,105
			c-0.6-0.2-1.1-0.5-1.4-1c-0.3-0.4-0.5-1-0.5-1.6c0-1,0.3-1.8,1-2.4c0.6-0.6,1.5-0.9,2.6-0.9c1.1,0,2,0.3,2.7,0.9
			c0.6,0.6,1,1.4,1,2.4c0,0.6-0.2,1.2-0.5,1.6c-0.3,0.4-0.8,0.8-1.4,1c0.7,0.2,1.2,0.6,1.6,1.1c0.4,0.5,0.6,1.2,0.6,1.9
			c0,1.2-0.3,2-1,2.7s-1.6,0.9-2.9,0.9c-1.2,0-2.2-0.3-2.9-0.9c-0.7-0.6-1-1.5-1-2.7c0-0.7,0.2-1.4,0.6-1.9
			C166.8,105.6,167.3,105.2,168,105z M168.2,102.6c0,0.5,0.1,0.8,0.4,1.1c0.3,0.3,0.6,0.4,1.1,0.4c0.5,0,0.8-0.1,1.1-0.4
			c0.3-0.3,0.4-0.7,0.4-1.1c0-0.5-0.1-0.8-0.4-1.1c-0.3-0.3-0.6-0.4-1.1-0.4c-0.5,0-0.8,0.1-1.1,0.4
			C168.4,101.8,168.2,102.1,168.2,102.6z"/>
		<path id="path165" class="st1" d="M178.4,108.4h2.5v2.2l-1.6,3.1h-1.7l0.8-3.1L178.4,108.4z"/>
		<path id="path167" class="st1" d="M267.6,108.4h2.5v2.2l-1.6,3.1h-1.7l0.8-3.1V108.4z"/>
		<path id="path169" class="st1" d="M278.7,106c-0.5,0-1,0.2-1.3,0.5c-0.3,0.3-0.5,0.8-0.5,1.3c0,0.6,0.2,1,0.5,1.3
			c0.3,0.3,0.8,0.5,1.3,0.5c0.5,0,1-0.2,1.3-0.5c0.3-0.3,0.5-0.8,0.5-1.3c0-0.6-0.2-1-0.5-1.3C279.7,106.2,279.2,106,278.7,106
			L278.7,106z M277,105c-0.6-0.2-1.1-0.5-1.4-1c-0.3-0.4-0.5-1-0.5-1.6c0-1,0.3-1.8,1-2.4c0.6-0.6,1.5-0.9,2.6-0.9
			c1.1,0,2,0.3,2.7,0.9c0.6,0.6,1,1.4,1,2.4c0,0.6-0.2,1.2-0.5,1.6c-0.3,0.4-0.8,0.8-1.4,1c0.7,0.2,1.2,0.6,1.6,1.1
			c0.4,0.5,0.6,1.2,0.6,1.9c0,1.2-0.3,2-1,2.7c-0.7,0.6-1.6,0.9-2.9,0.9c-1.2,0-2.2-0.3-2.9-0.9c-0.7-0.6-1-1.5-1-2.7
			c0-0.7,0.2-1.4,0.6-1.9C275.7,105.6,276.3,105.2,277,105z M277.2,102.6c0,0.5,0.1,0.8,0.4,1.1c0.3,0.3,0.6,0.4,1.1,0.4
			c0.5,0,0.8-0.1,1.1-0.4c0.3-0.3,0.4-0.7,0.4-1.1c0-0.5-0.1-0.8-0.4-1.1c-0.3-0.3-0.6-0.4-1.1-0.4c-0.5,0-0.8,0.1-1.1,0.4
			S277.2,102.1,277.2,102.6z"/>
		<path id="path171" class="st1" d="M288.6,106c-0.5,0-1,0.2-1.3,0.5c-0.3,0.3-0.5,0.8-0.5,1.3c0,0.6,0.2,1,0.5,1.3
			c0.3,0.3,0.8,0.5,1.3,0.5s1-0.2,1.3-0.5c0.3-0.3,0.5-0.8,0.5-1.3c0-0.6-0.2-1-0.5-1.3C289.6,106.2,289.2,106,288.6,106z
			 M286.9,105c-0.6-0.2-1.1-0.5-1.4-1c-0.3-0.4-0.5-1-0.5-1.6c0-1,0.3-1.8,1-2.4c0.6-0.6,1.5-0.9,2.6-0.9c1.1,0,2,0.3,2.7,0.9
			c0.6,0.6,1,1.4,1,2.4c0,0.6-0.2,1.2-0.5,1.6c-0.3,0.4-0.8,0.8-1.4,1c0.7,0.2,1.2,0.6,1.6,1.1c0.4,0.5,0.6,1.2,0.6,1.9
			c0,1.2-0.3,2-1,2.7c-0.7,0.6-1.6,0.9-2.9,0.9c-1.2,0-2.2-0.3-2.9-0.9c-0.7-0.6-1-1.5-1-2.7c0-0.7,0.2-1.4,0.6-1.9
			C285.7,105.6,286.2,105.2,286.9,105L286.9,105z M287.1,102.6c0,0.5,0.1,0.8,0.4,1.1c0.3,0.3,0.6,0.4,1.1,0.4
			c0.5,0,0.8-0.1,1.1-0.4c0.3-0.3,0.4-0.7,0.4-1.1c0-0.5-0.1-0.8-0.4-1.1c-0.3-0.3-0.6-0.4-1.1-0.4c-0.5,0-0.8,0.1-1.1,0.4
			C287.2,101.8,287.1,102.1,287.1,102.6L287.1,102.6z"/>
		<path id="path173" class="st1" d="M298.5,106c-0.5,0-1,0.2-1.3,0.5c-0.3,0.3-0.5,0.8-0.5,1.3c0,0.6,0.2,1,0.5,1.3
			c0.3,0.3,0.8,0.5,1.3,0.5c0.5,0,1-0.2,1.3-0.5c0.3-0.3,0.5-0.8,0.5-1.3c0-0.6-0.2-1-0.5-1.3C299.5,106.2,299.1,106,298.5,106
			L298.5,106z M296.8,105c-0.6-0.2-1.1-0.5-1.4-1c-0.3-0.4-0.5-1-0.5-1.6c0-1,0.3-1.8,1-2.4c0.6-0.6,1.5-0.9,2.6-0.9
			c1.1,0,2,0.3,2.7,0.9c0.6,0.6,1,1.4,1,2.4c0,0.6-0.2,1.2-0.5,1.6c-0.3,0.4-0.8,0.8-1.4,1c0.7,0.2,1.2,0.6,1.6,1.1
			c0.4,0.5,0.6,1.2,0.6,1.9c0,1.2-0.3,2-1,2.7c-0.7,0.6-1.6,0.9-2.9,0.9c-1.2,0-2.2-0.3-2.9-0.9c-0.7-0.6-1-1.5-1-2.7
			c0-0.7,0.2-1.4,0.6-1.9C295.6,105.6,296.1,105.2,296.8,105z M297,102.6c0,0.5,0.1,0.8,0.4,1.1c0.3,0.3,0.6,0.4,1.1,0.4
			c0.5,0,0.8-0.1,1.1-0.4c0.3-0.3,0.4-0.7,0.4-1.1c0-0.5-0.1-0.8-0.4-1.1c-0.3-0.3-0.6-0.4-1.1-0.4c-0.5,0-0.8,0.1-1.1,0.4
			C297.1,101.8,297,102.1,297,102.6z"/>
		<path id="path175" class="st1" d="M308.4,106c-0.5,0-1,0.2-1.3,0.5c-0.3,0.3-0.5,0.8-0.5,1.3c0,0.6,0.2,1,0.5,1.3
			c0.3,0.3,0.8,0.5,1.3,0.5c0.5,0,1-0.2,1.3-0.5c0.3-0.3,0.5-0.8,0.5-1.3c0-0.6-0.2-1-0.5-1.3C309.4,106.2,309,106,308.4,106
			L308.4,106z M306.7,105c-0.6-0.2-1.1-0.5-1.4-1c-0.3-0.4-0.5-1-0.5-1.6c0-1,0.3-1.8,1-2.4c0.6-0.6,1.5-0.9,2.6-0.9
			c1.1,0,2,0.3,2.7,0.9c0.6,0.6,1,1.4,1,2.4c0,0.6-0.2,1.2-0.5,1.6c-0.3,0.4-0.8,0.8-1.4,1c0.7,0.2,1.2,0.6,1.6,1.1
			c0.4,0.5,0.6,1.2,0.6,1.9c0,1.2-0.3,2-1,2.7s-1.6,0.9-2.9,0.9c-1.2,0-2.2-0.3-2.9-0.9s-1-1.5-1-2.7c0-0.7,0.2-1.4,0.6-1.9
			C305.5,105.6,306,105.2,306.7,105L306.7,105z M306.9,102.6c0,0.5,0.1,0.8,0.4,1.1c0.3,0.3,0.6,0.4,1.1,0.4c0.5,0,0.8-0.1,1.1-0.4
			c0.3-0.3,0.4-0.7,0.4-1.1c0-0.5-0.1-0.8-0.4-1.1c-0.3-0.3-0.6-0.4-1.1-0.4c-0.5,0-0.8,0.1-1.1,0.4S306.9,102.1,306.9,102.6z"/>
		<path id="path177" class="st1" d="M317.1,108.4h2.5v2.2l-1.6,3.1h-1.7l0.8-3.1V108.4z"/>
		<path id="path179" class="st1" d="M138.6,122.1v7.7h0.6c0.9,0,1.6-0.3,2-0.9c0.4-0.6,0.6-1.6,0.6-3c0-1.4-0.2-2.4-0.6-3
			c-0.4-0.6-1.1-0.9-2-0.9L138.6,122.1z M136.2,119.9h2.5c2,0,3.4,0.5,4.2,1.4c0.9,0.9,1.3,2.5,1.3,4.6c0,2.1-0.4,3.7-1.3,4.6
			c-0.9,0.9-2.3,1.4-4.2,1.4h-2.5V119.9z"/>
		<path id="path181" class="st1" d="M149.9,126.6c-0.5,0-1,0.2-1.3,0.5c-0.3,0.3-0.5,0.8-0.5,1.3s0.2,1,0.5,1.3
			c0.3,0.3,0.8,0.5,1.3,0.5c0.5,0,1-0.2,1.3-0.5c0.3-0.3,0.5-0.8,0.5-1.3c0-0.6-0.2-1-0.5-1.3C150.9,126.8,150.5,126.6,149.9,126.6z
			 M148.2,125.6c-0.6-0.2-1.1-0.5-1.4-1c-0.3-0.4-0.5-1-0.5-1.6c0-1,0.3-1.8,1-2.4c0.6-0.6,1.5-0.9,2.6-0.9c1.1,0,2,0.3,2.7,0.9
			c0.6,0.6,1,1.4,1,2.4c0,0.6-0.2,1.2-0.5,1.6c-0.3,0.4-0.8,0.8-1.4,1c0.7,0.2,1.2,0.6,1.6,1.1c0.4,0.5,0.6,1.2,0.6,1.9
			c0,1.2-0.3,2-1,2.7c-0.7,0.6-1.6,0.9-2.9,0.9c-1.2,0-2.2-0.3-2.9-0.9s-1-1.5-1-2.7c0-0.7,0.2-1.4,0.6-1.9
			C147,126.1,147.5,125.8,148.2,125.6L148.2,125.6z M148.4,123.1c0,0.5,0.1,0.8,0.4,1.1c0.3,0.3,0.6,0.4,1.1,0.4
			c0.5,0,0.8-0.1,1.1-0.4c0.3-0.3,0.4-0.7,0.4-1.1c0-0.5-0.1-0.8-0.4-1.1c-0.3-0.3-0.6-0.4-1.1-0.4c-0.5,0-0.8,0.1-1.1,0.4
			C148.6,122.3,148.4,122.7,148.4,123.1z"/>
		<path id="path183" class="st1" d="M159.9,126.6c-0.5,0-1,0.2-1.3,0.5c-0.3,0.3-0.5,0.8-0.5,1.3s0.2,1,0.5,1.3
			c0.3,0.3,0.8,0.5,1.3,0.5c0.5,0,1-0.2,1.3-0.5c0.3-0.3,0.5-0.8,0.5-1.3c0-0.6-0.2-1-0.5-1.3C160.8,126.8,160.4,126.6,159.9,126.6z
			 M158.1,125.6c-0.6-0.2-1.1-0.5-1.4-1c-0.3-0.4-0.5-1-0.5-1.6c0-1,0.3-1.8,1-2.4c0.6-0.6,1.5-0.9,2.6-0.9c1.1,0,2,0.3,2.7,0.9
			c0.6,0.6,1,1.4,1,2.4c0,0.6-0.2,1.2-0.5,1.6c-0.3,0.4-0.8,0.8-1.4,1c0.7,0.2,1.2,0.6,1.6,1.1c0.4,0.5,0.6,1.2,0.6,1.9
			c0,1.2-0.3,2-1,2.7c-0.7,0.6-1.6,0.9-2.9,0.9c-1.2,0-2.2-0.3-2.9-0.9c-0.7-0.6-1-1.5-1-2.7c0-0.7,0.2-1.4,0.6-1.9
			C156.9,126.1,157.4,125.8,158.1,125.6L158.1,125.6z M158.3,123.1c0,0.5,0.1,0.8,0.4,1.1c0.3,0.3,0.6,0.4,1.1,0.4
			c0.5,0,0.8-0.1,1.1-0.4c0.3-0.3,0.4-0.7,0.4-1.1c0-0.5-0.1-0.8-0.4-1.1c-0.3-0.3-0.6-0.4-1.1-0.4c-0.5,0-0.8,0.1-1.1,0.4
			C158.5,122.3,158.3,122.7,158.3,123.1z"/>
		<path id="path185" class="st1" d="M169.8,126.6c-0.5,0-1,0.2-1.3,0.5c-0.3,0.3-0.5,0.8-0.5,1.3s0.2,1,0.5,1.3
			c0.3,0.3,0.8,0.5,1.3,0.5s1-0.2,1.3-0.5c0.3-0.3,0.5-0.8,0.5-1.3c0-0.6-0.2-1-0.5-1.3C170.7,126.8,170.3,126.6,169.8,126.6z
			 M168,125.6c-0.6-0.2-1.1-0.5-1.4-1c-0.3-0.4-0.5-1-0.5-1.6c0-1,0.3-1.8,1-2.4c0.6-0.6,1.5-0.9,2.6-0.9c1.1,0,2,0.3,2.7,0.9
			c0.6,0.6,1,1.4,1,2.4c0,0.6-0.2,1.2-0.5,1.6c-0.3,0.4-0.8,0.8-1.4,1c0.7,0.2,1.2,0.6,1.6,1.1c0.4,0.5,0.6,1.2,0.6,1.9
			c0,1.2-0.3,2-1,2.7s-1.6,0.9-2.9,0.9c-1.2,0-2.2-0.3-2.9-0.9c-0.7-0.6-1-1.5-1-2.7c0-0.7,0.2-1.4,0.6-1.9
			C166.8,126.1,167.3,125.8,168,125.6z M168.2,123.1c0,0.5,0.1,0.8,0.4,1.1c0.3,0.3,0.6,0.4,1.1,0.4c0.5,0,0.8-0.1,1.1-0.4
			c0.3-0.3,0.4-0.7,0.4-1.1c0-0.5-0.1-0.8-0.4-1.1c-0.3-0.3-0.6-0.4-1.1-0.4c-0.5,0-0.8,0.1-1.1,0.4
			C168.4,122.3,168.2,122.7,168.2,123.1z"/>
		<path id="path187" class="st1" d="M178.4,129h2.5v2.2l-1.6,3.1h-1.7l0.8-3.1L178.4,129z"/>
		<path id="path189" class="st1" d="M267.5,123.4h2.7v2.9h-2.7V123.4z M267.5,129h2.7v2.9h-2.7V129z"/>
		<path id="path191" class="st1" d="M278.7,126.6c-0.5,0-1,0.2-1.3,0.5c-0.3,0.3-0.5,0.8-0.5,1.3c0,0.6,0.2,1,0.5,1.3
			c0.3,0.3,0.8,0.5,1.3,0.5c0.5,0,1-0.2,1.3-0.5c0.3-0.3,0.5-0.8,0.5-1.3c0-0.6-0.2-1-0.5-1.3C279.7,126.8,279.2,126.6,278.7,126.6
			L278.7,126.6z M277,125.6c-0.6-0.2-1.1-0.5-1.4-1c-0.3-0.4-0.5-1-0.5-1.6c0-1,0.3-1.8,1-2.4c0.6-0.6,1.5-0.9,2.6-0.9
			c1.1,0,2,0.3,2.7,0.9c0.6,0.6,1,1.4,1,2.4c0,0.6-0.2,1.2-0.5,1.6c-0.3,0.4-0.8,0.8-1.4,1c0.7,0.2,1.2,0.6,1.6,1.1
			c0.4,0.5,0.6,1.2,0.6,1.9c0,1.2-0.3,2-1,2.7c-0.7,0.6-1.6,0.9-2.9,0.9c-1.2,0-2.2-0.3-2.9-0.9c-0.7-0.6-1-1.5-1-2.7
			c0-0.7,0.2-1.4,0.6-1.9C275.7,126.1,276.3,125.8,277,125.6z M277.2,123.1c0,0.5,0.1,0.8,0.4,1.1c0.3,0.3,0.6,0.4,1.1,0.4
			c0.5,0,0.8-0.1,1.1-0.4c0.3-0.3,0.4-0.7,0.4-1.1c0-0.5-0.1-0.8-0.4-1.1c-0.3-0.3-0.6-0.4-1.1-0.4c-0.5,0-0.8,0.1-1.1,0.4
			S277.2,122.7,277.2,123.1z"/>
		<path id="path193" class="st1" d="M288.6,126.6c-0.5,0-1,0.2-1.3,0.5c-0.3,0.3-0.5,0.8-0.5,1.3s0.2,1,0.5,1.3
			c0.3,0.3,0.8,0.5,1.3,0.5s1-0.2,1.3-0.5c0.3-0.3,0.5-0.8,0.5-1.3c0-0.6-0.2-1-0.5-1.3C289.6,126.8,289.2,126.6,288.6,126.6z
			 M286.9,125.6c-0.6-0.2-1.1-0.5-1.4-1c-0.3-0.4-0.5-1-0.5-1.6c0-1,0.3-1.8,1-2.4c0.6-0.6,1.5-0.9,2.6-0.9c1.1,0,2,0.3,2.7,0.9
			c0.6,0.6,1,1.4,1,2.4c0,0.6-0.2,1.2-0.5,1.6c-0.3,0.4-0.8,0.8-1.4,1c0.7,0.2,1.2,0.6,1.6,1.1c0.4,0.5,0.6,1.2,0.6,1.9
			c0,1.2-0.3,2-1,2.7c-0.7,0.6-1.6,0.9-2.9,0.9c-1.2,0-2.2-0.3-2.9-0.9c-0.7-0.6-1-1.5-1-2.7c0-0.7,0.2-1.4,0.6-1.9
			C285.7,126.1,286.2,125.8,286.9,125.6L286.9,125.6z M287.1,123.1c0,0.5,0.1,0.8,0.4,1.1c0.3,0.3,0.6,0.4,1.1,0.4
			c0.5,0,0.8-0.1,1.1-0.4c0.3-0.3,0.4-0.7,0.4-1.1c0-0.5-0.1-0.8-0.4-1.1c-0.3-0.3-0.6-0.4-1.1-0.4c-0.5,0-0.8,0.1-1.1,0.4
			C287.2,122.3,287.1,122.7,287.1,123.1L287.1,123.1z"/>
		<path id="path195" class="st1" d="M298.5,126.6c-0.5,0-1,0.2-1.3,0.5c-0.3,0.3-0.5,0.8-0.5,1.3s0.2,1,0.5,1.3
			c0.3,0.3,0.8,0.5,1.3,0.5c0.5,0,1-0.2,1.3-0.5c0.3-0.3,0.5-0.8,0.5-1.3c0-0.6-0.2-1-0.5-1.3C299.5,126.8,299.1,126.6,298.5,126.6
			L298.5,126.6z M296.8,125.6c-0.6-0.2-1.1-0.5-1.4-1c-0.3-0.4-0.5-1-0.5-1.6c0-1,0.3-1.8,1-2.4c0.6-0.6,1.5-0.9,2.6-0.9
			c1.1,0,2,0.3,2.7,0.9c0.6,0.6,1,1.4,1,2.4c0,0.6-0.2,1.2-0.5,1.6c-0.3,0.4-0.8,0.8-1.4,1c0.7,0.2,1.2,0.6,1.6,1.1
			c0.4,0.5,0.6,1.2,0.6,1.9c0,1.2-0.3,2-1,2.7c-0.7,0.6-1.6,0.9-2.9,0.9c-1.2,0-2.2-0.3-2.9-0.9c-0.7-0.6-1-1.5-1-2.7
			c0-0.7,0.2-1.4,0.6-1.9C295.6,126.1,296.1,125.8,296.8,125.6z M297,123.1c0,0.5,0.1,0.8,0.4,1.1c0.3,0.3,0.6,0.4,1.1,0.4
			c0.5,0,0.8-0.1,1.1-0.4c0.3-0.3,0.4-0.7,0.4-1.1c0-0.5-0.1-0.8-0.4-1.1c-0.3-0.3-0.6-0.4-1.1-0.4c-0.5,0-0.8,0.1-1.1,0.4
			C297.1,122.3,297,122.7,297,123.1z"/>
		<path id="path197" class="st1" d="M308.4,126.6c-0.5,0-1,0.2-1.3,0.5c-0.3,0.3-0.5,0.8-0.5,1.3c0,0.6,0.2,1,0.5,1.3
			c0.3,0.3,0.8,0.5,1.3,0.5c0.5,0,1-0.2,1.3-0.5c0.3-0.3,0.5-0.8,0.5-1.3c0-0.6-0.2-1-0.5-1.3C309.4,126.8,309,126.6,308.4,126.6
			L308.4,126.6z M306.7,125.6c-0.6-0.2-1.1-0.5-1.4-1c-0.3-0.4-0.5-1-0.5-1.6c0-1,0.3-1.8,1-2.4c0.6-0.6,1.5-0.9,2.6-0.9
			c1.1,0,2,0.3,2.7,0.9c0.6,0.6,1,1.4,1,2.4c0,0.6-0.2,1.2-0.5,1.6c-0.3,0.4-0.8,0.8-1.4,1c0.7,0.2,1.2,0.6,1.6,1.1
			c0.4,0.5,0.6,1.2,0.6,1.9c0,1.2-0.3,2-1,2.7s-1.6,0.9-2.9,0.9c-1.2,0-2.2-0.3-2.9-0.9s-1-1.5-1-2.7c0-0.7,0.2-1.4,0.6-1.9
			C305.5,126.1,306,125.8,306.7,125.6L306.7,125.6z M306.9,123.1c0,0.5,0.1,0.8,0.4,1.1c0.3,0.3,0.6,0.4,1.1,0.4
			c0.5,0,0.8-0.1,1.1-0.4c0.3-0.3,0.4-0.7,0.4-1.1c0-0.5-0.1-0.8-0.4-1.1c-0.3-0.3-0.6-0.4-1.1-0.4c-0.5,0-0.8,0.1-1.1,0.4
			S306.9,122.7,306.9,123.1z"/>
		<path id="path199" class="st1" d="M317,123.4h2.7v2.9H317V123.4z M317,129h2.7v2.9H317V129z"/>
		<path id="path201" class="st1" d="M138.6,142.6v7.7h0.6c0.9,0,1.6-0.3,2-0.9c0.4-0.6,0.6-1.6,0.6-3c0-1.4-0.2-2.4-0.6-3
			c-0.4-0.6-1.1-0.9-2-0.9L138.6,142.6z M136.2,140.5h2.5c2,0,3.4,0.5,4.2,1.4c0.9,0.9,1.3,2.5,1.3,4.6c0,2.1-0.4,3.7-1.3,4.6
			c-0.9,0.9-2.3,1.4-4.2,1.4h-2.5V140.5z"/>
		<path id="path203" class="st1" d="M149.9,147.1c-0.5,0-1,0.2-1.3,0.5c-0.3,0.3-0.5,0.8-0.5,1.3c0,0.6,0.2,1,0.5,1.3
			s0.8,0.5,1.3,0.5c0.5,0,1-0.2,1.3-0.5c0.3-0.3,0.5-0.8,0.5-1.3c0-0.6-0.2-1-0.5-1.3C150.9,147.3,150.5,147.1,149.9,147.1z
			 M148.2,146.1c-0.6-0.2-1.1-0.5-1.4-1c-0.3-0.4-0.5-1-0.5-1.6c0-1,0.3-1.8,1-2.4c0.6-0.6,1.5-0.9,2.6-0.9c1.1,0,2,0.3,2.7,0.9
			c0.6,0.6,1,1.4,1,2.4c0,0.6-0.2,1.2-0.5,1.6c-0.3,0.4-0.8,0.8-1.4,1c0.7,0.2,1.2,0.6,1.6,1.1c0.4,0.5,0.6,1.2,0.6,1.9
			c0,1.2-0.3,2-1,2.7c-0.7,0.6-1.6,0.9-2.9,0.9c-1.2,0-2.2-0.3-2.9-0.9c-0.7-0.6-1-1.5-1-2.7c0-0.7,0.2-1.4,0.6-1.9
			C147,146.7,147.5,146.3,148.2,146.1L148.2,146.1z M148.4,143.7c0,0.5,0.1,0.8,0.4,1.1c0.3,0.3,0.6,0.4,1.1,0.4
			c0.5,0,0.8-0.1,1.1-0.4c0.3-0.3,0.4-0.7,0.4-1.1c0-0.5-0.1-0.8-0.4-1.1c-0.3-0.3-0.6-0.4-1.1-0.4c-0.5,0-0.8,0.1-1.1,0.4
			C148.6,142.9,148.4,143.2,148.4,143.7z"/>
		<path id="path205" class="st1" d="M159.9,147.1c-0.5,0-1,0.2-1.3,0.5c-0.3,0.3-0.5,0.8-0.5,1.3c0,0.6,0.2,1,0.5,1.3
			s0.8,0.5,1.3,0.5c0.5,0,1-0.2,1.3-0.5c0.3-0.3,0.5-0.8,0.5-1.3c0-0.6-0.2-1-0.5-1.3C160.8,147.3,160.4,147.1,159.9,147.1z
			 M158.1,146.1c-0.6-0.2-1.1-0.5-1.4-1c-0.3-0.4-0.5-1-0.5-1.6c0-1,0.3-1.8,1-2.4c0.6-0.6,1.5-0.9,2.6-0.9c1.1,0,2,0.3,2.7,0.9
			c0.6,0.6,1,1.4,1,2.4c0,0.6-0.2,1.2-0.5,1.6c-0.3,0.4-0.8,0.8-1.4,1c0.7,0.2,1.2,0.6,1.6,1.1c0.4,0.5,0.6,1.2,0.6,1.9
			c0,1.2-0.3,2-1,2.7c-0.7,0.6-1.6,0.9-2.9,0.9c-1.2,0-2.2-0.3-2.9-0.9c-0.7-0.6-1-1.5-1-2.7c0-0.7,0.2-1.4,0.6-1.9
			C156.9,146.7,157.4,146.3,158.1,146.1L158.1,146.1z M158.3,143.7c0,0.5,0.1,0.8,0.4,1.1c0.3,0.3,0.6,0.4,1.1,0.4
			c0.5,0,0.8-0.1,1.1-0.4c0.3-0.3,0.4-0.7,0.4-1.1c0-0.5-0.1-0.8-0.4-1.1c-0.3-0.3-0.6-0.4-1.1-0.4c-0.5,0-0.8,0.1-1.1,0.4
			C158.5,142.9,158.3,143.2,158.3,143.7z"/>
		<path id="path207" class="st1" d="M169.8,147.1c-0.5,0-1,0.2-1.3,0.5c-0.3,0.3-0.5,0.8-0.5,1.3c0,0.6,0.2,1,0.5,1.3
			c0.3,0.3,0.8,0.5,1.3,0.5s1-0.2,1.3-0.5c0.3-0.3,0.5-0.8,0.5-1.3c0-0.6-0.2-1-0.5-1.3C170.7,147.3,170.3,147.1,169.8,147.1z
			 M168,146.1c-0.6-0.2-1.1-0.5-1.4-1c-0.3-0.4-0.5-1-0.5-1.6c0-1,0.3-1.8,1-2.4c0.6-0.6,1.5-0.9,2.6-0.9c1.1,0,2,0.3,2.7,0.9
			c0.6,0.6,1,1.4,1,2.4c0,0.6-0.2,1.2-0.5,1.6c-0.3,0.4-0.8,0.8-1.4,1c0.7,0.2,1.2,0.6,1.6,1.1c0.4,0.5,0.6,1.2,0.6,1.9
			c0,1.2-0.3,2-1,2.7c-0.7,0.6-1.6,0.9-2.9,0.9c-1.2,0-2.2-0.3-2.9-0.9c-0.7-0.6-1-1.5-1-2.7c0-0.7,0.2-1.4,0.6-1.9
			C166.8,146.7,167.3,146.3,168,146.1z M168.2,143.7c0,0.5,0.1,0.8,0.4,1.1c0.3,0.3,0.6,0.4,1.1,0.4c0.5,0,0.8-0.1,1.1-0.4
			c0.3-0.3,0.4-0.7,0.4-1.1c0-0.5-0.1-0.8-0.4-1.1c-0.3-0.3-0.6-0.4-1.1-0.4c-0.5,0-0.8,0.1-1.1,0.4
			C168.4,142.9,168.2,143.2,168.2,143.7z"/>
		<path id="path209" class="st1" d="M178.4,149.5h2.5v2.2l-1.6,3.1h-1.7l0.8-3.1L178.4,149.5z"/>
		<path id="path211" class="st1" d="M267.5,144h2.7v2.9h-2.7V144z M267.5,149.5h2.7v2.9h-2.7V149.5z"/>
		<path id="path213" class="st1" d="M278.7,147.1c-0.5,0-1,0.2-1.3,0.5c-0.3,0.3-0.5,0.8-0.5,1.3c0,0.6,0.2,1,0.5,1.3
			c0.3,0.3,0.8,0.5,1.3,0.5c0.5,0,1-0.2,1.3-0.5c0.3-0.3,0.5-0.8,0.5-1.3c0-0.6-0.2-1-0.5-1.3C279.7,147.3,279.2,147.1,278.7,147.1
			L278.7,147.1z M277,146.1c-0.6-0.2-1.1-0.5-1.4-1c-0.3-0.4-0.5-1-0.5-1.6c0-1,0.3-1.8,1-2.4c0.6-0.6,1.5-0.9,2.6-0.9
			c1.1,0,2,0.3,2.7,0.9c0.6,0.6,1,1.4,1,2.4c0,0.6-0.2,1.2-0.5,1.6c-0.3,0.4-0.8,0.8-1.4,1c0.7,0.2,1.2,0.6,1.6,1.1
			c0.4,0.5,0.6,1.2,0.6,1.9c0,1.2-0.3,2-1,2.7c-0.7,0.6-1.6,0.9-2.9,0.9c-1.2,0-2.2-0.3-2.9-0.9c-0.7-0.6-1-1.5-1-2.7
			c0-0.7,0.2-1.4,0.6-1.9C275.7,146.7,276.3,146.3,277,146.1z M277.2,143.7c0,0.5,0.1,0.8,0.4,1.1c0.3,0.3,0.6,0.4,1.1,0.4
			c0.5,0,0.8-0.1,1.1-0.4c0.3-0.3,0.4-0.7,0.4-1.1c0-0.5-0.1-0.8-0.4-1.1c-0.3-0.3-0.6-0.4-1.1-0.4c-0.5,0-0.8,0.1-1.1,0.4
			C277.3,142.9,277.2,143.2,277.2,143.7z"/>
		<path id="path215" class="st1" d="M288.6,147.1c-0.5,0-1,0.2-1.3,0.5c-0.3,0.3-0.5,0.8-0.5,1.3c0,0.6,0.2,1,0.5,1.3
			c0.3,0.3,0.8,0.5,1.3,0.5s1-0.2,1.3-0.5c0.3-0.3,0.5-0.8,0.5-1.3c0-0.6-0.2-1-0.5-1.3C289.6,147.3,289.2,147.1,288.6,147.1z
			 M286.9,146.1c-0.6-0.2-1.1-0.5-1.4-1c-0.3-0.4-0.5-1-0.5-1.6c0-1,0.3-1.8,1-2.4c0.6-0.6,1.5-0.9,2.6-0.9c1.1,0,2,0.3,2.7,0.9
			c0.6,0.6,1,1.4,1,2.4c0,0.6-0.2,1.2-0.5,1.6c-0.3,0.4-0.8,0.8-1.4,1c0.7,0.2,1.2,0.6,1.6,1.1c0.4,0.5,0.6,1.2,0.6,1.9
			c0,1.2-0.3,2-1,2.7c-0.7,0.6-1.6,0.9-2.9,0.9c-1.2,0-2.2-0.3-2.9-0.9c-0.7-0.6-1-1.5-1-2.7c0-0.7,0.2-1.4,0.6-1.9
			C285.7,146.7,286.2,146.3,286.9,146.1L286.9,146.1z M287.1,143.7c0,0.5,0.1,0.8,0.4,1.1c0.3,0.3,0.6,0.4,1.1,0.4
			c0.5,0,0.8-0.1,1.1-0.4c0.3-0.3,0.4-0.7,0.4-1.1c0-0.5-0.1-0.8-0.4-1.1c-0.3-0.3-0.6-0.4-1.1-0.4c-0.5,0-0.8,0.1-1.1,0.4
			C287.2,142.9,287.1,143.2,287.1,143.7L287.1,143.7z"/>
		<path id="path217" class="st1" d="M298.5,147.1c-0.5,0-1,0.2-1.3,0.5c-0.3,0.3-0.5,0.8-0.5,1.3c0,0.6,0.2,1,0.5,1.3
			c0.3,0.3,0.8,0.5,1.3,0.5c0.5,0,1-0.2,1.3-0.5c0.3-0.3,0.5-0.8,0.5-1.3c0-0.6-0.2-1-0.5-1.3C299.5,147.3,299.1,147.1,298.5,147.1
			L298.5,147.1z M296.8,146.1c-0.6-0.2-1.1-0.5-1.4-1c-0.3-0.4-0.5-1-0.5-1.6c0-1,0.3-1.8,1-2.4c0.6-0.6,1.5-0.9,2.6-0.9
			c1.1,0,2,0.3,2.7,0.9c0.6,0.6,1,1.4,1,2.4c0,0.6-0.2,1.2-0.5,1.6c-0.3,0.4-0.8,0.8-1.4,1c0.7,0.2,1.2,0.6,1.6,1.1
			c0.4,0.5,0.6,1.2,0.6,1.9c0,1.2-0.3,2-1,2.7c-0.7,0.6-1.6,0.9-2.9,0.9c-1.2,0-2.2-0.3-2.9-0.9c-0.7-0.6-1-1.5-1-2.7
			c0-0.7,0.2-1.4,0.6-1.9C295.6,146.7,296.1,146.3,296.8,146.1z M297,143.7c0,0.5,0.1,0.8,0.4,1.1c0.3,0.3,0.6,0.4,1.1,0.4
			c0.5,0,0.8-0.1,1.1-0.4c0.3-0.3,0.4-0.7,0.4-1.1c0-0.5-0.1-0.8-0.4-1.1c-0.3-0.3-0.6-0.4-1.1-0.4c-0.5,0-0.8,0.1-1.1,0.4
			C297.1,142.9,297,143.2,297,143.7z"/>
		<path id="path219" class="st1" d="M308.4,147.1c-0.5,0-1,0.2-1.3,0.5c-0.3,0.3-0.5,0.8-0.5,1.3c0,0.6,0.2,1,0.5,1.3
			s0.8,0.5,1.3,0.5c0.5,0,1-0.2,1.3-0.5c0.3-0.3,0.5-0.8,0.5-1.3c0-0.6-0.2-1-0.5-1.3C309.4,147.3,309,147.1,308.4,147.1
			L308.4,147.1z M306.7,146.1c-0.6-0.2-1.1-0.5-1.4-1c-0.3-0.4-0.5-1-0.5-1.6c0-1,0.3-1.8,1-2.4c0.6-0.6,1.5-0.9,2.6-0.9
			c1.1,0,2,0.3,2.7,0.9c0.6,0.6,1,1.4,1,2.4c0,0.6-0.2,1.2-0.5,1.6c-0.3,0.4-0.8,0.8-1.4,1c0.7,0.2,1.2,0.6,1.6,1.1
			c0.4,0.5,0.6,1.2,0.6,1.9c0,1.2-0.3,2-1,2.7c-0.7,0.6-1.6,0.9-2.9,0.9c-1.2,0-2.2-0.3-2.9-0.9c-0.7-0.6-1-1.5-1-2.7
			c0-0.7,0.2-1.4,0.6-1.9C305.5,146.7,306,146.3,306.7,146.1L306.7,146.1z M306.9,143.7c0,0.5,0.1,0.8,0.4,1.1
			c0.3,0.3,0.6,0.4,1.1,0.4c0.5,0,0.8-0.1,1.1-0.4c0.3-0.3,0.4-0.7,0.4-1.1c0-0.5-0.1-0.8-0.4-1.1c-0.3-0.3-0.6-0.4-1.1-0.4
			c-0.5,0-0.8,0.1-1.1,0.4C307.1,142.9,306.9,143.2,306.9,143.7z"/>
		<path id="path221" class="st1" d="M317,144h2.7v2.9H317V144z M317,149.5h2.7v2.9H317V149.5z"/>
		<path id="path223" class="st1" d="M138.6,163.2v7.7h0.6c0.9,0,1.6-0.3,2-0.9c0.4-0.6,0.6-1.6,0.6-3c0-1.4-0.2-2.4-0.6-3
			c-0.4-0.6-1.1-0.9-2-0.9L138.6,163.2z M136.2,161.1h2.5c2,0,3.4,0.5,4.2,1.4c0.9,0.9,1.3,2.5,1.3,4.6c0,2.1-0.4,3.7-1.3,4.6
			c-0.9,0.9-2.3,1.4-4.2,1.4h-2.5V161.1z"/>
		<path id="path225" class="st1" d="M149.9,167.7c-0.5,0-1,0.2-1.3,0.5c-0.3,0.3-0.5,0.8-0.5,1.3c0,0.6,0.2,1,0.5,1.3
			c0.3,0.3,0.8,0.5,1.3,0.5c0.5,0,1-0.2,1.3-0.5c0.3-0.3,0.5-0.8,0.5-1.3c0-0.6-0.2-1-0.5-1.3C150.9,167.9,150.5,167.7,149.9,167.7z
			 M148.2,166.7c-0.6-0.2-1.1-0.5-1.4-1c-0.3-0.4-0.5-1-0.5-1.6c0-1,0.3-1.8,1-2.4c0.6-0.6,1.5-0.9,2.6-0.9c1.1,0,2,0.3,2.7,0.9
			c0.6,0.6,1,1.4,1,2.4c0,0.6-0.2,1.2-0.5,1.6c-0.3,0.4-0.8,0.8-1.4,1c0.7,0.2,1.2,0.6,1.6,1.1c0.4,0.5,0.6,1.2,0.6,1.9
			c0,1.2-0.3,2-1,2.7c-0.7,0.6-1.6,0.9-2.9,0.9c-1.2,0-2.2-0.3-2.9-0.9s-1-1.5-1-2.7c0-0.7,0.2-1.4,0.6-1.9S147.5,166.9,148.2,166.7
			L148.2,166.7z M148.4,164.3c0,0.5,0.1,0.8,0.4,1.1c0.3,0.3,0.6,0.4,1.1,0.4c0.5,0,0.8-0.1,1.1-0.4c0.3-0.3,0.4-0.7,0.4-1.1
			c0-0.5-0.1-0.8-0.4-1.1c-0.3-0.3-0.6-0.4-1.1-0.4c-0.5,0-0.8,0.1-1.1,0.4C148.6,163.4,148.4,163.8,148.4,164.3z"/>
		<path id="path227" class="st1" d="M159.9,167.7c-0.5,0-1,0.2-1.3,0.5c-0.3,0.3-0.5,0.8-0.5,1.3c0,0.6,0.2,1,0.5,1.3
			c0.3,0.3,0.8,0.5,1.3,0.5c0.5,0,1-0.2,1.3-0.5c0.3-0.3,0.5-0.8,0.5-1.3c0-0.6-0.2-1-0.5-1.3C160.8,167.9,160.4,167.7,159.9,167.7z
			 M158.1,166.7c-0.6-0.2-1.1-0.5-1.4-1c-0.3-0.4-0.5-1-0.5-1.6c0-1,0.3-1.8,1-2.4c0.6-0.6,1.5-0.9,2.6-0.9c1.1,0,2,0.3,2.7,0.9
			c0.6,0.6,1,1.4,1,2.4c0,0.6-0.2,1.2-0.5,1.6c-0.3,0.4-0.8,0.8-1.4,1c0.7,0.2,1.2,0.6,1.6,1.1s0.6,1.2,0.6,1.9c0,1.2-0.3,2-1,2.7
			c-0.7,0.6-1.6,0.9-2.9,0.9c-1.2,0-2.2-0.3-2.9-0.9c-0.7-0.6-1-1.5-1-2.7c0-0.7,0.2-1.4,0.6-1.9S157.4,166.9,158.1,166.7
			L158.1,166.7z M158.3,164.3c0,0.5,0.1,0.8,0.4,1.1c0.3,0.3,0.6,0.4,1.1,0.4c0.5,0,0.8-0.1,1.1-0.4c0.3-0.3,0.4-0.7,0.4-1.1
			c0-0.5-0.1-0.8-0.4-1.1c-0.3-0.3-0.6-0.4-1.1-0.4c-0.5,0-0.8,0.1-1.1,0.4C158.5,163.4,158.3,163.8,158.3,164.3z"/>
		<path id="path229" class="st1" d="M169.8,167.7c-0.5,0-1,0.2-1.3,0.5c-0.3,0.3-0.5,0.8-0.5,1.3c0,0.6,0.2,1,0.5,1.3
			c0.3,0.3,0.8,0.5,1.3,0.5c0.5,0,1-0.2,1.3-0.5c0.3-0.3,0.5-0.8,0.5-1.3c0-0.6-0.2-1-0.5-1.3C170.7,167.9,170.3,167.7,169.8,167.7z
			 M168,166.7c-0.6-0.2-1.1-0.5-1.4-1c-0.3-0.4-0.5-1-0.5-1.6c0-1,0.3-1.8,1-2.4c0.6-0.6,1.5-0.9,2.6-0.9c1.1,0,2,0.3,2.7,0.9
			c0.6,0.6,1,1.4,1,2.4c0,0.6-0.2,1.2-0.5,1.6c-0.3,0.4-0.8,0.8-1.4,1c0.7,0.2,1.2,0.6,1.6,1.1s0.6,1.2,0.6,1.9c0,1.2-0.3,2-1,2.7
			s-1.6,0.9-2.9,0.9c-1.2,0-2.2-0.3-2.9-0.9c-0.7-0.6-1-1.5-1-2.7c0-0.7,0.2-1.4,0.6-1.9C166.8,167.3,167.3,166.9,168,166.7z
			 M168.2,164.3c0,0.5,0.1,0.8,0.4,1.1c0.3,0.3,0.6,0.4,1.1,0.4c0.5,0,0.8-0.1,1.1-0.4c0.3-0.3,0.4-0.7,0.4-1.1
			c0-0.5-0.1-0.8-0.4-1.1c-0.3-0.3-0.6-0.4-1.1-0.4c-0.5,0-0.8,0.1-1.1,0.4C168.4,163.4,168.2,163.8,168.2,164.3z"/>
		<path id="path231" class="st1" d="M178.4,170.1h2.5v2.2l-1.6,3.1h-1.7l0.8-3.1L178.4,170.1z"/>
		<path id="path233" class="st1" d="M267.5,164.5h2.7v2.9h-2.7V164.5z M267.5,170.1h2.7v2.9h-2.7V170.1z"/>
		<path id="path235" class="st1" d="M278.7,167.7c-0.5,0-1,0.2-1.3,0.5c-0.3,0.3-0.5,0.8-0.5,1.3c0,0.6,0.2,1,0.5,1.3
			c0.3,0.3,0.8,0.5,1.3,0.5c0.5,0,1-0.2,1.3-0.5c0.3-0.3,0.5-0.8,0.5-1.3c0-0.6-0.2-1-0.5-1.3C279.7,167.9,279.2,167.7,278.7,167.7
			L278.7,167.7z M277,166.7c-0.6-0.2-1.1-0.5-1.4-1c-0.3-0.4-0.5-1-0.5-1.6c0-1,0.3-1.8,1-2.4c0.6-0.6,1.5-0.9,2.6-0.9
			c1.1,0,2,0.3,2.7,0.9c0.6,0.6,1,1.4,1,2.4c0,0.6-0.2,1.2-0.5,1.6c-0.3,0.4-0.8,0.8-1.4,1c0.7,0.2,1.2,0.6,1.6,1.1
			c0.4,0.5,0.6,1.2,0.6,1.9c0,1.2-0.3,2-1,2.7c-0.7,0.6-1.6,0.9-2.9,0.9c-1.2,0-2.2-0.3-2.9-0.9c-0.7-0.6-1-1.5-1-2.7
			c0-0.7,0.2-1.4,0.6-1.9C275.7,167.3,276.3,166.9,277,166.7z M277.2,164.3c0,0.5,0.1,0.8,0.4,1.1c0.3,0.3,0.6,0.4,1.1,0.4
			c0.5,0,0.8-0.1,1.1-0.4c0.3-0.3,0.4-0.7,0.4-1.1c0-0.5-0.1-0.8-0.4-1.1c-0.3-0.3-0.6-0.4-1.1-0.4c-0.5,0-0.8,0.1-1.1,0.4
			C277.3,163.4,277.2,163.8,277.2,164.3z"/>
		<path id="path237" class="st1" d="M288.6,167.7c-0.5,0-1,0.2-1.3,0.5c-0.3,0.3-0.5,0.8-0.5,1.3c0,0.6,0.2,1,0.5,1.3
			c0.3,0.3,0.8,0.5,1.3,0.5c0.5,0,1-0.2,1.3-0.5c0.3-0.3,0.5-0.8,0.5-1.3c0-0.6-0.2-1-0.5-1.3C289.6,167.9,289.2,167.7,288.6,167.7z
			 M286.9,166.7c-0.6-0.2-1.1-0.5-1.4-1c-0.3-0.4-0.5-1-0.5-1.6c0-1,0.3-1.8,1-2.4c0.6-0.6,1.5-0.9,2.6-0.9c1.1,0,2,0.3,2.7,0.9
			c0.6,0.6,1,1.4,1,2.4c0,0.6-0.2,1.2-0.5,1.6c-0.3,0.4-0.8,0.8-1.4,1c0.7,0.2,1.2,0.6,1.6,1.1c0.4,0.5,0.6,1.2,0.6,1.9
			c0,1.2-0.3,2-1,2.7c-0.7,0.6-1.6,0.9-2.9,0.9c-1.2,0-2.2-0.3-2.9-0.9c-0.7-0.6-1-1.5-1-2.7c0-0.7,0.2-1.4,0.6-1.9
			S286.2,166.9,286.9,166.7L286.9,166.7z M287.1,164.3c0,0.5,0.1,0.8,0.4,1.1c0.3,0.3,0.6,0.4,1.1,0.4c0.5,0,0.8-0.1,1.1-0.4
			c0.3-0.3,0.4-0.7,0.4-1.1c0-0.5-0.1-0.8-0.4-1.1c-0.3-0.3-0.6-0.4-1.1-0.4c-0.5,0-0.8,0.1-1.1,0.4
			C287.2,163.4,287.1,163.8,287.1,164.3L287.1,164.3z"/>
		<path id="path239" class="st1" d="M298.5,167.7c-0.5,0-1,0.2-1.3,0.5c-0.3,0.3-0.5,0.8-0.5,1.3c0,0.6,0.2,1,0.5,1.3
			c0.3,0.3,0.8,0.5,1.3,0.5c0.5,0,1-0.2,1.3-0.5c0.3-0.3,0.5-0.8,0.5-1.3c0-0.6-0.2-1-0.5-1.3C299.5,167.9,299.1,167.7,298.5,167.7
			L298.5,167.7z M296.8,166.7c-0.6-0.2-1.1-0.5-1.4-1c-0.3-0.4-0.5-1-0.5-1.6c0-1,0.3-1.8,1-2.4c0.6-0.6,1.5-0.9,2.6-0.9
			c1.1,0,2,0.3,2.7,0.9c0.6,0.6,1,1.4,1,2.4c0,0.6-0.2,1.2-0.5,1.6c-0.3,0.4-0.8,0.8-1.4,1c0.7,0.2,1.2,0.6,1.6,1.1s0.6,1.2,0.6,1.9
			c0,1.2-0.3,2-1,2.7c-0.7,0.6-1.6,0.9-2.9,0.9c-1.2,0-2.2-0.3-2.9-0.9c-0.7-0.6-1-1.5-1-2.7c0-0.7,0.2-1.4,0.6-1.9
			C295.6,167.3,296.1,166.9,296.8,166.7z M297,164.3c0,0.5,0.1,0.8,0.4,1.1c0.3,0.3,0.6,0.4,1.1,0.4c0.5,0,0.8-0.1,1.1-0.4
			c0.3-0.3,0.4-0.7,0.4-1.1c0-0.5-0.1-0.8-0.4-1.1c-0.3-0.3-0.6-0.4-1.1-0.4c-0.5,0-0.8,0.1-1.1,0.4
			C297.1,163.4,297,163.8,297,164.3z"/>
		<path id="path241" class="st1" d="M308.4,167.7c-0.5,0-1,0.2-1.3,0.5c-0.3,0.3-0.5,0.8-0.5,1.3c0,0.6,0.2,1,0.5,1.3
			c0.3,0.3,0.8,0.5,1.3,0.5c0.5,0,1-0.2,1.3-0.5c0.3-0.3,0.5-0.8,0.5-1.3c0-0.6-0.2-1-0.5-1.3C309.4,167.9,309,167.7,308.4,167.7
			L308.4,167.7z M306.7,166.7c-0.6-0.2-1.1-0.5-1.4-1c-0.3-0.4-0.5-1-0.5-1.6c0-1,0.3-1.8,1-2.4c0.6-0.6,1.5-0.9,2.6-0.9
			c1.1,0,2,0.3,2.7,0.9c0.6,0.6,1,1.4,1,2.4c0,0.6-0.2,1.2-0.5,1.6c-0.3,0.4-0.8,0.8-1.4,1c0.7,0.2,1.2,0.6,1.6,1.1s0.6,1.2,0.6,1.9
			c0,1.2-0.3,2-1,2.7s-1.6,0.9-2.9,0.9c-1.2,0-2.2-0.3-2.9-0.9s-1-1.5-1-2.7c0-0.7,0.2-1.4,0.6-1.9
			C305.5,167.3,306,166.9,306.7,166.7L306.7,166.7z M306.9,164.3c0,0.5,0.1,0.8,0.4,1.1c0.3,0.3,0.6,0.4,1.1,0.4
			c0.5,0,0.8-0.1,1.1-0.4c0.3-0.3,0.4-0.7,0.4-1.1c0-0.5-0.1-0.8-0.4-1.1c-0.3-0.3-0.6-0.4-1.1-0.4c-0.5,0-0.8,0.1-1.1,0.4
			C307.1,163.4,306.9,163.8,306.9,164.3z"/>
		<path id="path243" class="st1" d="M317,164.5h2.7v2.9H317V164.5z M317,170.1h2.7v2.9H317V170.1z"/>
		<path id="path245" class="st1" d="M138.6,183.8v7.7h0.6c0.9,0,1.6-0.3,2-0.9c0.4-0.6,0.6-1.6,0.6-3c0-1.4-0.2-2.4-0.6-3
			c-0.4-0.6-1.1-0.9-2-0.9L138.6,183.8z M136.2,181.6h2.5c2,0,3.4,0.5,4.2,1.4c0.9,0.9,1.3,2.5,1.3,4.6c0,2.1-0.4,3.7-1.3,4.6
			c-0.9,0.9-2.3,1.4-4.2,1.4h-2.5V181.6z"/>
		<path id="path247" class="st1" d="M149.9,188.3c-0.5,0-1,0.2-1.3,0.5c-0.3,0.3-0.5,0.8-0.5,1.3c0,0.6,0.2,1,0.5,1.3
			s0.8,0.5,1.3,0.5c0.5,0,1-0.2,1.3-0.5c0.3-0.3,0.5-0.8,0.5-1.3c0-0.6-0.2-1-0.5-1.3C150.9,188.4,150.5,188.3,149.9,188.3z
			 M148.2,187.3c-0.6-0.2-1.1-0.5-1.4-1c-0.3-0.4-0.5-1-0.5-1.6c0-1,0.3-1.8,1-2.4c0.6-0.6,1.5-0.9,2.6-0.9c1.1,0,2,0.3,2.7,0.9
			s1,1.4,1,2.4c0,0.6-0.2,1.2-0.5,1.6c-0.3,0.4-0.8,0.8-1.4,1c0.7,0.2,1.2,0.6,1.6,1.1c0.4,0.5,0.6,1.2,0.6,1.9c0,1.2-0.3,2-1,2.7
			c-0.7,0.6-1.6,0.9-2.9,0.9c-1.2,0-2.2-0.3-2.9-0.9c-0.7-0.6-1-1.5-1-2.7c0-0.7,0.2-1.4,0.6-1.9C147,187.8,147.5,187.5,148.2,187.3
			L148.2,187.3z M148.4,184.8c0,0.5,0.1,0.8,0.4,1.1c0.3,0.3,0.6,0.4,1.1,0.4c0.5,0,0.8-0.1,1.1-0.4c0.3-0.3,0.4-0.7,0.4-1.1
			c0-0.5-0.1-0.8-0.4-1.1c-0.3-0.3-0.6-0.4-1.1-0.4c-0.5,0-0.8,0.1-1.1,0.4C148.6,184,148.4,184.4,148.4,184.8z"/>
		<path id="path249" class="st1" d="M159.9,188.3c-0.5,0-1,0.2-1.3,0.5c-0.3,0.3-0.5,0.8-0.5,1.3c0,0.6,0.2,1,0.5,1.3
			s0.8,0.5,1.3,0.5c0.5,0,1-0.2,1.3-0.5c0.3-0.3,0.5-0.8,0.5-1.3c0-0.6-0.2-1-0.5-1.3C160.8,188.4,160.4,188.3,159.9,188.3z
			 M158.1,187.3c-0.6-0.2-1.1-0.5-1.4-1c-0.3-0.4-0.5-1-0.5-1.6c0-1,0.3-1.8,1-2.4c0.6-0.6,1.5-0.9,2.6-0.9c1.1,0,2,0.3,2.7,0.9
			c0.6,0.6,1,1.4,1,2.4c0,0.6-0.2,1.2-0.5,1.6c-0.3,0.4-0.8,0.8-1.4,1c0.7,0.2,1.2,0.6,1.6,1.1s0.6,1.2,0.6,1.9c0,1.2-0.3,2-1,2.7
			c-0.7,0.6-1.6,0.9-2.9,0.9c-1.2,0-2.2-0.3-2.9-0.9c-0.7-0.6-1-1.5-1-2.7c0-0.7,0.2-1.4,0.6-1.9
			C156.9,187.8,157.4,187.5,158.1,187.3L158.1,187.3z M158.3,184.8c0,0.5,0.1,0.8,0.4,1.1c0.3,0.3,0.6,0.4,1.1,0.4
			c0.5,0,0.8-0.1,1.1-0.4c0.3-0.3,0.4-0.7,0.4-1.1c0-0.5-0.1-0.8-0.4-1.1c-0.3-0.3-0.6-0.4-1.1-0.4c-0.5,0-0.8,0.1-1.1,0.4
			C158.5,184,158.3,184.4,158.3,184.8z"/>
		<path id="path251" class="st1" d="M169.8,188.3c-0.5,0-1,0.2-1.3,0.5c-0.3,0.3-0.5,0.8-0.5,1.3c0,0.6,0.2,1,0.5,1.3
			c0.3,0.3,0.8,0.5,1.3,0.5s1-0.2,1.3-0.5c0.3-0.3,0.5-0.8,0.5-1.3c0-0.6-0.2-1-0.5-1.3C170.7,188.4,170.3,188.3,169.8,188.3z
			 M168,187.3c-0.6-0.2-1.1-0.5-1.4-1c-0.3-0.4-0.5-1-0.5-1.6c0-1,0.3-1.8,1-2.4s1.5-0.9,2.6-0.9c1.1,0,2,0.3,2.7,0.9
			c0.6,0.6,1,1.4,1,2.4c0,0.6-0.2,1.2-0.5,1.6c-0.3,0.4-0.8,0.8-1.4,1c0.7,0.2,1.2,0.6,1.6,1.1s0.6,1.2,0.6,1.9c0,1.2-0.3,2-1,2.7
			c-0.7,0.6-1.6,0.9-2.9,0.9c-1.2,0-2.2-0.3-2.9-0.9c-0.7-0.6-1-1.5-1-2.7c0-0.7,0.2-1.4,0.6-1.9C166.8,187.8,167.3,187.5,168,187.3
			z M168.2,184.8c0,0.5,0.1,0.8,0.4,1.1c0.3,0.3,0.6,0.4,1.1,0.4c0.5,0,0.8-0.1,1.1-0.4c0.3-0.3,0.4-0.7,0.4-1.1
			c0-0.5-0.1-0.8-0.4-1.1c-0.3-0.3-0.6-0.4-1.1-0.4c-0.5,0-0.8,0.1-1.1,0.4C168.4,184,168.2,184.4,168.2,184.8z"/>
		<path id="path253" class="st1" d="M178.4,190.7h2.5v2.2l-1.6,3.1h-1.7l0.8-3.1L178.4,190.7z"/>
		<path id="path255" class="st1" d="M267.5,185.1h2.7v2.9h-2.7V185.1z M267.5,190.7h2.7v2.9h-2.7V190.7z"/>
		<path id="path257" class="st1" d="M278.7,188.3c-0.5,0-1,0.2-1.3,0.5c-0.3,0.3-0.5,0.8-0.5,1.3c0,0.6,0.2,1,0.5,1.3
			c0.3,0.3,0.8,0.5,1.3,0.5c0.5,0,1-0.2,1.3-0.5c0.3-0.3,0.5-0.8,0.5-1.3c0-0.6-0.2-1-0.5-1.3C279.7,188.4,279.2,188.3,278.7,188.3
			L278.7,188.3z M277,187.3c-0.6-0.2-1.1-0.5-1.4-1c-0.3-0.4-0.5-1-0.5-1.6c0-1,0.3-1.8,1-2.4c0.6-0.6,1.5-0.9,2.6-0.9
			c1.1,0,2,0.3,2.7,0.9s1,1.4,1,2.4c0,0.6-0.2,1.2-0.5,1.6c-0.3,0.4-0.8,0.8-1.4,1c0.7,0.2,1.2,0.6,1.6,1.1c0.4,0.5,0.6,1.2,0.6,1.9
			c0,1.2-0.3,2-1,2.7c-0.7,0.6-1.6,0.9-2.9,0.9c-1.2,0-2.2-0.3-2.9-0.9c-0.7-0.6-1-1.5-1-2.7c0-0.7,0.2-1.4,0.6-1.9
			C275.7,187.8,276.3,187.5,277,187.3z M277.2,184.8c0,0.5,0.1,0.8,0.4,1.1c0.3,0.3,0.6,0.4,1.1,0.4c0.5,0,0.8-0.1,1.1-0.4
			c0.3-0.3,0.4-0.7,0.4-1.1c0-0.5-0.1-0.8-0.4-1.1c-0.3-0.3-0.6-0.4-1.1-0.4c-0.5,0-0.8,0.1-1.1,0.4
			C277.3,184,277.2,184.4,277.2,184.8z"/>
		<path id="path259" class="st1" d="M288.6,188.3c-0.5,0-1,0.2-1.3,0.5c-0.3,0.3-0.5,0.8-0.5,1.3c0,0.6,0.2,1,0.5,1.3
			c0.3,0.3,0.8,0.5,1.3,0.5s1-0.2,1.3-0.5c0.3-0.3,0.5-0.8,0.5-1.3c0-0.6-0.2-1-0.5-1.3C289.6,188.4,289.2,188.3,288.6,188.3z
			 M286.9,187.3c-0.6-0.2-1.1-0.5-1.4-1c-0.3-0.4-0.5-1-0.5-1.6c0-1,0.3-1.8,1-2.4c0.6-0.6,1.5-0.9,2.6-0.9c1.1,0,2,0.3,2.7,0.9
			c0.6,0.6,1,1.4,1,2.4c0,0.6-0.2,1.2-0.5,1.6c-0.3,0.4-0.8,0.8-1.4,1c0.7,0.2,1.2,0.6,1.6,1.1c0.4,0.5,0.6,1.2,0.6,1.9
			c0,1.2-0.3,2-1,2.7c-0.7,0.6-1.6,0.9-2.9,0.9c-1.2,0-2.2-0.3-2.9-0.9c-0.7-0.6-1-1.5-1-2.7c0-0.7,0.2-1.4,0.6-1.9
			C285.7,187.8,286.2,187.5,286.9,187.3L286.9,187.3z M287.1,184.8c0,0.5,0.1,0.8,0.4,1.1c0.3,0.3,0.6,0.4,1.1,0.4
			c0.5,0,0.8-0.1,1.1-0.4c0.3-0.3,0.4-0.7,0.4-1.1c0-0.5-0.1-0.8-0.4-1.1c-0.3-0.3-0.6-0.4-1.1-0.4c-0.5,0-0.8,0.1-1.1,0.4
			C287.2,184,287.1,184.4,287.1,184.8L287.1,184.8z"/>
		<path id="path261" class="st1" d="M298.5,188.3c-0.5,0-1,0.2-1.3,0.5c-0.3,0.3-0.5,0.8-0.5,1.3c0,0.6,0.2,1,0.5,1.3
			c0.3,0.3,0.8,0.5,1.3,0.5c0.5,0,1-0.2,1.3-0.5c0.3-0.3,0.5-0.8,0.5-1.3c0-0.6-0.2-1-0.5-1.3C299.5,188.4,299.1,188.3,298.5,188.3
			L298.5,188.3z M296.8,187.3c-0.6-0.2-1.1-0.5-1.4-1c-0.3-0.4-0.5-1-0.5-1.6c0-1,0.3-1.8,1-2.4c0.6-0.6,1.5-0.9,2.6-0.9
			c1.1,0,2,0.3,2.7,0.9s1,1.4,1,2.4c0,0.6-0.2,1.2-0.5,1.6c-0.3,0.4-0.8,0.8-1.4,1c0.7,0.2,1.2,0.6,1.6,1.1s0.6,1.2,0.6,1.9
			c0,1.2-0.3,2-1,2.7c-0.7,0.6-1.6,0.9-2.9,0.9c-1.2,0-2.2-0.3-2.9-0.9c-0.7-0.6-1-1.5-1-2.7c0-0.7,0.2-1.4,0.6-1.9
			C295.6,187.8,296.1,187.5,296.8,187.3z M297,184.8c0,0.5,0.1,0.8,0.4,1.1c0.3,0.3,0.6,0.4,1.1,0.4c0.5,0,0.8-0.1,1.1-0.4
			c0.3-0.3,0.4-0.7,0.4-1.1c0-0.5-0.1-0.8-0.4-1.1c-0.3-0.3-0.6-0.4-1.1-0.4c-0.5,0-0.8,0.1-1.1,0.4C297.1,184,297,184.4,297,184.8z
			"/>
		<path id="path263" class="st1" d="M308.4,188.3c-0.5,0-1,0.2-1.3,0.5c-0.3,0.3-0.5,0.8-0.5,1.3c0,0.6,0.2,1,0.5,1.3
			s0.8,0.5,1.3,0.5c0.5,0,1-0.2,1.3-0.5c0.3-0.3,0.5-0.8,0.5-1.3c0-0.6-0.2-1-0.5-1.3C309.4,188.4,309,188.3,308.4,188.3
			L308.4,188.3z M306.7,187.3c-0.6-0.2-1.1-0.5-1.4-1c-0.3-0.4-0.5-1-0.5-1.6c0-1,0.3-1.8,1-2.4s1.5-0.9,2.6-0.9
			c1.1,0,2,0.3,2.7,0.9s1,1.4,1,2.4c0,0.6-0.2,1.2-0.5,1.6c-0.3,0.4-0.8,0.8-1.4,1c0.7,0.2,1.2,0.6,1.6,1.1s0.6,1.2,0.6,1.9
			c0,1.2-0.3,2-1,2.7c-0.7,0.6-1.6,0.9-2.9,0.9c-1.2,0-2.2-0.3-2.9-0.9c-0.7-0.6-1-1.5-1-2.7c0-0.7,0.2-1.4,0.6-1.9
			C305.5,187.8,306,187.5,306.7,187.3L306.7,187.3z M306.9,184.8c0,0.5,0.1,0.8,0.4,1.1c0.3,0.3,0.6,0.4,1.1,0.4
			c0.5,0,0.8-0.1,1.1-0.4c0.3-0.3,0.4-0.7,0.4-1.1c0-0.5-0.1-0.8-0.4-1.1c-0.3-0.3-0.6-0.4-1.1-0.4c-0.5,0-0.8,0.1-1.1,0.4
			C307.1,184,306.9,184.4,306.9,184.8z"/>
		<path id="path265" class="st1" d="M317,185.1h2.7v2.9H317V185.1z M317,190.7h2.7v2.9H317V190.7z"/>
		<path id="path267" class="st1" d="M140,208.8c-0.5,0-1,0.2-1.3,0.5c-0.3,0.3-0.5,0.8-0.5,1.3c0,0.6,0.2,1,0.5,1.3
			c0.3,0.3,0.8,0.5,1.3,0.5s1-0.2,1.3-0.5c0.3-0.3,0.5-0.8,0.5-1.3c0-0.6-0.2-1-0.5-1.3C141,209,140.6,208.8,140,208.8z
			 M138.3,207.8c-0.6-0.2-1.1-0.5-1.4-1c-0.3-0.4-0.5-1-0.5-1.6c0-1,0.3-1.8,1-2.4c0.6-0.6,1.5-0.9,2.6-0.9c1.1,0,2,0.3,2.7,0.9
			c0.6,0.6,1,1.4,1,2.4c0,0.6-0.2,1.2-0.5,1.6c-0.3,0.4-0.8,0.8-1.4,1c0.7,0.2,1.2,0.6,1.6,1.1c0.4,0.5,0.6,1.2,0.6,1.9
			c0,1.2-0.3,2-1,2.7c-0.7,0.6-1.6,0.9-2.9,0.9c-1.2,0-2.2-0.3-2.9-0.9c-0.7-0.6-1-1.5-1-2.7c0-0.7,0.2-1.4,0.6-1.9
			S137.6,208,138.3,207.8L138.3,207.8z M138.5,205.4c0,0.5,0.1,0.8,0.4,1.1c0.3,0.3,0.6,0.4,1.1,0.4c0.5,0,0.8-0.1,1.1-0.4
			c0.3-0.3,0.4-0.7,0.4-1.1c0-0.5-0.1-0.8-0.4-1.1c-0.3-0.3-0.6-0.4-1.1-0.4c-0.5,0-0.8,0.1-1.1,0.4
			C138.7,204.6,138.5,204.9,138.5,205.4z"/>
		<path id="path269" class="st1" d="M149.9,208.8c-0.5,0-1,0.2-1.3,0.5c-0.3,0.3-0.5,0.8-0.5,1.3c0,0.6,0.2,1,0.5,1.3
			s0.8,0.5,1.3,0.5c0.5,0,1-0.2,1.3-0.5c0.3-0.3,0.5-0.8,0.5-1.3c0-0.6-0.2-1-0.5-1.3C150.9,209,150.5,208.8,149.9,208.8z
			 M148.2,207.8c-0.6-0.2-1.1-0.5-1.4-1c-0.3-0.4-0.5-1-0.5-1.6c0-1,0.3-1.8,1-2.4c0.6-0.6,1.5-0.9,2.6-0.9c1.1,0,2,0.3,2.7,0.9
			c0.6,0.6,1,1.4,1,2.4c0,0.6-0.2,1.2-0.5,1.6c-0.3,0.4-0.8,0.8-1.4,1c0.7,0.2,1.2,0.6,1.6,1.1c0.4,0.5,0.6,1.2,0.6,1.9
			c0,1.2-0.3,2-1,2.7c-0.7,0.6-1.6,0.9-2.9,0.9c-1.2,0-2.2-0.3-2.9-0.9c-0.7-0.6-1-1.5-1-2.7c0-0.7,0.2-1.4,0.6-1.9
			S147.5,208,148.2,207.8L148.2,207.8z M148.4,205.4c0,0.5,0.1,0.8,0.4,1.1c0.3,0.3,0.6,0.4,1.1,0.4c0.5,0,0.8-0.1,1.1-0.4
			c0.3-0.3,0.4-0.7,0.4-1.1c0-0.5-0.1-0.8-0.4-1.1c-0.3-0.3-0.6-0.4-1.1-0.4c-0.5,0-0.8,0.1-1.1,0.4
			C148.6,204.6,148.4,204.9,148.4,205.4z"/>
		<path id="path271" class="st1" d="M159.9,208.8c-0.5,0-1,0.2-1.3,0.5c-0.3,0.3-0.5,0.8-0.5,1.3c0,0.6,0.2,1,0.5,1.3
			s0.8,0.5,1.3,0.5c0.5,0,1-0.2,1.3-0.5c0.3-0.3,0.5-0.8,0.5-1.3c0-0.6-0.2-1-0.5-1.3C160.8,209,160.4,208.8,159.9,208.8z
			 M158.1,207.8c-0.6-0.2-1.1-0.5-1.4-1c-0.3-0.4-0.5-1-0.5-1.6c0-1,0.3-1.8,1-2.4c0.6-0.6,1.5-0.9,2.6-0.9c1.1,0,2,0.3,2.7,0.9
			c0.6,0.6,1,1.4,1,2.4c0,0.6-0.2,1.2-0.5,1.6c-0.3,0.4-0.8,0.8-1.4,1c0.7,0.2,1.2,0.6,1.6,1.1c0.4,0.5,0.6,1.2,0.6,1.9
			c0,1.2-0.3,2-1,2.7c-0.7,0.6-1.6,0.9-2.9,0.9c-1.2,0-2.2-0.3-2.9-0.9c-0.7-0.6-1-1.5-1-2.7c0-0.7,0.2-1.4,0.6-1.9
			S157.4,208,158.1,207.8L158.1,207.8z M158.3,205.4c0,0.5,0.1,0.8,0.4,1.1c0.3,0.3,0.6,0.4,1.1,0.4c0.5,0,0.8-0.1,1.1-0.4
			c0.3-0.3,0.4-0.7,0.4-1.1c0-0.5-0.1-0.8-0.4-1.1c-0.3-0.3-0.6-0.4-1.1-0.4c-0.5,0-0.8,0.1-1.1,0.4
			C158.5,204.6,158.3,204.9,158.3,205.4z"/>
		<path id="path273" class="st1" d="M164.8,202.2h2.1l0.9,8.8l1-5.7h2l1.2,5.7l0.7-8.8h2.1l-1.4,12h-2.2l-1.4-6.3l-1.3,6.3h-2.2
			L164.8,202.2z"/>
		<path id="path275" class="st1" d="M178.4,211.2h2.5v2.2l-1.6,3.1h-1.7l0.8-3.1L178.4,211.2z"/>
		<path id="path277" class="st1" d="M267.5,205.7h2.7v2.9h-2.7V205.7z M267.5,211.2h2.7v2.9h-2.7V211.2z"/>
		<path id="path279" class="st1" d="M278.7,208.8c-0.5,0-1,0.2-1.3,0.5c-0.3,0.3-0.5,0.8-0.5,1.3c0,0.6,0.2,1,0.5,1.3
			c0.3,0.3,0.8,0.5,1.3,0.5c0.5,0,1-0.2,1.3-0.5c0.3-0.3,0.5-0.8,0.5-1.3c0-0.6-0.2-1-0.5-1.3C279.7,209,279.2,208.8,278.7,208.8
			L278.7,208.8z M277,207.8c-0.6-0.2-1.1-0.5-1.4-1c-0.3-0.4-0.5-1-0.5-1.6c0-1,0.3-1.8,1-2.4c0.6-0.6,1.5-0.9,2.6-0.9
			c1.1,0,2,0.3,2.7,0.9c0.6,0.6,1,1.4,1,2.4c0,0.6-0.2,1.2-0.5,1.6c-0.3,0.4-0.8,0.8-1.4,1c0.7,0.2,1.2,0.6,1.6,1.1
			c0.4,0.5,0.6,1.2,0.6,1.9c0,1.2-0.3,2-1,2.7c-0.7,0.6-1.6,0.9-2.9,0.9c-1.2,0-2.2-0.3-2.9-0.9c-0.7-0.6-1-1.5-1-2.7
			c0-0.7,0.2-1.4,0.6-1.9C275.7,208.4,276.3,208,277,207.8z M277.2,205.4c0,0.5,0.1,0.8,0.4,1.1c0.3,0.3,0.6,0.4,1.1,0.4
			c0.5,0,0.8-0.1,1.1-0.4c0.3-0.3,0.4-0.7,0.4-1.1c0-0.5-0.1-0.8-0.4-1.1c-0.3-0.3-0.6-0.4-1.1-0.4c-0.5,0-0.8,0.1-1.1,0.4
			C277.3,204.6,277.2,204.9,277.2,205.4z"/>
		<path id="path281" class="st1" d="M288.6,208.8c-0.5,0-1,0.2-1.3,0.5c-0.3,0.3-0.5,0.8-0.5,1.3c0,0.6,0.2,1,0.5,1.3
			c0.3,0.3,0.8,0.5,1.3,0.5s1-0.2,1.3-0.5c0.3-0.3,0.5-0.8,0.5-1.3c0-0.6-0.2-1-0.5-1.3C289.6,209,289.2,208.8,288.6,208.8z
			 M286.9,207.8c-0.6-0.2-1.1-0.5-1.4-1c-0.3-0.4-0.5-1-0.5-1.6c0-1,0.3-1.8,1-2.4c0.6-0.6,1.5-0.9,2.6-0.9c1.1,0,2,0.3,2.7,0.9
			c0.6,0.6,1,1.4,1,2.4c0,0.6-0.2,1.2-0.5,1.6c-0.3,0.4-0.8,0.8-1.4,1c0.7,0.2,1.2,0.6,1.6,1.1c0.4,0.5,0.6,1.2,0.6,1.9
			c0,1.2-0.3,2-1,2.7c-0.7,0.6-1.6,0.9-2.9,0.9c-1.2,0-2.2-0.3-2.9-0.9c-0.7-0.6-1-1.5-1-2.7c0-0.7,0.2-1.4,0.6-1.9
			S286.2,208,286.9,207.8L286.9,207.8z M287.1,205.4c0,0.5,0.1,0.8,0.4,1.1c0.3,0.3,0.6,0.4,1.1,0.4c0.5,0,0.8-0.1,1.1-0.4
			c0.3-0.3,0.4-0.7,0.4-1.1c0-0.5-0.1-0.8-0.4-1.1c-0.3-0.3-0.6-0.4-1.1-0.4c-0.5,0-0.8,0.1-1.1,0.4
			C287.2,204.6,287.1,204.9,287.1,205.4L287.1,205.4z"/>
		<path id="path283" class="st1" d="M298.5,208.8c-0.5,0-1,0.2-1.3,0.5c-0.3,0.3-0.5,0.8-0.5,1.3c0,0.6,0.2,1,0.5,1.3
			c0.3,0.3,0.8,0.5,1.3,0.5c0.5,0,1-0.2,1.3-0.5c0.3-0.3,0.5-0.8,0.5-1.3c0-0.6-0.2-1-0.5-1.3C299.5,209,299.1,208.8,298.5,208.8
			L298.5,208.8z M296.8,207.8c-0.6-0.2-1.1-0.5-1.4-1c-0.3-0.4-0.5-1-0.5-1.6c0-1,0.3-1.8,1-2.4c0.6-0.6,1.5-0.9,2.6-0.9
			c1.1,0,2,0.3,2.7,0.9c0.6,0.6,1,1.4,1,2.4c0,0.6-0.2,1.2-0.5,1.6c-0.3,0.4-0.8,0.8-1.4,1c0.7,0.2,1.2,0.6,1.6,1.1
			c0.4,0.5,0.6,1.2,0.6,1.9c0,1.2-0.3,2-1,2.7c-0.7,0.6-1.6,0.9-2.9,0.9c-1.2,0-2.2-0.3-2.9-0.9c-0.7-0.6-1-1.5-1-2.7
			c0-0.7,0.2-1.4,0.6-1.9C295.6,208.4,296.1,208,296.8,207.8z M297,205.4c0,0.5,0.1,0.8,0.4,1.1c0.3,0.3,0.6,0.4,1.1,0.4
			c0.5,0,0.8-0.1,1.1-0.4c0.3-0.3,0.4-0.7,0.4-1.1c0-0.5-0.1-0.8-0.4-1.1c-0.3-0.3-0.6-0.4-1.1-0.4c-0.5,0-0.8,0.1-1.1,0.4
			C297.1,204.6,297,204.9,297,205.4z"/>
		<path id="path285" class="st1" d="M308.4,208.8c-0.5,0-1,0.2-1.3,0.5c-0.3,0.3-0.5,0.8-0.5,1.3c0,0.6,0.2,1,0.5,1.3
			s0.8,0.5,1.3,0.5c0.5,0,1-0.2,1.3-0.5c0.3-0.3,0.5-0.8,0.5-1.3c0-0.6-0.2-1-0.5-1.3C309.4,209,309,208.8,308.4,208.8L308.4,208.8z
			 M306.7,207.8c-0.6-0.2-1.1-0.5-1.4-1c-0.3-0.4-0.5-1-0.5-1.6c0-1,0.3-1.8,1-2.4c0.6-0.6,1.5-0.9,2.6-0.9c1.1,0,2,0.3,2.7,0.9
			c0.6,0.6,1,1.4,1,2.4c0,0.6-0.2,1.2-0.5,1.6c-0.3,0.4-0.8,0.8-1.4,1c0.7,0.2,1.2,0.6,1.6,1.1c0.4,0.5,0.6,1.2,0.6,1.9
			c0,1.2-0.3,2-1,2.7c-0.7,0.6-1.6,0.9-2.9,0.9c-1.2,0-2.2-0.3-2.9-0.9c-0.7-0.6-1-1.5-1-2.7c0-0.7,0.2-1.4,0.6-1.9
			C305.5,208.4,306,208,306.7,207.8L306.7,207.8z M306.9,205.4c0,0.5,0.1,0.8,0.4,1.1c0.3,0.3,0.6,0.4,1.1,0.4
			c0.5,0,0.8-0.1,1.1-0.4c0.3-0.3,0.4-0.7,0.4-1.1c0-0.5-0.1-0.8-0.4-1.1c-0.3-0.3-0.6-0.4-1.1-0.4c-0.5,0-0.8,0.1-1.1,0.4
			C307.1,204.6,306.9,204.9,306.9,205.4z"/>
		<path id="path287" class="st1" d="M317,205.7h2.7v2.9H317V205.7z M317,211.2h2.7v2.9H317V211.2z"/>
		<path id="path289" class="st1" d="M135.1,222.8h2.1l0.9,8.8l1-5.7h2l1.2,5.7l0.7-8.8h2.1l-1.4,12h-2.2l-1.4-6.3l-1.3,6.3h-2.2
			L135.1,222.8z"/>
		<path id="path291" class="st1" d="M149.9,229.4c-0.5,0-1,0.2-1.3,0.5c-0.3,0.3-0.5,0.8-0.5,1.3c0,0.6,0.2,1,0.5,1.3
			s0.8,0.5,1.3,0.5c0.5,0,1-0.2,1.3-0.5c0.3-0.3,0.5-0.8,0.5-1.3c0-0.6-0.2-1-0.5-1.3C150.9,229.6,150.5,229.4,149.9,229.4z
			 M148.2,228.4c-0.6-0.2-1.1-0.5-1.4-1c-0.3-0.4-0.5-1-0.5-1.6c0-1,0.3-1.8,1-2.4c0.6-0.6,1.5-0.9,2.6-0.9c1.1,0,2,0.3,2.7,0.9
			c0.6,0.6,1,1.4,1,2.4c0,0.6-0.2,1.2-0.5,1.6c-0.3,0.4-0.8,0.8-1.4,1c0.7,0.2,1.2,0.6,1.6,1.1c0.4,0.5,0.6,1.2,0.6,1.9
			c0,1.2-0.3,2-1,2.7c-0.7,0.6-1.6,0.9-2.9,0.9c-1.2,0-2.2-0.3-2.9-0.9c-0.7-0.6-1-1.5-1-2.7c0-0.7,0.2-1.4,0.6-1.9
			S147.5,228.6,148.2,228.4L148.2,228.4z M148.4,226c0,0.5,0.1,0.8,0.4,1.1c0.3,0.3,0.6,0.4,1.1,0.4c0.5,0,0.8-0.1,1.1-0.4
			c0.3-0.3,0.4-0.7,0.4-1.1c0-0.5-0.1-0.8-0.4-1.1c-0.3-0.3-0.6-0.4-1.1-0.4c-0.5,0-0.8,0.1-1.1,0.4
			C148.6,225.1,148.4,225.5,148.4,226z"/>
		<path id="path293" class="st1" d="M159.9,229.4c-0.5,0-1,0.2-1.3,0.5c-0.3,0.3-0.5,0.8-0.5,1.3c0,0.6,0.2,1,0.5,1.3
			s0.8,0.5,1.3,0.5c0.5,0,1-0.2,1.3-0.5c0.3-0.3,0.5-0.8,0.5-1.3c0-0.6-0.2-1-0.5-1.3C160.8,229.6,160.4,229.4,159.9,229.4z
			 M158.1,228.4c-0.6-0.2-1.1-0.5-1.4-1c-0.3-0.4-0.5-1-0.5-1.6c0-1,0.3-1.8,1-2.4c0.6-0.6,1.5-0.9,2.6-0.9c1.1,0,2,0.3,2.7,0.9
			c0.6,0.6,1,1.4,1,2.4c0,0.6-0.2,1.2-0.5,1.6c-0.3,0.4-0.8,0.8-1.4,1c0.7,0.2,1.2,0.6,1.6,1.1c0.4,0.5,0.6,1.2,0.6,1.9
			c0,1.2-0.3,2-1,2.7c-0.7,0.6-1.6,0.9-2.9,0.9c-1.2,0-2.2-0.3-2.9-0.9c-0.7-0.6-1-1.5-1-2.7c0-0.7,0.2-1.4,0.6-1.9
			S157.4,228.6,158.1,228.4L158.1,228.4z M158.3,226c0,0.5,0.1,0.8,0.4,1.1c0.3,0.3,0.6,0.4,1.1,0.4c0.5,0,0.8-0.1,1.1-0.4
			c0.3-0.3,0.4-0.7,0.4-1.1c0-0.5-0.1-0.8-0.4-1.1c-0.3-0.3-0.6-0.4-1.1-0.4c-0.5,0-0.8,0.1-1.1,0.4
			C158.5,225.1,158.3,225.5,158.3,226z"/>
		<path id="path295" class="st1" d="M164.8,222.8h2.1l0.9,8.8l1-5.7h2l1.2,5.7l0.7-8.8h2.1l-1.4,12h-2.2l-1.4-6.3l-1.3,6.3h-2.2
			L164.8,222.8z"/>
		<path id="path297" class="st1" d="M178.4,231.8h2.5v2.2l-1.6,3.1h-1.7l0.8-3.1L178.4,231.8z"/>
		<path id="path299" class="st1" d="M267.5,226.2h2.7v2.9h-2.7V226.2z M267.5,231.8h2.7v2.9h-2.7V231.8z"/>
		<path id="path301" class="st1" d="M278.7,229.4c-0.5,0-1,0.2-1.3,0.5c-0.3,0.3-0.5,0.8-0.5,1.3c0,0.6,0.2,1,0.5,1.3
			c0.3,0.3,0.8,0.5,1.3,0.5c0.5,0,1-0.2,1.3-0.5c0.3-0.3,0.5-0.8,0.5-1.3c0-0.6-0.2-1-0.5-1.3C279.7,229.6,279.2,229.4,278.7,229.4
			L278.7,229.4z M277,228.4c-0.6-0.2-1.1-0.5-1.4-1c-0.3-0.4-0.5-1-0.5-1.6c0-1,0.3-1.8,1-2.4c0.6-0.6,1.5-0.9,2.6-0.9
			c1.1,0,2,0.3,2.7,0.9c0.6,0.6,1,1.4,1,2.4c0,0.6-0.2,1.2-0.5,1.6c-0.3,0.4-0.8,0.8-1.4,1c0.7,0.2,1.2,0.6,1.6,1.1
			c0.4,0.5,0.6,1.2,0.6,1.9c0,1.2-0.3,2-1,2.7c-0.7,0.6-1.6,0.9-2.9,0.9c-1.2,0-2.2-0.3-2.9-0.9c-0.7-0.6-1-1.5-1-2.7
			c0-0.7,0.2-1.4,0.6-1.9C275.7,229,276.3,228.6,277,228.4z M277.2,226c0,0.5,0.1,0.8,0.4,1.1c0.3,0.3,0.6,0.4,1.1,0.4
			c0.5,0,0.8-0.1,1.1-0.4c0.3-0.3,0.4-0.7,0.4-1.1c0-0.5-0.1-0.8-0.4-1.1c-0.3-0.3-0.6-0.4-1.1-0.4c-0.5,0-0.8,0.1-1.1,0.4
			C277.3,225.1,277.2,225.5,277.2,226z"/>
		<path id="path303" class="st1" d="M288.6,229.4c-0.5,0-1,0.2-1.3,0.5c-0.3,0.3-0.5,0.8-0.5,1.3c0,0.6,0.2,1,0.5,1.3
			c0.3,0.3,0.8,0.5,1.3,0.5s1-0.2,1.3-0.5c0.3-0.3,0.5-0.8,0.5-1.3c0-0.6-0.2-1-0.5-1.3C289.6,229.6,289.2,229.4,288.6,229.4z
			 M286.9,228.4c-0.6-0.2-1.1-0.5-1.4-1c-0.3-0.4-0.5-1-0.5-1.6c0-1,0.3-1.8,1-2.4c0.6-0.6,1.5-0.9,2.6-0.9c1.1,0,2,0.3,2.7,0.9
			c0.6,0.6,1,1.4,1,2.4c0,0.6-0.2,1.2-0.5,1.6c-0.3,0.4-0.8,0.8-1.4,1c0.7,0.2,1.2,0.6,1.6,1.1c0.4,0.5,0.6,1.2,0.6,1.9
			c0,1.2-0.3,2-1,2.7c-0.7,0.6-1.6,0.9-2.9,0.9c-1.2,0-2.2-0.3-2.9-0.9c-0.7-0.6-1-1.5-1-2.7c0-0.7,0.2-1.4,0.6-1.9
			S286.2,228.6,286.9,228.4L286.9,228.4z M287.1,226c0,0.5,0.1,0.8,0.4,1.1c0.3,0.3,0.6,0.4,1.1,0.4c0.5,0,0.8-0.1,1.1-0.4
			c0.3-0.3,0.4-0.7,0.4-1.1c0-0.5-0.1-0.8-0.4-1.1c-0.3-0.3-0.6-0.4-1.1-0.4c-0.5,0-0.8,0.1-1.1,0.4
			C287.2,225.1,287.1,225.5,287.1,226L287.1,226z"/>
		<path id="path305" class="st1" d="M298.5,229.4c-0.5,0-1,0.2-1.3,0.5c-0.3,0.3-0.5,0.8-0.5,1.3c0,0.6,0.2,1,0.5,1.3
			c0.3,0.3,0.8,0.5,1.3,0.5c0.5,0,1-0.2,1.3-0.5c0.3-0.3,0.5-0.8,0.5-1.3c0-0.6-0.2-1-0.5-1.3C299.5,229.6,299.1,229.4,298.5,229.4
			L298.5,229.4z M296.8,228.4c-0.6-0.2-1.1-0.5-1.4-1c-0.3-0.4-0.5-1-0.5-1.6c0-1,0.3-1.8,1-2.4c0.6-0.6,1.5-0.9,2.6-0.9
			c1.1,0,2,0.3,2.7,0.9c0.6,0.6,1,1.4,1,2.4c0,0.6-0.2,1.2-0.5,1.6c-0.3,0.4-0.8,0.8-1.4,1c0.7,0.2,1.2,0.6,1.6,1.1
			c0.4,0.5,0.6,1.2,0.6,1.9c0,1.2-0.3,2-1,2.7c-0.7,0.6-1.6,0.9-2.9,0.9c-1.2,0-2.2-0.3-2.9-0.9c-0.7-0.6-1-1.5-1-2.7
			c0-0.7,0.2-1.4,0.6-1.9C295.6,229,296.1,228.6,296.8,228.4z M297,226c0,0.5,0.1,0.8,0.4,1.1c0.3,0.3,0.6,0.4,1.1,0.4
			c0.5,0,0.8-0.1,1.1-0.4c0.3-0.3,0.4-0.7,0.4-1.1c0-0.5-0.1-0.8-0.4-1.1c-0.3-0.3-0.6-0.4-1.1-0.4c-0.5,0-0.8,0.1-1.1,0.4
			C297.1,225.1,297,225.5,297,226z"/>
		<path id="path307" class="st1" d="M308.4,229.4c-0.5,0-1,0.2-1.3,0.5c-0.3,0.3-0.5,0.8-0.5,1.3c0,0.6,0.2,1,0.5,1.3
			s0.8,0.5,1.3,0.5c0.5,0,1-0.2,1.3-0.5c0.3-0.3,0.5-0.8,0.5-1.3c0-0.6-0.2-1-0.5-1.3C309.4,229.6,309,229.4,308.4,229.4
			L308.4,229.4z M306.7,228.4c-0.6-0.2-1.1-0.5-1.4-1c-0.3-0.4-0.5-1-0.5-1.6c0-1,0.3-1.8,1-2.4c0.6-0.6,1.5-0.9,2.6-0.9
			c1.1,0,2,0.3,2.7,0.9c0.6,0.6,1,1.4,1,2.4c0,0.6-0.2,1.2-0.5,1.6c-0.3,0.4-0.8,0.8-1.4,1c0.7,0.2,1.2,0.6,1.6,1.1
			c0.4,0.5,0.6,1.2,0.6,1.9c0,1.2-0.3,2-1,2.7c-0.7,0.6-1.6,0.9-2.9,0.9c-1.2,0-2.2-0.3-2.9-0.9c-0.7-0.6-1-1.5-1-2.7
			c0-0.7,0.2-1.4,0.6-1.9C305.5,229,306,228.6,306.7,228.4L306.7,228.4z M306.9,226c0,0.5,0.1,0.8,0.4,1.1c0.3,0.3,0.6,0.4,1.1,0.4
			c0.5,0,0.8-0.1,1.1-0.4c0.3-0.3,0.4-0.7,0.4-1.1c0-0.5-0.1-0.8-0.4-1.1c-0.3-0.3-0.6-0.4-1.1-0.4c-0.5,0-0.8,0.1-1.1,0.4
			C307.1,225.1,306.9,225.5,306.9,226z"/>
		<path id="path309" class="st1" d="M317,226.2h2.7v2.9H317V226.2z M317,231.8h2.7v2.9H317V231.8z"/>
		<path id="path311" class="st1" d="M135.1,243.3h2.1l0.9,8.8l1-5.7h2l1.2,5.7l0.7-8.8h2.1l-1.4,12h-2.2L140,249l-1.3,6.3h-2.2
			L135.1,243.3z"/>
		<path id="path313" class="st1" d="M149.9,250c-0.5,0-1,0.2-1.3,0.5c-0.3,0.3-0.5,0.8-0.5,1.3c0,0.6,0.2,1,0.5,1.3
			c0.3,0.3,0.8,0.5,1.3,0.5c0.5,0,1-0.2,1.3-0.5c0.3-0.3,0.5-0.8,0.5-1.3c0-0.6-0.2-1-0.5-1.3C150.9,250.1,150.5,250,149.9,250z
			 M148.2,249c-0.6-0.2-1.1-0.5-1.4-1c-0.3-0.4-0.5-1-0.5-1.6c0-1,0.3-1.8,1-2.4c0.6-0.6,1.5-0.9,2.6-0.9c1.1,0,2,0.3,2.7,0.9
			s1,1.4,1,2.4c0,0.6-0.2,1.2-0.5,1.6c-0.3,0.4-0.8,0.8-1.4,1c0.7,0.2,1.2,0.6,1.6,1.1c0.4,0.5,0.6,1.2,0.6,1.9c0,1.2-0.3,2-1,2.7
			c-0.7,0.6-1.6,0.9-2.9,0.9c-1.2,0-2.2-0.3-2.9-0.9c-0.7-0.6-1-1.5-1-2.7c0-0.7,0.2-1.4,0.6-1.9C147,249.5,147.5,249.2,148.2,249
			L148.2,249z M148.4,246.5c0,0.5,0.1,0.8,0.4,1.1c0.3,0.3,0.6,0.4,1.1,0.4c0.5,0,0.8-0.1,1.1-0.4c0.3-0.3,0.4-0.7,0.4-1.1
			c0-0.5-0.1-0.8-0.4-1.1c-0.3-0.3-0.6-0.4-1.1-0.4c-0.5,0-0.8,0.1-1.1,0.4C148.6,245.7,148.4,246.1,148.4,246.5z"/>
		<path id="path315" class="st1" d="M159.9,250c-0.5,0-1,0.2-1.3,0.5c-0.3,0.3-0.5,0.8-0.5,1.3c0,0.6,0.2,1,0.5,1.3
			c0.3,0.3,0.8,0.5,1.3,0.5c0.5,0,1-0.2,1.3-0.5c0.3-0.3,0.5-0.8,0.5-1.3c0-0.6-0.2-1-0.5-1.3C160.8,250.1,160.4,250,159.9,250z
			 M158.1,249c-0.6-0.2-1.1-0.5-1.4-1c-0.3-0.4-0.5-1-0.5-1.6c0-1,0.3-1.8,1-2.4c0.6-0.6,1.5-0.9,2.6-0.9c1.1,0,2,0.3,2.7,0.9
			c0.6,0.6,1,1.4,1,2.4c0,0.6-0.2,1.2-0.5,1.6c-0.3,0.4-0.8,0.8-1.4,1c0.7,0.2,1.2,0.6,1.6,1.1s0.6,1.2,0.6,1.9c0,1.2-0.3,2-1,2.7
			c-0.7,0.6-1.6,0.9-2.9,0.9c-1.2,0-2.2-0.3-2.9-0.9c-0.7-0.6-1-1.5-1-2.7c0-0.7,0.2-1.4,0.6-1.9C156.9,249.5,157.4,249.2,158.1,249
			L158.1,249z M158.3,246.5c0,0.5,0.1,0.8,0.4,1.1c0.3,0.3,0.6,0.4,1.1,0.4c0.5,0,0.8-0.1,1.1-0.4c0.3-0.3,0.4-0.7,0.4-1.1
			c0-0.5-0.1-0.8-0.4-1.1c-0.3-0.3-0.6-0.4-1.1-0.4c-0.5,0-0.8,0.1-1.1,0.4C158.5,245.7,158.3,246.1,158.3,246.5z"/>
		<path id="path317" class="st1" d="M164.8,243.3h2.1l0.9,8.8l1-5.7h2l1.2,5.7l0.7-8.8h2.1l-1.4,12h-2.2l-1.4-6.3l-1.3,6.3h-2.2
			L164.8,243.3z"/>
		<path id="path319" class="st1" d="M178.3,246.8h2.7v2.9h-2.7V246.8z M178.3,252.4h2.7v2.9h-2.7V252.4z"/>
		<path id="path321" class="st1" d="M267.5,246.8h2.7v2.9h-2.7V246.8z M267.5,252.4h2.7v2.9h-2.7V252.4z"/>
		<path id="path323" class="st1" d="M278.7,250c-0.5,0-1,0.2-1.3,0.5c-0.3,0.3-0.5,0.8-0.5,1.3c0,0.6,0.2,1,0.5,1.3
			c0.3,0.3,0.8,0.5,1.3,0.5c0.5,0,1-0.2,1.3-0.5c0.3-0.3,0.5-0.8,0.5-1.3c0-0.6-0.2-1-0.5-1.3C279.7,250.1,279.2,250,278.7,250
			L278.7,250z M277,249c-0.6-0.2-1.1-0.5-1.4-1c-0.3-0.4-0.5-1-0.5-1.6c0-1,0.3-1.8,1-2.4c0.6-0.6,1.5-0.9,2.6-0.9
			c1.1,0,2,0.3,2.7,0.9s1,1.4,1,2.4c0,0.6-0.2,1.2-0.5,1.6c-0.3,0.4-0.8,0.8-1.4,1c0.7,0.2,1.2,0.6,1.6,1.1c0.4,0.5,0.6,1.2,0.6,1.9
			c0,1.2-0.3,2-1,2.7c-0.7,0.6-1.6,0.9-2.9,0.9c-1.2,0-2.2-0.3-2.9-0.9c-0.7-0.6-1-1.5-1-2.7c0-0.7,0.2-1.4,0.6-1.9
			C275.7,249.5,276.3,249.2,277,249z M277.2,246.5c0,0.5,0.1,0.8,0.4,1.1c0.3,0.3,0.6,0.4,1.1,0.4c0.5,0,0.8-0.1,1.1-0.4
			c0.3-0.3,0.4-0.7,0.4-1.1c0-0.5-0.1-0.8-0.4-1.1c-0.3-0.3-0.6-0.4-1.1-0.4c-0.5,0-0.8,0.1-1.1,0.4
			C277.3,245.7,277.2,246.1,277.2,246.5z"/>
		<path id="path325" class="st1" d="M288.6,250c-0.5,0-1,0.2-1.3,0.5c-0.3,0.3-0.5,0.8-0.5,1.3c0,0.6,0.2,1,0.5,1.3
			c0.3,0.3,0.8,0.5,1.3,0.5s1-0.2,1.3-0.5c0.3-0.3,0.5-0.8,0.5-1.3c0-0.6-0.2-1-0.5-1.3C289.6,250.1,289.2,250,288.6,250z
			 M286.9,249c-0.6-0.2-1.1-0.5-1.4-1c-0.3-0.4-0.5-1-0.5-1.6c0-1,0.3-1.8,1-2.4c0.6-0.6,1.5-0.9,2.6-0.9c1.1,0,2,0.3,2.7,0.9
			c0.6,0.6,1,1.4,1,2.4c0,0.6-0.2,1.2-0.5,1.6c-0.3,0.4-0.8,0.8-1.4,1c0.7,0.2,1.2,0.6,1.6,1.1c0.4,0.5,0.6,1.2,0.6,1.9
			c0,1.2-0.3,2-1,2.7c-0.7,0.6-1.6,0.9-2.9,0.9c-1.2,0-2.2-0.3-2.9-0.9c-0.7-0.6-1-1.5-1-2.7c0-0.7,0.2-1.4,0.6-1.9
			C285.7,249.5,286.2,249.2,286.9,249L286.9,249z M287.1,246.5c0,0.5,0.1,0.8,0.4,1.1c0.3,0.3,0.6,0.4,1.1,0.4
			c0.5,0,0.8-0.1,1.1-0.4c0.3-0.3,0.4-0.7,0.4-1.1c0-0.5-0.1-0.8-0.4-1.1c-0.3-0.3-0.6-0.4-1.1-0.4c-0.5,0-0.8,0.1-1.1,0.4
			C287.2,245.7,287.1,246.1,287.1,246.5L287.1,246.5z"/>
		<path id="path327" class="st1" d="M298.5,250c-0.5,0-1,0.2-1.3,0.5c-0.3,0.3-0.5,0.8-0.5,1.3c0,0.6,0.2,1,0.5,1.3
			c0.3,0.3,0.8,0.5,1.3,0.5c0.5,0,1-0.2,1.3-0.5c0.3-0.3,0.5-0.8,0.5-1.3c0-0.6-0.2-1-0.5-1.3C299.5,250.1,299.1,250,298.5,250
			L298.5,250z M296.8,249c-0.6-0.2-1.1-0.5-1.4-1c-0.3-0.4-0.5-1-0.5-1.6c0-1,0.3-1.8,1-2.4c0.6-0.6,1.5-0.9,2.6-0.9
			c1.1,0,2,0.3,2.7,0.9s1,1.4,1,2.4c0,0.6-0.2,1.2-0.5,1.6c-0.3,0.4-0.8,0.8-1.4,1c0.7,0.2,1.2,0.6,1.6,1.1s0.6,1.2,0.6,1.9
			c0,1.2-0.3,2-1,2.7c-0.7,0.6-1.6,0.9-2.9,0.9c-1.2,0-2.2-0.3-2.9-0.9c-0.7-0.6-1-1.5-1-2.7c0-0.7,0.2-1.4,0.6-1.9
			C295.6,249.5,296.1,249.2,296.8,249z M297,246.5c0,0.5,0.1,0.8,0.4,1.1c0.3,0.3,0.6,0.4,1.1,0.4c0.5,0,0.8-0.1,1.1-0.4
			c0.3-0.3,0.4-0.7,0.4-1.1c0-0.5-0.1-0.8-0.4-1.1c-0.3-0.3-0.6-0.4-1.1-0.4c-0.5,0-0.8,0.1-1.1,0.4
			C297.1,245.7,297,246.1,297,246.5z"/>
		<path id="path329" class="st1" d="M308.4,250c-0.5,0-1,0.2-1.3,0.5c-0.3,0.3-0.5,0.8-0.5,1.3c0,0.6,0.2,1,0.5,1.3
			c0.3,0.3,0.8,0.5,1.3,0.5c0.5,0,1-0.2,1.3-0.5c0.3-0.3,0.5-0.8,0.5-1.3c0-0.6-0.2-1-0.5-1.3C309.4,250.1,309,250,308.4,250
			L308.4,250z M306.7,249c-0.6-0.2-1.1-0.5-1.4-1c-0.3-0.4-0.5-1-0.5-1.6c0-1,0.3-1.8,1-2.4s1.5-0.9,2.6-0.9c1.1,0,2,0.3,2.7,0.9
			s1,1.4,1,2.4c0,0.6-0.2,1.2-0.5,1.6c-0.3,0.4-0.8,0.8-1.4,1c0.7,0.2,1.2,0.6,1.6,1.1s0.6,1.2,0.6,1.9c0,1.2-0.3,2-1,2.7
			c-0.7,0.6-1.6,0.9-2.9,0.9c-1.2,0-2.2-0.3-2.9-0.9c-0.7-0.6-1-1.5-1-2.7c0-0.7,0.2-1.4,0.6-1.9C305.5,249.5,306,249.2,306.7,249
			L306.7,249z M306.9,246.5c0,0.5,0.1,0.8,0.4,1.1c0.3,0.3,0.6,0.4,1.1,0.4c0.5,0,0.8-0.1,1.1-0.4c0.3-0.3,0.4-0.7,0.4-1.1
			c0-0.5-0.1-0.8-0.4-1.1c-0.3-0.3-0.6-0.4-1.1-0.4c-0.5,0-0.8,0.1-1.1,0.4C307.1,245.7,306.9,246.1,306.9,246.5z"/>
		<path id="path331" class="st1" d="M317,246.8h2.7v2.9H317V246.8z M317,252.4h2.7v2.9H317V252.4z"/>
		<path id="path333" class="st1" d="M138.6,266v7.7h0.6c0.9,0,1.6-0.3,2-0.9c0.4-0.6,0.6-1.6,0.6-3c0-1.4-0.2-2.4-0.6-3
			c-0.4-0.6-1.1-0.9-2-0.9L138.6,266z M136.2,263.9h2.5c2,0,3.4,0.5,4.2,1.4c0.9,0.9,1.3,2.5,1.3,4.6c0,2.1-0.4,3.7-1.3,4.6
			c-0.9,0.9-2.3,1.4-4.2,1.4h-2.5V263.9z"/>
		<path id="path335" class="st1" d="M152,273.7v-2.3h-1.6v-2h3.7v5.5c-0.5,0.4-1,0.7-1.5,0.9c-0.5,0.2-1.1,0.3-1.8,0.3
			c-1.6,0-2.8-0.5-3.6-1.6c-0.8-1.1-1.3-2.6-1.3-4.6c0-2,0.4-3.6,1.3-4.6c0.9-1.1,2.1-1.6,3.7-1.6c0.5,0,1,0.1,1.4,0.2
			c0.5,0.1,0.9,0.3,1.3,0.6v2.6c-0.3-0.4-0.7-0.7-1.1-1c-0.4-0.2-0.9-0.3-1.4-0.3c-0.9,0-1.6,0.3-2,1c-0.4,0.7-0.7,1.7-0.7,3.1
			c0,1.3,0.2,2.3,0.6,3c0.4,0.7,1.1,1,1.9,1c0.2,0,0.5,0,0.6-0.1C151.7,273.9,151.9,273.8,152,273.7L152,273.7z"/>
		<path id="path337" class="st1" d="M161.9,273.7v-2.3h-1.6v-2h3.7v5.5c-0.5,0.4-1,0.7-1.5,0.9c-0.5,0.2-1.1,0.3-1.8,0.3
			c-1.6,0-2.8-0.5-3.6-1.6c-0.8-1.1-1.3-2.6-1.3-4.6c0-2,0.4-3.6,1.3-4.6c0.9-1.1,2.1-1.6,3.7-1.6c0.5,0,1,0.1,1.4,0.2
			c0.5,0.1,0.9,0.3,1.3,0.6v2.6c-0.3-0.4-0.7-0.7-1.1-1c-0.4-0.2-0.9-0.3-1.4-0.3c-0.9,0-1.6,0.3-2,1c-0.4,0.7-0.7,1.7-0.7,3.1
			c0,1.3,0.2,2.3,0.6,3c0.4,0.7,1.1,1,1.9,1c0.2,0,0.5,0,0.6-0.1C161.6,273.9,161.8,273.8,161.9,273.7L161.9,273.7z"/>
		<path id="path339" class="st1" d="M168.3,266v7.7h0.6c0.9,0,1.6-0.3,2-0.9c0.4-0.6,0.6-1.6,0.6-3c0-1.4-0.2-2.4-0.6-3
			c-0.4-0.6-1.1-0.9-2-0.9L168.3,266z M165.9,263.9h2.5c2,0,3.4,0.5,4.2,1.4c0.9,0.9,1.3,2.5,1.3,4.6c0,2.1-0.4,3.7-1.3,4.6
			c-0.9,0.9-2.3,1.4-4.2,1.4h-2.5V263.9z"/>
		<path id="path341" class="st1" d="M178.3,267.3h2.7v2.9h-2.7V267.3z M178.3,272.9h2.7v2.9h-2.7V272.9z"/>
		<path id="path343" class="st1" d="M267.5,267.3h2.7v2.9h-2.7V267.3z M267.5,272.9h2.7v2.9h-2.7V272.9z"/>
		<path id="path345" class="st1" d="M278.7,270.5c-0.5,0-1,0.2-1.3,0.5c-0.3,0.3-0.5,0.8-0.5,1.3c0,0.6,0.2,1,0.5,1.3
			c0.3,0.3,0.8,0.5,1.3,0.5c0.5,0,1-0.2,1.3-0.5c0.3-0.3,0.5-0.8,0.5-1.3c0-0.6-0.2-1-0.5-1.3C279.7,270.7,279.2,270.5,278.7,270.5
			L278.7,270.5z M277,269.5c-0.6-0.2-1.1-0.5-1.4-1c-0.3-0.4-0.5-1-0.5-1.6c0-1,0.3-1.8,1-2.4c0.6-0.6,1.5-0.9,2.6-0.9
			c1.1,0,2,0.3,2.7,0.9c0.6,0.6,1,1.4,1,2.4c0,0.6-0.2,1.2-0.5,1.6c-0.3,0.4-0.8,0.8-1.4,1c0.7,0.2,1.2,0.6,1.6,1.1
			c0.4,0.5,0.6,1.2,0.6,1.9c0,1.2-0.3,2-1,2.7c-0.7,0.6-1.6,0.9-2.9,0.9c-1.2,0-2.2-0.3-2.9-0.9c-0.7-0.6-1-1.5-1-2.7
			c0-0.7,0.2-1.4,0.6-1.9C275.7,270.1,276.3,269.7,277,269.5L277,269.5z M277.2,267.1c0,0.5,0.1,0.8,0.4,1.1
			c0.3,0.3,0.6,0.4,1.1,0.4c0.5,0,0.8-0.1,1.1-0.4c0.3-0.3,0.4-0.7,0.4-1.1c0-0.5-0.1-0.8-0.4-1.1c-0.3-0.3-0.6-0.4-1.1-0.4
			c-0.5,0-0.8,0.1-1.1,0.4C277.3,266.3,277.2,266.6,277.2,267.1z"/>
		<path id="path347" class="st1" d="M288.6,270.5c-0.5,0-1,0.2-1.3,0.5c-0.3,0.3-0.5,0.8-0.5,1.3c0,0.6,0.2,1,0.5,1.3
			c0.3,0.3,0.8,0.5,1.3,0.5c0.5,0,1-0.2,1.3-0.5c0.3-0.3,0.5-0.8,0.5-1.3c0-0.6-0.2-1-0.5-1.3C289.6,270.7,289.2,270.5,288.6,270.5z
			 M286.9,269.5c-0.6-0.2-1.1-0.5-1.4-1c-0.3-0.4-0.5-1-0.5-1.6c0-1,0.3-1.8,1-2.4c0.6-0.6,1.5-0.9,2.6-0.9c1.1,0,2,0.3,2.7,0.9
			c0.6,0.6,1,1.4,1,2.4c0,0.6-0.2,1.2-0.5,1.6c-0.3,0.4-0.8,0.8-1.4,1c0.7,0.2,1.2,0.6,1.6,1.1c0.4,0.5,0.6,1.2,0.6,1.9
			c0,1.2-0.3,2-1,2.7c-0.7,0.6-1.6,0.9-2.9,0.9c-1.2,0-2.2-0.3-2.9-0.9c-0.7-0.6-1-1.5-1-2.7c0-0.7,0.2-1.4,0.6-1.9
			C285.7,270.1,286.2,269.7,286.9,269.5L286.9,269.5z M287.1,267.1c0,0.5,0.1,0.8,0.4,1.1c0.3,0.3,0.6,0.4,1.1,0.4
			c0.5,0,0.8-0.1,1.1-0.4c0.3-0.3,0.4-0.7,0.4-1.1c0-0.5-0.1-0.8-0.4-1.1c-0.3-0.3-0.6-0.4-1.1-0.4c-0.5,0-0.8,0.1-1.1,0.4
			C287.2,266.3,287.1,266.6,287.1,267.1L287.1,267.1z"/>
		<path id="path349" class="st1" d="M298.5,270.5c-0.5,0-1,0.2-1.3,0.5c-0.3,0.3-0.5,0.8-0.5,1.3c0,0.6,0.2,1,0.5,1.3
			c0.3,0.3,0.8,0.5,1.3,0.5c0.5,0,1-0.2,1.3-0.5c0.3-0.3,0.5-0.8,0.5-1.3c0-0.6-0.2-1-0.5-1.3C299.5,270.7,299.1,270.5,298.5,270.5
			L298.5,270.5z M296.8,269.5c-0.6-0.2-1.1-0.5-1.4-1c-0.3-0.4-0.5-1-0.5-1.6c0-1,0.3-1.8,1-2.4c0.6-0.6,1.5-0.9,2.6-0.9
			c1.1,0,2,0.3,2.7,0.9c0.6,0.6,1,1.4,1,2.4c0,0.6-0.2,1.2-0.5,1.6c-0.3,0.4-0.8,0.8-1.4,1c0.7,0.2,1.2,0.6,1.6,1.1
			c0.4,0.5,0.6,1.2,0.6,1.9c0,1.2-0.3,2-1,2.7c-0.7,0.6-1.6,0.9-2.9,0.9c-1.2,0-2.2-0.3-2.9-0.9c-0.7-0.6-1-1.5-1-2.7
			c0-0.7,0.2-1.4,0.6-1.9C295.6,270.1,296.1,269.7,296.8,269.5L296.8,269.5z M297,267.1c0,0.5,0.1,0.8,0.4,1.1
			c0.3,0.3,0.6,0.4,1.1,0.4c0.5,0,0.8-0.1,1.1-0.4c0.3-0.3,0.4-0.7,0.4-1.1c0-0.5-0.1-0.8-0.4-1.1c-0.3-0.3-0.6-0.4-1.1-0.4
			c-0.5,0-0.8,0.1-1.1,0.4C297.1,266.3,297,266.6,297,267.1z"/>
		<path id="path351" class="st1" d="M308.4,270.5c-0.5,0-1,0.2-1.3,0.5c-0.3,0.3-0.5,0.8-0.5,1.3c0,0.6,0.2,1,0.5,1.3
			c0.3,0.3,0.8,0.5,1.3,0.5c0.5,0,1-0.2,1.3-0.5c0.3-0.3,0.5-0.8,0.5-1.3c0-0.6-0.2-1-0.5-1.3C309.4,270.7,309,270.5,308.4,270.5
			L308.4,270.5z M306.7,269.5c-0.6-0.2-1.1-0.5-1.4-1c-0.3-0.4-0.5-1-0.5-1.6c0-1,0.3-1.8,1-2.4c0.6-0.6,1.5-0.9,2.6-0.9
			c1.1,0,2,0.3,2.7,0.9c0.6,0.6,1,1.4,1,2.4c0,0.6-0.2,1.2-0.5,1.6c-0.3,0.4-0.8,0.8-1.4,1c0.7,0.2,1.2,0.6,1.6,1.1
			c0.4,0.5,0.6,1.2,0.6,1.9c0,1.2-0.3,2-1,2.7s-1.6,0.9-2.9,0.9c-1.2,0-2.2-0.3-2.9-0.9s-1-1.5-1-2.7c0-0.7,0.2-1.4,0.6-1.9
			C305.5,270.1,306,269.7,306.7,269.5L306.7,269.5z M306.9,267.1c0,0.5,0.1,0.8,0.4,1.1c0.3,0.3,0.6,0.4,1.1,0.4
			c0.5,0,0.8-0.1,1.1-0.4c0.3-0.3,0.4-0.7,0.4-1.1c0-0.5-0.1-0.8-0.4-1.1c-0.3-0.3-0.6-0.4-1.1-0.4c-0.5,0-0.8,0.1-1.1,0.4
			C307.1,266.3,306.9,266.6,306.9,267.1z"/>
		<path id="path353" class="st1" d="M317,267.3h2.7v2.9H317V267.3z M317,272.9h2.7v2.9H317V272.9z"/>
		<path id="path355" class="st1" d="M267.5,287.9h2.7v2.9h-2.7V287.9z M267.5,293.5h2.7v2.9h-2.7V293.5z"/>
		<path id="path357" class="st1" d="M278.7,291.1c-0.5,0-1,0.2-1.3,0.5c-0.3,0.3-0.5,0.8-0.5,1.3c0,0.6,0.2,1,0.5,1.3
			c0.3,0.3,0.8,0.5,1.3,0.5c0.5,0,1-0.2,1.3-0.5c0.3-0.3,0.5-0.8,0.5-1.3c0-0.6-0.2-1-0.5-1.3C279.7,291.3,279.2,291.1,278.7,291.1
			L278.7,291.1z M277,290.1c-0.6-0.2-1.1-0.5-1.4-1c-0.3-0.4-0.5-1-0.5-1.6c0-1,0.3-1.8,1-2.4c0.6-0.6,1.5-0.9,2.6-0.9
			c1.1,0,2,0.3,2.7,0.9s1,1.4,1,2.4c0,0.6-0.2,1.2-0.5,1.6c-0.3,0.4-0.8,0.8-1.4,1c0.7,0.2,1.2,0.6,1.6,1.1c0.4,0.5,0.6,1.2,0.6,1.9
			c0,1.2-0.3,2-1,2.7c-0.7,0.6-1.6,0.9-2.9,0.9c-1.2,0-2.2-0.3-2.9-0.9c-0.7-0.6-1-1.5-1-2.7c0-0.7,0.2-1.4,0.6-1.9
			C275.7,290.7,276.3,290.3,277,290.1L277,290.1z M277.2,287.7c0,0.5,0.1,0.8,0.4,1.1c0.3,0.3,0.6,0.4,1.1,0.4
			c0.5,0,0.8-0.1,1.1-0.4c0.3-0.3,0.4-0.7,0.4-1.1c0-0.5-0.1-0.8-0.4-1.1c-0.3-0.3-0.6-0.4-1.1-0.4c-0.5,0-0.8,0.1-1.1,0.4
			C277.3,286.8,277.2,287.2,277.2,287.7z"/>
		<path id="path359" class="st1" d="M288.6,291.1c-0.5,0-1,0.2-1.3,0.5c-0.3,0.3-0.5,0.8-0.5,1.3c0,0.6,0.2,1,0.5,1.3
			c0.3,0.3,0.8,0.5,1.3,0.5s1-0.2,1.3-0.5c0.3-0.3,0.5-0.8,0.5-1.3c0-0.6-0.2-1-0.5-1.3C289.6,291.3,289.2,291.1,288.6,291.1z
			 M286.9,290.1c-0.6-0.2-1.1-0.5-1.4-1c-0.3-0.4-0.5-1-0.5-1.6c0-1,0.3-1.8,1-2.4c0.6-0.6,1.5-0.9,2.6-0.9c1.1,0,2,0.3,2.7,0.9
			c0.6,0.6,1,1.4,1,2.4c0,0.6-0.2,1.2-0.5,1.6c-0.3,0.4-0.8,0.8-1.4,1c0.7,0.2,1.2,0.6,1.6,1.1c0.4,0.5,0.6,1.2,0.6,1.9
			c0,1.2-0.3,2-1,2.7c-0.7,0.6-1.6,0.9-2.9,0.9c-1.2,0-2.2-0.3-2.9-0.9c-0.7-0.6-1-1.5-1-2.7c0-0.7,0.2-1.4,0.6-1.9
			C285.7,290.7,286.2,290.3,286.9,290.1L286.9,290.1z M287.1,287.7c0,0.5,0.1,0.8,0.4,1.1c0.3,0.3,0.6,0.4,1.1,0.4
			c0.5,0,0.8-0.1,1.1-0.4c0.3-0.3,0.4-0.7,0.4-1.1c0-0.5-0.1-0.8-0.4-1.1c-0.3-0.3-0.6-0.4-1.1-0.4c-0.5,0-0.8,0.1-1.1,0.4
			C287.2,286.8,287.1,287.2,287.1,287.7L287.1,287.7z"/>
		<path id="path361" class="st1" d="M298.5,291.1c-0.5,0-1,0.2-1.3,0.5c-0.3,0.3-0.5,0.8-0.5,1.3c0,0.6,0.2,1,0.5,1.3
			c0.3,0.3,0.8,0.5,1.3,0.5c0.5,0,1-0.2,1.3-0.5c0.3-0.3,0.5-0.8,0.5-1.3c0-0.6-0.2-1-0.5-1.3C299.5,291.3,299.1,291.1,298.5,291.1
			L298.5,291.1z M296.8,290.1c-0.6-0.2-1.1-0.5-1.4-1c-0.3-0.4-0.5-1-0.5-1.6c0-1,0.3-1.8,1-2.4c0.6-0.6,1.5-0.9,2.6-0.9
			c1.1,0,2,0.3,2.7,0.9s1,1.4,1,2.4c0,0.6-0.2,1.2-0.5,1.6c-0.3,0.4-0.8,0.8-1.4,1c0.7,0.2,1.2,0.6,1.6,1.1s0.6,1.2,0.6,1.9
			c0,1.2-0.3,2-1,2.7c-0.7,0.6-1.6,0.9-2.9,0.9c-1.2,0-2.2-0.3-2.9-0.9c-0.7-0.6-1-1.5-1-2.7c0-0.7,0.2-1.4,0.6-1.9
			C295.6,290.7,296.1,290.3,296.8,290.1L296.8,290.1z M297,287.7c0,0.5,0.1,0.8,0.4,1.1c0.3,0.3,0.6,0.4,1.1,0.4
			c0.5,0,0.8-0.1,1.1-0.4c0.3-0.3,0.4-0.7,0.4-1.1c0-0.5-0.1-0.8-0.4-1.1c-0.3-0.3-0.6-0.4-1.1-0.4c-0.5,0-0.8,0.1-1.1,0.4
			C297.1,286.8,297,287.2,297,287.7z"/>
		<path id="path363" class="st1" d="M308.4,291.1c-0.5,0-1,0.2-1.3,0.5c-0.3,0.3-0.5,0.8-0.5,1.3c0,0.6,0.2,1,0.5,1.3
			s0.8,0.5,1.3,0.5c0.5,0,1-0.2,1.3-0.5c0.3-0.3,0.5-0.8,0.5-1.3c0-0.6-0.2-1-0.5-1.3C309.4,291.3,309,291.1,308.4,291.1
			L308.4,291.1z M306.7,290.1c-0.6-0.2-1.1-0.5-1.4-1c-0.3-0.4-0.5-1-0.5-1.6c0-1,0.3-1.8,1-2.4s1.5-0.9,2.6-0.9
			c1.1,0,2,0.3,2.7,0.9s1,1.4,1,2.4c0,0.6-0.2,1.2-0.5,1.6c-0.3,0.4-0.8,0.8-1.4,1c0.7,0.2,1.2,0.6,1.6,1.1s0.6,1.2,0.6,1.9
			c0,1.2-0.3,2-1,2.7c-0.7,0.6-1.6,0.9-2.9,0.9c-1.2,0-2.2-0.3-2.9-0.9c-0.7-0.6-1-1.5-1-2.7c0-0.7,0.2-1.4,0.6-1.9
			C305.5,290.7,306,290.3,306.7,290.1L306.7,290.1z M306.9,287.7c0,0.5,0.1,0.8,0.4,1.1c0.3,0.3,0.6,0.4,1.1,0.4
			c0.5,0,0.8-0.1,1.1-0.4c0.3-0.3,0.4-0.7,0.4-1.1c0-0.5-0.1-0.8-0.4-1.1c-0.3-0.3-0.6-0.4-1.1-0.4c-0.5,0-0.8,0.1-1.1,0.4
			C307.1,286.8,306.9,287.2,306.9,287.7z"/>
		<path id="path365" class="st1" d="M317,287.9h2.7v2.9H317V287.9z M317,293.5h2.7v2.9H317V293.5z"/>
		<path id="path367" class="st1" d="M267.5,308.5h2.7v2.9h-2.7V308.5z M267.5,314.1h2.7v2.9h-2.7V314.1z"/>
		<path id="path369" class="st1" d="M273.8,305h2.1l0.9,8.8l1-5.7h2l1.2,5.7l0.7-8.8h2.1l-1.4,12h-2.2l-1.4-6.3l-1.3,6.3h-2.2
			L273.8,305z"/>
		<path id="path371" class="st1" d="M288.6,311.7c-0.5,0-1,0.2-1.3,0.5c-0.3,0.3-0.5,0.8-0.5,1.3c0,0.6,0.2,1,0.5,1.3
			c0.3,0.3,0.8,0.5,1.3,0.5s1-0.2,1.3-0.5c0.3-0.3,0.5-0.8,0.5-1.3c0-0.6-0.2-1-0.5-1.3C289.6,311.8,289.2,311.7,288.6,311.7
			L288.6,311.7z M286.9,310.7c-0.6-0.2-1.1-0.5-1.4-1c-0.3-0.4-0.5-1-0.5-1.6c0-1,0.3-1.8,1-2.4c0.6-0.6,1.5-0.9,2.6-0.9
			c1.1,0,2,0.3,2.7,0.9c0.6,0.6,1,1.4,1,2.4c0,0.6-0.2,1.2-0.5,1.6c-0.3,0.4-0.8,0.8-1.4,1c0.7,0.2,1.2,0.6,1.6,1.1
			c0.4,0.5,0.6,1.2,0.6,1.9c0,1.2-0.3,2-1,2.7c-0.7,0.6-1.6,0.9-2.9,0.9c-1.2,0-2.2-0.3-2.9-0.9c-0.7-0.6-1-1.5-1-2.7
			c0-0.7,0.2-1.4,0.6-1.9S286.2,310.9,286.9,310.7L286.9,310.7z M287.1,308.2c0,0.5,0.1,0.8,0.4,1.1c0.3,0.3,0.6,0.4,1.1,0.4
			c0.5,0,0.8-0.1,1.1-0.4c0.3-0.3,0.4-0.7,0.4-1.1c0-0.5-0.1-0.8-0.4-1.1c-0.3-0.3-0.6-0.4-1.1-0.4c-0.5,0-0.8,0.1-1.1,0.4
			C287.2,307.4,287.1,307.8,287.1,308.2L287.1,308.2z"/>
		<path id="path373" class="st1" d="M298.5,311.7c-0.5,0-1,0.2-1.3,0.5c-0.3,0.3-0.5,0.8-0.5,1.3c0,0.6,0.2,1,0.5,1.3
			c0.3,0.3,0.8,0.5,1.3,0.5c0.5,0,1-0.2,1.3-0.5c0.3-0.3,0.5-0.8,0.5-1.3c0-0.6-0.2-1-0.5-1.3C299.5,311.8,299.1,311.7,298.5,311.7
			L298.5,311.7z M296.8,310.7c-0.6-0.2-1.1-0.5-1.4-1c-0.3-0.4-0.5-1-0.5-1.6c0-1,0.3-1.8,1-2.4c0.6-0.6,1.5-0.9,2.6-0.9
			c1.1,0,2,0.3,2.7,0.9c0.6,0.6,1,1.4,1,2.4c0,0.6-0.2,1.2-0.5,1.6c-0.3,0.4-0.8,0.8-1.4,1c0.7,0.2,1.2,0.6,1.6,1.1
			c0.4,0.5,0.6,1.2,0.6,1.9c0,1.2-0.3,2-1,2.7c-0.7,0.6-1.6,0.9-2.9,0.9c-1.2,0-2.2-0.3-2.9-0.9c-0.7-0.6-1-1.5-1-2.7
			c0-0.7,0.2-1.4,0.6-1.9C295.6,311.2,296.1,310.9,296.8,310.7z M297,308.2c0,0.5,0.1,0.8,0.4,1.1c0.3,0.3,0.6,0.4,1.1,0.4
			c0.5,0,0.8-0.1,1.1-0.4c0.3-0.3,0.4-0.7,0.4-1.1c0-0.5-0.1-0.8-0.4-1.1c-0.3-0.3-0.6-0.4-1.1-0.4c-0.5,0-0.8,0.1-1.1,0.4
			C297.1,307.4,297,307.8,297,308.2z"/>
		<path id="path375" class="st1" d="M308.4,311.7c-0.5,0-1,0.2-1.3,0.5c-0.3,0.3-0.5,0.8-0.5,1.3c0,0.6,0.2,1,0.5,1.3
			s0.8,0.5,1.3,0.5c0.5,0,1-0.2,1.3-0.5c0.3-0.3,0.5-0.8,0.5-1.3c0-0.6-0.2-1-0.5-1.3C309.4,311.8,309,311.7,308.4,311.7
			L308.4,311.7z M306.7,310.7c-0.6-0.2-1.1-0.5-1.4-1c-0.3-0.4-0.5-1-0.5-1.6c0-1,0.3-1.8,1-2.4c0.6-0.6,1.5-0.9,2.6-0.9
			c1.1,0,2,0.3,2.7,0.9c0.6,0.6,1,1.4,1,2.4c0,0.6-0.2,1.2-0.5,1.6c-0.3,0.4-0.8,0.8-1.4,1c0.7,0.2,1.2,0.6,1.6,1.1
			c0.4,0.5,0.6,1.2,0.6,1.9c0,1.2-0.3,2-1,2.7s-1.6,0.9-2.9,0.9c-1.2,0-2.2-0.3-2.9-0.9s-1-1.5-1-2.7c0-0.7,0.2-1.4,0.6-1.9
			C305.5,311.2,306,310.9,306.7,310.7L306.7,310.7z M306.9,308.2c0,0.5,0.1,0.8,0.4,1.1c0.3,0.3,0.6,0.4,1.1,0.4
			c0.5,0,0.8-0.1,1.1-0.4c0.3-0.3,0.4-0.7,0.4-1.1c0-0.5-0.1-0.8-0.4-1.1c-0.3-0.3-0.6-0.4-1.1-0.4c-0.5,0-0.8,0.1-1.1,0.4
			C307.1,307.4,306.9,307.8,306.9,308.2z"/>
		<path id="path377" class="st1" d="M317,308.5h2.7v2.9H317V308.5z M317,314.1h2.7v2.9H317V314.1z"/>
		<path id="path379" class="st1" d="M267.5,329h2.7v2.9h-2.7V329z M267.5,334.6h2.7v2.9h-2.7V334.6z"/>
		<path id="path381" class="st1" d="M278.7,332.2c-0.5,0-1,0.2-1.3,0.5c-0.3,0.3-0.5,0.8-0.5,1.3c0,0.6,0.2,1,0.5,1.3
			c0.3,0.3,0.8,0.5,1.3,0.5c0.5,0,1-0.2,1.3-0.5c0.3-0.3,0.5-0.8,0.5-1.3c0-0.6-0.2-1-0.5-1.3C279.7,332.4,279.2,332.2,278.7,332.2
			L278.7,332.2z M277,331.2c-0.6-0.2-1.1-0.5-1.4-1c-0.3-0.4-0.5-1-0.5-1.6c0-1,0.3-1.8,1-2.4c0.6-0.6,1.5-0.9,2.6-0.9
			c1.1,0,2,0.3,2.7,0.9s1,1.4,1,2.4c0,0.6-0.2,1.2-0.5,1.6c-0.3,0.4-0.8,0.8-1.4,1c0.7,0.2,1.2,0.6,1.6,1.1c0.4,0.5,0.6,1.2,0.6,1.9
			c0,1.2-0.3,2-1,2.7c-0.7,0.6-1.6,0.9-2.9,0.9c-1.2,0-2.2-0.3-2.9-0.9c-0.7-0.6-1-1.5-1-2.7c0-0.7,0.2-1.4,0.6-1.9
			C275.7,331.8,276.3,331.4,277,331.2L277,331.2z M277.2,328.8c0,0.5,0.1,0.8,0.4,1.1c0.3,0.3,0.6,0.4,1.1,0.4
			c0.5,0,0.8-0.1,1.1-0.4c0.3-0.3,0.4-0.7,0.4-1.1c0-0.5-0.1-0.8-0.4-1.1c-0.3-0.3-0.6-0.4-1.1-0.4c-0.5,0-0.8,0.1-1.1,0.4
			C277.3,328,277.2,328.3,277.2,328.8z"/>
		<path id="path383" class="st1" d="M288.6,332.2c-0.5,0-1,0.2-1.3,0.5c-0.3,0.3-0.5,0.8-0.5,1.3s0.2,1,0.5,1.3
			c0.3,0.3,0.8,0.5,1.3,0.5c0.5,0,1-0.2,1.3-0.5c0.3-0.3,0.5-0.8,0.5-1.3c0-0.6-0.2-1-0.5-1.3C289.6,332.4,289.2,332.2,288.6,332.2
			L288.6,332.2z M286.9,331.2c-0.6-0.2-1.1-0.5-1.4-1c-0.3-0.4-0.5-1-0.5-1.6c0-1,0.3-1.8,1-2.4c0.6-0.6,1.5-0.9,2.6-0.9
			c1.1,0,2,0.3,2.7,0.9c0.6,0.6,1,1.4,1,2.4c0,0.6-0.2,1.2-0.5,1.6c-0.3,0.4-0.8,0.8-1.4,1c0.7,0.2,1.2,0.6,1.6,1.1
			c0.4,0.5,0.6,1.2,0.6,1.9c0,1.2-0.3,2-1,2.7c-0.7,0.6-1.6,0.9-2.9,0.9c-1.2,0-2.2-0.3-2.9-0.9c-0.7-0.6-1-1.5-1-2.7
			c0-0.7,0.2-1.4,0.6-1.9S286.2,331.4,286.9,331.2L286.9,331.2z M287.1,328.8c0,0.5,0.1,0.8,0.4,1.1c0.3,0.3,0.6,0.4,1.1,0.4
			c0.5,0,0.8-0.1,1.1-0.4c0.3-0.3,0.4-0.7,0.4-1.1c0-0.5-0.1-0.8-0.4-1.1c-0.3-0.3-0.6-0.4-1.1-0.4c-0.5,0-0.8,0.1-1.1,0.4
			C287.2,328,287.1,328.3,287.1,328.8L287.1,328.8z"/>
		<path id="path385" class="st1" d="M298.5,332.2c-0.5,0-1,0.2-1.3,0.5c-0.3,0.3-0.5,0.8-0.5,1.3s0.2,1,0.5,1.3
			c0.3,0.3,0.8,0.5,1.3,0.5c0.5,0,1-0.2,1.3-0.5c0.3-0.3,0.5-0.8,0.5-1.3c0-0.6-0.2-1-0.5-1.3C299.5,332.4,299.1,332.2,298.5,332.2
			L298.5,332.2z M296.8,331.2c-0.6-0.2-1.1-0.5-1.4-1c-0.3-0.4-0.5-1-0.5-1.6c0-1,0.3-1.8,1-2.4c0.6-0.6,1.5-0.9,2.6-0.9
			c1.1,0,2,0.3,2.7,0.9s1,1.4,1,2.4c0,0.6-0.2,1.2-0.5,1.6c-0.3,0.4-0.8,0.8-1.4,1c0.7,0.2,1.2,0.6,1.6,1.1s0.6,1.2,0.6,1.9
			c0,1.2-0.3,2-1,2.7c-0.7,0.6-1.6,0.9-2.9,0.9c-1.2,0-2.2-0.3-2.9-0.9c-0.7-0.6-1-1.5-1-2.7c0-0.7,0.2-1.4,0.6-1.9
			C295.6,331.8,296.1,331.4,296.8,331.2L296.8,331.2z M297,328.8c0,0.5,0.1,0.8,0.4,1.1c0.3,0.3,0.6,0.4,1.1,0.4
			c0.5,0,0.8-0.1,1.1-0.4c0.3-0.3,0.4-0.7,0.4-1.1c0-0.5-0.1-0.8-0.4-1.1c-0.3-0.3-0.6-0.4-1.1-0.4c-0.5,0-0.8,0.1-1.1,0.4
			C297.1,328,297,328.3,297,328.8z"/>
		<path id="path387" class="st1" d="M308.4,332.2c-0.5,0-1,0.2-1.3,0.5c-0.3,0.3-0.5,0.8-0.5,1.3c0,0.6,0.2,1,0.5,1.3
			c0.3,0.3,0.8,0.5,1.3,0.5c0.5,0,1-0.2,1.3-0.5c0.3-0.3,0.5-0.8,0.5-1.3c0-0.6-0.2-1-0.5-1.3C309.4,332.4,309,332.2,308.4,332.2
			L308.4,332.2z M306.7,331.2c-0.6-0.2-1.1-0.5-1.4-1c-0.3-0.4-0.5-1-0.5-1.6c0-1,0.3-1.8,1-2.4s1.5-0.9,2.6-0.9
			c1.1,0,2,0.3,2.7,0.9s1,1.4,1,2.4c0,0.6-0.2,1.2-0.5,1.6c-0.3,0.4-0.8,0.8-1.4,1c0.7,0.2,1.2,0.6,1.6,1.1s0.6,1.2,0.6,1.9
			c0,1.2-0.3,2-1,2.7c-0.7,0.6-1.6,0.9-2.9,0.9c-1.2,0-2.2-0.3-2.9-0.9c-0.7-0.6-1-1.5-1-2.7c0-0.7,0.2-1.4,0.6-1.9
			C305.5,331.8,306,331.4,306.7,331.2L306.7,331.2z M306.9,328.8c0,0.5,0.1,0.8,0.4,1.1c0.3,0.3,0.6,0.4,1.1,0.4
			c0.5,0,0.8-0.1,1.1-0.4c0.3-0.3,0.4-0.7,0.4-1.1c0-0.5-0.1-0.8-0.4-1.1c-0.3-0.3-0.6-0.4-1.1-0.4c-0.5,0-0.8,0.1-1.1,0.4
			C307.1,328,306.9,328.3,306.9,328.8z"/>
		<path id="path389" class="st1" d="M317,329h2.7v2.9H317V329z M317,334.6h2.7v2.9H317V334.6z"/>
		<path id="path391" class="st1" d="M282.6,358.1h-7.5v-12h7.5v2.1h-5.1v2.6h4.6v2.1h-4.6v3.1h5.1V358.1z"/>
		<path id="path393" class="st1" d="M288.6,352.8c-0.5,0-1,0.2-1.3,0.5c-0.3,0.3-0.5,0.8-0.5,1.3s0.2,1,0.5,1.3
			c0.3,0.3,0.8,0.5,1.3,0.5s1-0.2,1.3-0.5c0.3-0.3,0.5-0.8,0.5-1.3c0-0.6-0.2-1-0.5-1.3C289.6,353,289.2,352.8,288.6,352.8
			L288.6,352.8z M286.9,351.8c-0.6-0.2-1.1-0.5-1.4-1c-0.3-0.4-0.5-1-0.5-1.6c0-1,0.3-1.8,1-2.4c0.6-0.6,1.5-0.9,2.6-0.9
			c1.1,0,2,0.3,2.7,0.9c0.6,0.6,1,1.4,1,2.4c0,0.6-0.2,1.2-0.5,1.6c-0.3,0.4-0.8,0.8-1.4,1c0.7,0.2,1.2,0.6,1.6,1.1
			c0.4,0.5,0.6,1.2,0.6,1.9c0,1.2-0.3,2-1,2.7c-0.7,0.6-1.6,0.9-2.9,0.9c-1.2,0-2.2-0.3-2.9-0.9c-0.7-0.6-1-1.5-1-2.7
			c0-0.7,0.2-1.4,0.6-1.9C285.7,352.4,286.2,352,286.9,351.8L286.9,351.8z M287.1,349.4c0,0.5,0.1,0.8,0.4,1.1
			c0.3,0.3,0.6,0.4,1.1,0.4c0.5,0,0.8-0.1,1.1-0.4c0.3-0.3,0.4-0.7,0.4-1.1c0-0.5-0.1-0.8-0.4-1.1c-0.3-0.3-0.6-0.4-1.1-0.4
			c-0.5,0-0.8,0.1-1.1,0.4C287.2,348.5,287.1,348.9,287.1,349.4L287.1,349.4z"/>
		<path id="path395" class="st1" d="M298.5,352.8c-0.5,0-1,0.2-1.3,0.5c-0.3,0.3-0.5,0.8-0.5,1.3s0.2,1,0.5,1.3
			c0.3,0.3,0.8,0.5,1.3,0.5c0.5,0,1-0.2,1.3-0.5c0.3-0.3,0.5-0.8,0.5-1.3c0-0.6-0.2-1-0.5-1.3C299.5,353,299.1,352.8,298.5,352.8
			L298.5,352.8z M296.8,351.8c-0.6-0.2-1.1-0.5-1.4-1c-0.3-0.4-0.5-1-0.5-1.6c0-1,0.3-1.8,1-2.4c0.6-0.6,1.5-0.9,2.6-0.9
			c1.1,0,2,0.3,2.7,0.9s1,1.4,1,2.4c0,0.6-0.2,1.2-0.5,1.6c-0.3,0.4-0.8,0.8-1.4,1c0.7,0.2,1.2,0.6,1.6,1.1s0.6,1.2,0.6,1.9
			c0,1.2-0.3,2-1,2.7c-0.7,0.6-1.6,0.9-2.9,0.9c-1.2,0-2.2-0.3-2.9-0.9c-0.7-0.6-1-1.5-1-2.7c0-0.7,0.2-1.4,0.6-1.9
			C295.6,352.4,296.1,352,296.8,351.8L296.8,351.8z M297,349.4c0,0.5,0.1,0.8,0.4,1.1c0.3,0.3,0.6,0.4,1.1,0.4
			c0.5,0,0.8-0.1,1.1-0.4c0.3-0.3,0.4-0.7,0.4-1.1c0-0.5-0.1-0.8-0.4-1.1c-0.3-0.3-0.6-0.4-1.1-0.4c-0.5,0-0.8,0.1-1.1,0.4
			C297.1,348.5,297,348.9,297,349.4z"/>
		<path id="path397" class="st1" d="M308.4,352.8c-0.5,0-1,0.2-1.3,0.5c-0.3,0.3-0.5,0.8-0.5,1.3c0,0.6,0.2,1,0.5,1.3
			c0.3,0.3,0.8,0.5,1.3,0.5c0.5,0,1-0.2,1.3-0.5c0.3-0.3,0.5-0.8,0.5-1.3c0-0.6-0.2-1-0.5-1.3C309.4,353,309,352.8,308.4,352.8
			L308.4,352.8z M306.7,351.8c-0.6-0.2-1.1-0.5-1.4-1c-0.3-0.4-0.5-1-0.5-1.6c0-1,0.3-1.8,1-2.4s1.5-0.9,2.6-0.9
			c1.1,0,2,0.3,2.7,0.9s1,1.4,1,2.4c0,0.6-0.2,1.2-0.5,1.6c-0.3,0.4-0.8,0.8-1.4,1c0.7,0.2,1.2,0.6,1.6,1.1s0.6,1.2,0.6,1.9
			c0,1.2-0.3,2-1,2.7s-1.6,0.9-2.9,0.9c-1.2,0-2.2-0.3-2.9-0.9s-1-1.5-1-2.7c0-0.7,0.2-1.4,0.6-1.9C305.5,352.4,306,352,306.7,351.8
			L306.7,351.8z M306.9,349.4c0,0.5,0.1,0.8,0.4,1.1c0.3,0.3,0.6,0.4,1.1,0.4c0.5,0,0.8-0.1,1.1-0.4c0.3-0.3,0.4-0.7,0.4-1.1
			c0-0.5-0.1-0.8-0.4-1.1c-0.3-0.3-0.6-0.4-1.1-0.4c-0.5,0-0.8,0.1-1.1,0.4C307.1,348.5,306.9,348.9,306.9,349.4z"/>
		<path id="path399" class="st1" d="M315.2,349.1h4.7v7.2h2.9v1.8h-8.2v-1.8h2.9V351h-2.3L315.2,349.1z M317.5,344.8h2.4v2.7h-2.4
			V344.8z"/>
		<path id="path401" class="st1" d="M279.3,367.2v2.6h3.1v1.8h-3.1v4.3c0,0.4,0.1,0.7,0.3,0.9c0.2,0.2,0.5,0.3,1,0.3h1.8v1.8h-2
			c-1.3,0-2.3-0.2-2.7-0.6c-0.5-0.4-0.7-1.2-0.7-2.4v-4.1h-2.3v-1.8h2.3v-2.6L279.3,367.2z"/>
		<path id="path403" class="st1" d="M283.7,366.7h2.1l0.9,8.8l1-5.7h2l1.2,5.7l0.7-8.8h2.1l-1.4,12H290l-1.4-6.3l-1.3,6.3h-2.2
			L283.7,366.7z"/>
		<path id="path405" class="st1" d="M298.5,373.4c-0.5,0-1,0.2-1.3,0.5c-0.3,0.3-0.5,0.8-0.5,1.3c0,0.6,0.2,1,0.5,1.3
			c0.3,0.3,0.8,0.5,1.3,0.5c0.5,0,1-0.2,1.3-0.5c0.3-0.3,0.5-0.8,0.5-1.3c0-0.6-0.2-1-0.5-1.3C299.5,373.5,299.1,373.4,298.5,373.4
			L298.5,373.4z M296.8,372.4c-0.6-0.2-1.1-0.5-1.4-1c-0.3-0.4-0.5-1-0.5-1.6c0-1,0.3-1.8,1-2.4c0.6-0.6,1.5-0.9,2.6-0.9
			c1.1,0,2,0.3,2.7,0.9s1,1.4,1,2.4c0,0.6-0.2,1.2-0.5,1.6c-0.3,0.4-0.8,0.8-1.4,1c0.7,0.2,1.2,0.6,1.6,1.1s0.6,1.2,0.6,1.9
			c0,1.2-0.3,2-1,2.7c-0.7,0.6-1.6,0.9-2.9,0.9c-1.2,0-2.2-0.3-2.9-0.9c-0.7-0.6-1-1.5-1-2.7c0-0.7,0.2-1.4,0.6-1.9
			C295.6,372.9,296.1,372.6,296.8,372.4L296.8,372.4z M297,369.9c0,0.5,0.1,0.8,0.4,1.1c0.3,0.3,0.6,0.4,1.1,0.4
			c0.5,0,0.8-0.1,1.1-0.4c0.3-0.3,0.4-0.7,0.4-1.1c0-0.5-0.1-0.8-0.4-1.1c-0.3-0.3-0.6-0.4-1.1-0.4c-0.5,0-0.8,0.1-1.1,0.4
			C297.1,369.1,297,369.5,297,369.9z"/>
		<path id="path407" class="st1" d="M308.4,373.4c-0.5,0-1,0.2-1.3,0.5c-0.3,0.3-0.5,0.8-0.5,1.3c0,0.6,0.2,1,0.5,1.3
			c0.3,0.3,0.8,0.5,1.3,0.5c0.5,0,1-0.2,1.3-0.5c0.3-0.3,0.5-0.8,0.5-1.3c0-0.6-0.2-1-0.5-1.3C309.4,373.5,309,373.4,308.4,373.4
			L308.4,373.4z M306.7,372.4c-0.6-0.2-1.1-0.5-1.4-1c-0.3-0.4-0.5-1-0.5-1.6c0-1,0.3-1.8,1-2.4s1.5-0.9,2.6-0.9
			c1.1,0,2,0.3,2.7,0.9s1,1.4,1,2.4c0,0.6-0.2,1.2-0.5,1.6c-0.3,0.4-0.8,0.8-1.4,1c0.7,0.2,1.2,0.6,1.6,1.1s0.6,1.2,0.6,1.9
			c0,1.2-0.3,2-1,2.7c-0.7,0.6-1.6,0.9-2.9,0.9c-1.2,0-2.2-0.3-2.9-0.9s-1-1.5-1-2.7c0-0.7,0.2-1.4,0.6-1.9
			C305.5,372.9,306,372.6,306.7,372.4L306.7,372.4z M306.9,369.9c0,0.5,0.1,0.8,0.4,1.1c0.3,0.3,0.6,0.4,1.1,0.4
			c0.5,0,0.8-0.1,1.1-0.4c0.3-0.3,0.4-0.7,0.4-1.1c0-0.5-0.1-0.8-0.4-1.1c-0.3-0.3-0.6-0.4-1.1-0.4c-0.5,0-0.8,0.1-1.1,0.4
			C307.1,369.1,306.9,369.5,306.9,369.9z"/>
		<path id="path409" class="st1" d="M316.9,368.9v7.7h0.6c0.9,0,1.6-0.3,2-0.9c0.4-0.6,0.6-1.6,0.6-3c0-1.4-0.2-2.4-0.6-3
			c-0.4-0.6-1.1-0.9-2-0.9H316.9z M314.5,366.7h2.5c2,0,3.4,0.5,4.2,1.4c0.9,0.9,1.3,2.5,1.3,4.6c0,2.1-0.4,3.7-1.3,4.6
			c-0.9,0.9-2.3,1.4-4.2,1.4h-2.5V366.7z"/>
	</g>
</g>
</svg>
