<?xml version="1.0" encoding="UTF-8" standalone="no"?>
<!DOCTYPE svg PUBLIC "-//W3C//DTD SVG 1.1//EN" "http://www.w3.org/Graphics/SVG/1.1/DTD/svg11.dtd">
<!-- Generated by graphviz version 2.26.3 (20100126.1600)
 -->
<!-- Title: inheritance Pages: 1 -->
<svg xmlns="http://www.w3.org/2000/svg" xmlns:xlink="http://www.w3.org/1999/xlink" width="265px" height="88px" viewBox="0.00 0.00 293.00 98.00">
<g id="graph1" class="graph" transform="rotate(0) translate(4 94)">
<title>inheritance</title>
<!-- base -->
<g id="node1" class="node"><title>base</title>
<a>
<polygon fill="white" stroke="black" points="115,-90 1,-90 1,-54 115,-54 115,-90"/>
<text text-anchor="middle" x="58" y="-68.4" font-family="DejaVu Sans, verdana, sans-serif" font-size="14.00">time_base</text>
</a>
</g>
<!-- f1 -->
<g id="node2" class="node"><title>f1</title>
<a>
<polygon fill="white" stroke="black" points="115,-36 1,-36 1,-1.77636e-14 115,-3.55271e-15 115,-36"/>
<text text-anchor="middle" x="58" y="-14.4" font-family="DejaVu Sans, verdana, sans-serif" font-size="14.00">locale::facet</text>
</a>
</g>
<!-- facet -->
<g id="node3" class="node"><title>facet</title>
<a>
<polygon fill="lightgrey" stroke="black" points="285,-66 145,-66 145,-24 285,-24 285,-66"/>
<text text-anchor="start" x="184.5" y="-51.7333" font-family="DejaVu Sans, verdana, sans-serif" font-size="14.00">time_get</text>
<text text-anchor="start" x="153.5" y="-34.9333" font-family="DejaVu Sans, verdana, sans-serif" font-size="14.00" fill="#808080">&lt;CharT, InputIt&gt;</text>
</a>
</g>
<!-- facet&#45;&gt;base -->
<g id="edge2" class="edge"><title>facet-&gt;base</title>
<path fill="none" stroke="black" d="M144.766,-57.0785C140.25,-57.8552 135.697,-58.6381 131.168,-59.417"/>
<polygon fill="none" stroke="black" points="129.842,-54.3179 115.949,-62.0343 131.622,-64.666 129.842,-54.3179"/>
</g>
<!-- facet&#45;&gt;f1 -->
<g id="edge4" class="edge"><title>facet-&gt;f1</title>
<path fill="none" stroke="black" d="M144.766,-32.9215C140.25,-32.1448 135.697,-31.3619 131.168,-30.583"/>
<polygon fill="none" stroke="black" points="131.622,-25.334 115.949,-27.9657 129.842,-35.6821 131.622,-25.334"/>
</g>
</g>
</svg>
