<?xml version="1.0" encoding="UTF-8"?>
<svg id="Capa_1" data-name="Capa 1" xmlns="http://www.w3.org/2000/svg" viewBox="0 0 985.33 451.04">
  <rect x="109.73" y="80.5" width="865.61" height=".83" style="fill: #ffe000;"/>
  <g>
    <g>
      <rect x="4.17" y="52.77" width="211.12" height="56.3" style="fill: #ffe964;"/>
      <path d="m215.29,52.77v56.3H4.17v-56.3h211.12m4.17-4.17H0v64.64h219.47V48.6h0Z" style="fill: #ffe000;"/>
    </g>
    <g>
      <path d="m65.15,87.25c-1.42-.76-2.53-1.82-3.34-3.17s-1.22-2.88-1.22-4.59.41-3.23,1.22-4.59,1.93-2.41,3.34-3.17c1.42-.76,3.01-1.14,4.78-1.14,1.49,0,2.84.26,4.05.79,1.21.52,2.22,1.28,3.04,2.26l-2.56,2.36c-1.16-1.34-2.61-2.02-4.33-2.02-1.07,0-2.02.23-2.85.7s-1.49,1.12-1.96,1.96-.7,1.79-.7,2.85.23,2.02.7,2.85,1.12,1.49,1.96,1.96,1.79.7,2.85.7c1.72,0,3.16-.68,4.33-2.04l2.56,2.36c-.82,1-1.84,1.76-3.05,2.29-1.21.52-2.57.79-4.06.79-1.75,0-3.34-.38-4.76-1.14Z" style="fill: #333;"/>
      <path d="m81.51,87.42c-1.11-.58-1.97-1.39-2.59-2.42-.62-1.03-.93-2.2-.93-3.52s.31-2.48.93-3.52c.62-1.03,1.49-1.84,2.59-2.42,1.11-.58,2.36-.87,3.75-.87s2.64.29,3.74.87c1.1.58,1.96,1.39,2.58,2.42.62,1.03.93,2.21.93,3.52s-.31,2.48-.93,3.52c-.62,1.03-1.48,1.84-2.58,2.42-1.1.58-2.34.87-3.74.87s-2.64-.29-3.75-.87Zm6.17-3.27c.63-.66.95-1.55.95-2.67s-.32-2-.95-2.67c-.63-.66-1.44-1-2.42-1s-1.79.33-2.43,1c-.64.66-.96,1.55-.96,2.67s.32,2,.96,2.67c.64.66,1.45,1,2.43,1s1.79-.33,2.42-1Z" style="fill: #333;"/>
      <path d="m107.08,76.15c1.01.98,1.51,2.44,1.51,4.38v7.57h-3.84v-6.98c0-1.05-.23-1.83-.69-2.35-.46-.52-1.12-.77-1.99-.77-.97,0-1.74.3-2.31.9-.57.6-.86,1.49-.86,2.67v6.54h-3.84v-13.23h3.66v1.55c.51-.56,1.14-.99,1.89-1.29.75-.3,1.58-.46,2.48-.46,1.64,0,2.96.49,3.97,1.48Z" style="fill: #333;"/>
      <path d="m120.59,87.46c-.38.28-.84.49-1.39.63-.55.14-1.13.21-1.73.21-1.57,0-2.79-.4-3.65-1.21-.86-.8-1.29-1.98-1.29-3.54v-5.43h-2.04v-2.95h2.04v-3.22h3.84v3.22h3.29v2.95h-3.29v5.39c0,.56.14.99.43,1.29.29.3.69.46,1.22.46.61,0,1.12-.16,1.55-.49l1.03,2.71Z" style="fill: #333;"/>
      <path d="m135.23,82.57h-10.01c.18.82.61,1.47,1.28,1.94.67.48,1.51.71,2.51.71.69,0,1.3-.1,1.83-.31.53-.2,1.03-.53,1.49-.97l2.04,2.21c-1.25,1.43-3.07,2.14-5.46,2.14-1.49,0-2.81-.29-3.96-.87-1.15-.58-2.03-1.39-2.66-2.42-.62-1.03-.93-2.2-.93-3.52s.31-2.46.92-3.5,1.46-1.85,2.53-2.43c1.07-.58,2.27-.87,3.6-.87s2.47.28,3.52.84c1.05.56,1.87,1.36,2.47,2.4.6,1.04.9,2.25.9,3.63,0,.05-.02.39-.07,1.03Zm-8.98-4.25c-.59.49-.95,1.16-1.08,2.02h6.52c-.13-.84-.49-1.5-1.08-2s-1.31-.75-2.16-.75-1.6.25-2.19.74Z" style="fill: #333;"/>
      <path d="m139.09,87.89c-1.05-.27-1.89-.61-2.51-1.02l1.28-2.75c.59.38,1.3.68,2.14.92.84.24,1.66.36,2.46.36,1.62,0,2.43-.4,2.43-1.21,0-.38-.22-.65-.66-.81-.44-.16-1.12-.3-2.04-.42-1.08-.16-1.98-.35-2.68-.57-.71-.21-1.32-.59-1.83-1.13-.52-.54-.77-1.31-.77-2.31,0-.84.24-1.58.73-2.23.48-.65,1.19-1.15,2.11-1.51.93-.36,2.02-.54,3.28-.54.93,0,1.86.1,2.79.31.93.21,1.69.49,2.3.85l-1.28,2.73c-1.16-.66-2.43-.98-3.81-.98-.82,0-1.43.11-1.84.34-.41.23-.61.52-.61.89,0,.41.22.7.66.86.44.16,1.15.32,2.11.47,1.08.18,1.97.37,2.66.58.69.21,1.29.58,1.8,1.12.51.54.76,1.3.76,2.26,0,.82-.25,1.55-.74,2.19-.49.64-1.21,1.14-2.15,1.49s-2.06.53-3.36.53c-1.1,0-2.17-.14-3.22-.41Z" style="fill: #333;"/>
      <path d="m159.45,87.46c-.38.28-.84.49-1.39.63-.55.14-1.13.21-1.73.21-1.57,0-2.79-.4-3.65-1.21-.86-.8-1.29-1.98-1.29-3.54v-5.43h-2.04v-2.95h2.04v-3.22h3.84v3.22h3.29v2.95h-3.29v5.39c0,.56.14.99.43,1.29.29.3.69.46,1.22.46.61,0,1.12-.16,1.55-.49l1.03,2.71Z" style="fill: #333;"/>
    </g>
  </g>
  <rect x="109.73" y="179.03" width="865.61" height=".83" style="fill: #32ba04;"/>
  <g>
    <g>
      <rect x="4.17" y="151.3" width="211.12" height="56.3" style="fill: #7de053;"/>
      <path d="m215.29,151.3v56.3H4.17v-56.3h211.12m4.17-4.17H0v64.64h219.47v-64.64h0Z" style="fill: #32ba04;"/>
    </g>
    <g>
      <path d="m88.15,183.43v3.2h-13.33v-17.21h13.01v3.2h-9.05v3.74h7.99v3.1h-7.99v3.98h9.37Z" style="fill: #333;"/>
      <path d="m104.06,173.4l-5.58,13.23h-3.96l-5.56-13.23h3.96l3.66,9,3.79-9h3.69Z" style="fill: #333;"/>
      <path d="m118.15,181.09h-10.01c.18.82.61,1.47,1.28,1.94.67.48,1.51.71,2.51.71.69,0,1.3-.1,1.83-.31.53-.2,1.03-.53,1.49-.97l2.04,2.21c-1.25,1.43-3.07,2.14-5.46,2.14-1.49,0-2.81-.29-3.96-.87-1.15-.58-2.03-1.39-2.66-2.42-.62-1.03-.93-2.2-.93-3.52s.31-2.46.92-3.5,1.46-1.85,2.53-2.43c1.07-.58,2.27-.87,3.6-.87s2.47.28,3.52.84c1.05.56,1.87,1.36,2.47,2.4.6,1.04.9,2.25.9,3.63,0,.05-.02.39-.07,1.03Zm-8.98-4.25c-.59.49-.95,1.16-1.08,2.02h6.52c-.13-.84-.49-1.5-1.08-2s-1.31-.75-2.16-.75-1.6.25-2.19.74Z" style="fill: #333;"/>
      <path d="m132.79,174.67c1.01.98,1.51,2.44,1.51,4.38v7.57h-3.84v-6.98c0-1.05-.23-1.83-.69-2.35-.46-.52-1.12-.77-1.99-.77-.97,0-1.74.3-2.31.9-.57.6-.86,1.49-.86,2.67v6.54h-3.84v-13.23h3.66v1.55c.51-.56,1.14-.99,1.89-1.29.75-.3,1.58-.46,2.48-.46,1.64,0,2.96.49,3.97,1.48Z" style="fill: #333;"/>
      <path d="m146.3,185.99c-.38.28-.84.49-1.39.63-.55.14-1.13.21-1.73.21-1.57,0-2.79-.4-3.65-1.21-.86-.8-1.29-1.98-1.29-3.54v-5.43h-2.04v-2.95h2.04v-3.22h3.84v3.22h3.29v2.95h-3.29v5.39c0,.56.14.99.43,1.29.29.3.69.46,1.22.46.61,0,1.12-.16,1.55-.49l1.03,2.71Z" style="fill: #333;"/>
    </g>
  </g>
  <rect x="109.73" y="277.55" width="865.61" height=".83" style="fill: #dd222b;"/>
  <rect x="109.73" y="418.3" width="865.61" height=".83" style="fill: #333;"/>
  <g>
    <g>
      <rect x="4.17" y="249.82" width="211.12" height="56.3" style="fill: #f98591;"/>
      <path d="m215.29,249.82v56.3H4.17v-56.3h211.12m4.17-4.17H0v64.64h219.47v-64.64h0Z" style="fill: #dd222b;"/>
    </g>
    <g>
      <path d="m63.67,267.94h7.82c1.87,0,3.52.36,4.96,1.07,1.43.71,2.55,1.72,3.34,3.01.79,1.29,1.19,2.8,1.19,4.52s-.4,3.23-1.19,4.53c-.8,1.29-1.91,2.3-3.34,3.01-1.44.71-3.09,1.07-4.96,1.07h-7.82v-17.21Zm7.62,13.94c1.72,0,3.09-.48,4.12-1.44s1.54-2.26,1.54-3.9-.51-2.94-1.54-3.9-2.4-1.44-4.12-1.44h-3.64v10.67h3.64Z" style="fill: #333;"/>
      <path d="m96.59,279.62h-10.01c.18.82.61,1.47,1.28,1.94s1.51.71,2.51.71c.69,0,1.3-.1,1.83-.31.53-.21,1.03-.53,1.49-.97l2.04,2.21c-1.25,1.43-3.07,2.14-5.46,2.14-1.49,0-2.81-.29-3.96-.87-1.15-.58-2.03-1.39-2.66-2.42-.62-1.03-.93-2.21-.93-3.52s.31-2.46.92-3.5,1.46-1.85,2.53-2.43c1.07-.58,2.27-.87,3.6-.87s2.47.28,3.52.84c1.05.56,1.87,1.36,2.47,2.4.6,1.04.9,2.25.9,3.63,0,.05-.02.39-.07,1.03Zm-8.98-4.25c-.59.49-.95,1.16-1.08,2.02h6.52c-.13-.84-.49-1.5-1.08-2-.59-.5-1.31-.75-2.16-.75s-1.6.25-2.19.74Z" style="fill: #333;"/>
      <path d="m103.43,272.22h3.39v2.95h-3.29v9.98h-3.84v-9.98h-2.04v-2.95h2.04v-.59c0-1.51.45-2.71,1.34-3.59.89-.89,2.15-1.33,3.77-1.33.57,0,1.12.06,1.64.18.52.12.95.3,1.29.53l-1.01,2.78c-.44-.31-.96-.47-1.55-.47-1.16,0-1.75.64-1.75,1.92v.57Z" style="fill: #333;"/>
      <path d="m118.55,273.19c1.1.98,1.65,2.45,1.65,4.41v7.55h-3.59v-1.65c-.72,1.23-2.07,1.84-4.03,1.84-1.02,0-1.9-.17-2.64-.52-.75-.34-1.32-.82-1.71-1.43s-.59-1.29-.59-2.07c0-1.23.46-2.2,1.39-2.9.93-.7,2.36-1.06,4.29-1.06h3.05c0-.84-.25-1.48-.76-1.93-.51-.45-1.27-.68-2.29-.68-.71,0-1.4.11-2.08.33-.68.22-1.26.52-1.73.9l-1.38-2.68c.72-.51,1.59-.9,2.59-1.18,1.01-.28,2.04-.42,3.11-.42,2.05,0,3.62.49,4.72,1.46Zm-3.27,9.12c.51-.3.87-.75,1.08-1.34v-1.35h-2.63c-1.57,0-2.36.52-2.36,1.55,0,.49.19.88.58,1.17s.91.43,1.59.43,1.24-.15,1.75-.45Z" style="fill: #333;"/>
      <path d="m137,271.92v13.23h-3.64v-1.57c-.51.57-1.12,1.01-1.82,1.32-.71.3-1.47.45-2.29.45-1.74,0-3.12-.5-4.13-1.5-1.02-1-1.52-2.48-1.52-4.45v-7.48h3.84v6.91c0,2.13.89,3.2,2.68,3.2.92,0,1.66-.3,2.21-.9.56-.6.84-1.49.84-2.67v-6.54h3.84Z" style="fill: #333;"/>
      <path d="m140.56,266.9h3.84v18.25h-3.84v-18.25Z" style="fill: #333;"/>
      <path d="m157.46,284.51c-.38.28-.84.49-1.39.63-.55.14-1.13.21-1.73.21-1.57,0-2.79-.4-3.65-1.2-.86-.8-1.29-1.98-1.29-3.54v-5.43h-2.04v-2.95h2.04v-3.22h3.84v3.22h3.29v2.95h-3.29v5.39c0,.56.14.99.43,1.29.29.3.69.46,1.22.46.61,0,1.12-.16,1.55-.49l1.03,2.71Z" style="fill: #333;"/>
    </g>
  </g>
  <g>
    <g>
      <rect x="4.17" y="390.57" width="211.12" height="56.3" style="fill: #bdbdbd;"/>
      <path d="m215.29,390.57v56.3H4.17v-56.3h211.12m4.17-4.17H0v64.64h219.47v-64.64h0Z" style="fill: #333;"/>
    </g>
    <g>
      <path d="m91.38,425.9l-.02-10.33-5.07,8.51h-1.79l-5.04-8.29v10.11h-3.74v-17.21h3.3l6.44,10.7,6.34-10.7h3.27l.05,17.21h-3.74Z" style="fill: #333;"/>
      <path d="m101.48,425.23c-1.11-.58-1.97-1.39-2.59-2.42-.62-1.03-.93-2.21-.93-3.52s.31-2.48.93-3.52c.62-1.03,1.49-1.84,2.59-2.42,1.11-.58,2.36-.87,3.75-.87s2.64.29,3.74.87c1.1.58,1.96,1.39,2.58,2.42.62,1.03.93,2.21.93,3.52s-.31,2.48-.93,3.52c-.62,1.03-1.48,1.84-2.58,2.42-1.1.58-2.34.87-3.74.87s-2.64-.29-3.75-.87Zm6.17-3.27c.63-.66.95-1.55.95-2.67s-.32-2-.95-2.67c-.63-.66-1.44-1-2.42-1s-1.79.33-2.43,1c-.64.66-.96,1.55-.96,2.67s.32,2,.96,2.67c.64.66,1.45,1,2.43,1s1.79-.33,2.42-1Z" style="fill: #333;"/>
      <path d="m128.51,407.65v18.25h-3.66v-1.52c-.95,1.15-2.33,1.72-4.13,1.72-1.25,0-2.37-.28-3.38-.84-1.01-.56-1.8-1.35-2.37-2.38-.57-1.03-.86-2.23-.86-3.59s.29-2.56.86-3.59c.57-1.03,1.36-1.83,2.37-2.39,1.01-.56,2.14-.84,3.38-.84,1.69,0,3.01.53,3.96,1.6v-6.42h3.84Zm-4.72,14.3c.64-.66.96-1.55.96-2.67s-.32-2-.96-2.67c-.64-.66-1.44-1-2.41-1s-1.8.33-2.43,1c-.64.66-.96,1.55-.96,2.67s.32,2,.96,2.67c.64.66,1.45,1,2.43,1s1.77-.33,2.41-1Z" style="fill: #333;"/>
      <path d="m144.94,420.37h-10.01c.18.82.61,1.47,1.28,1.94s1.51.71,2.51.71c.69,0,1.3-.1,1.83-.31.53-.21,1.03-.53,1.49-.97l2.04,2.21c-1.25,1.43-3.07,2.14-5.46,2.14-1.49,0-2.81-.29-3.96-.87-1.15-.58-2.03-1.39-2.66-2.42-.62-1.03-.93-2.21-.93-3.52s.31-2.46.92-3.5,1.46-1.85,2.53-2.43c1.07-.58,2.27-.87,3.6-.87s2.47.28,3.52.84c1.05.56,1.87,1.36,2.47,2.4.6,1.04.9,2.25.9,3.63,0,.05-.02.39-.07,1.03Zm-8.98-4.25c-.59.49-.95,1.16-1.08,2.02h6.52c-.13-.84-.49-1.5-1.08-2-.59-.5-1.31-.75-2.16-.75s-1.6.25-2.19.74Z" style="fill: #333;"/>
    </g>
  </g>
  <rect x="256.26" y="24.62" width="2.5" height="415.21" style="fill: #d5d5d5;"/>
  <rect x="298.49" y="24.62" width="2.5" height="415.21" style="fill: #d5d5d5;"/>
  <rect x="340.71" y="24.62" width="2.5" height="415.21" style="fill: #d5d5d5;"/>
  <rect x="382.94" y="24.62" width="2.5" height="415.21" style="fill: #d5d5d5;"/>
  <rect x="425.16" y="24.62" width="2.5" height="415.21" style="fill: #d5d5d5;"/>
  <rect x="467.39" y="24.62" width="2.5" height="415.21" style="fill: #d5d5d5;"/>
  <rect x="509.61" y="24.62" width="2.5" height="415.21" style="fill: #d5d5d5;"/>
  <rect x="551.84" y="24.62" width="2.5" height="415.21" style="fill: #d5d5d5;"/>
  <rect x="594.06" y="24.62" width="2.5" height="415.21" style="fill: #d5d5d5;"/>
  <rect x="636.29" y="24.62" width="2.5" height="415.21" style="fill: #d5d5d5;"/>
  <rect x="678.51" y="24.62" width="2.5" height="415.21" style="fill: #d5d5d5;"/>
  <rect x="720.74" y="24.62" width="2.5" height="415.21" style="fill: #d5d5d5;"/>
  <rect x="762.96" y="24.62" width="2.5" height="415.21" style="fill: #d5d5d5;"/>
  <rect x="805.19" y="24.62" width="2.5" height="415.21" style="fill: #d5d5d5;"/>
  <rect x="847.41" y="24.62" width="2.5" height="415.21" style="fill: #d5d5d5;"/>
  <rect x="889.64" y="24.62" width="2.5" height="415.21" style="fill: #d5d5d5;"/>
  <rect x="931.86" y="24.62" width="2.5" height="415.21" style="fill: #d5d5d5;"/>
  <rect x="974.09" y="24.62" width="2.5" height="415.21" style="fill: #d5d5d5;"/>
  <g>
    <path d="m166.57,12.85c-.26.19-.58.33-.95.43-.38.1-.77.14-1.19.14-1.08,0-1.92-.28-2.51-.83-.59-.55-.89-1.36-.89-2.43v-3.73h-1.4v-2.03h1.4v-2.21h2.63v2.21h2.26v2.03h-2.26v3.7c0,.38.1.68.3.89s.48.31.84.31c.42,0,.77-.11,1.06-.34l.71,1.86Z" style="fill: #333;"/>
    <path d="m168.2,2.52c-.3-.28-.46-.63-.46-1.05s.15-.77.46-1.05c.3-.28.7-.42,1.18-.42s.88.14,1.18.41c.3.27.46.61.46,1.01,0,.44-.15.8-.46,1.09s-.7.43-1.18.43-.88-.14-1.18-.42Zm-.13,1.69h2.63v9.09h-2.63V4.21Z" style="fill: #333;"/>
    <path d="m187.49,5.08c.67.67,1.01,1.67,1.01,3.01v5.2h-2.64v-4.8c0-.72-.15-1.26-.45-1.61-.3-.35-.72-.53-1.28-.53-.62,0-1.11.2-1.47.6-.36.4-.54.99-.54,1.78v4.56h-2.63v-4.8c0-1.43-.57-2.15-1.72-2.15-.61,0-1.09.2-1.45.6-.36.4-.54.99-.54,1.78v4.56h-2.63V4.21h2.52v1.05c.34-.38.75-.68,1.24-.88s1.03-.3,1.61-.3c.64,0,1.22.13,1.74.38s.93.62,1.25,1.11c.37-.47.84-.84,1.41-1.1.57-.26,1.19-.39,1.87-.39,1.14,0,2.04.34,2.71,1.01Z" style="fill: #333;"/>
    <path d="m199.81,9.49h-6.87c.12.56.42,1.01.88,1.33.46.33,1.04.49,1.72.49.47,0,.89-.07,1.26-.21.37-.14.71-.36,1.02-.67l1.4,1.52c-.86.98-2.11,1.47-3.75,1.47-1.02,0-1.93-.2-2.72-.6s-1.4-.95-1.82-1.66c-.43-.71-.64-1.51-.64-2.42s.21-1.69.63-2.41c.42-.71,1-1.27,1.74-1.67.74-.4,1.56-.6,2.47-.6s1.69.19,2.42.57c.72.38,1.29.93,1.7,1.65.41.72.62,1.55.62,2.49,0,.03-.02.27-.05.71Zm-6.17-2.92c-.41.34-.65.8-.74,1.38h4.48c-.09-.57-.34-1.03-.74-1.38-.41-.34-.9-.52-1.49-.52s-1.1.17-1.5.51Z" style="fill: #333;"/>
    <path d="m214.27,6.28v2.2l-8.04,3.06v-2.11l5.62-2.04-5.62-2.06v-2.09l8.04,3.06Z" style="fill: #333;"/>
  </g>
  <path d="m260.55,6.33c.62.3,1.11.73,1.47,1.29.36.56.54,1.2.54,1.93,0,.79-.2,1.48-.59,2.08-.39.6-.93,1.06-1.61,1.38s-1.44.48-2.27.48c-1.66,0-2.95-.51-3.88-1.52-.93-1.01-1.4-2.46-1.4-4.34,0-1.34.25-2.49.76-3.45.51-.96,1.21-1.68,2.12-2.18.91-.5,1.96-.74,3.15-.74.63,0,1.24.07,1.82.21s1.07.34,1.48.6l-1.01,2.01c-.59-.39-1.32-.59-2.21-.59-1,0-1.8.29-2.38.88s-.9,1.44-.95,2.55c.7-.7,1.67-1.05,2.92-1.05.75,0,1.44.15,2.06.46Zm-1.19,4.64c.37-.31.55-.74.55-1.28s-.18-.97-.55-1.29c-.37-.32-.85-.48-1.46-.48s-1.09.17-1.47.5-.57.76-.57,1.27.19.94.56,1.27c.37.33.88.49,1.52.49.58,0,1.06-.16,1.43-.47Z" style="fill: #333;"/>
  <path d="m304.42,1.47v1.77l-4.39,10.05h-2.97l4.24-9.59h-3.92v1.93h-2.43V1.47h9.48Z" style="fill: #333;"/>
  <path d="m346.49,8.23c.31.47.46,1.02.46,1.64,0,.73-.21,1.37-.62,1.92-.42.55-1,.97-1.76,1.27-.75.3-1.63.45-2.62.45s-1.86-.15-2.61-.45c-.75-.3-1.33-.72-1.74-1.27-.41-.55-.62-1.19-.62-1.92,0-.62.15-1.17.46-1.64.31-.47.75-.86,1.33-1.15-.44-.27-.78-.61-1.01-1.02s-.35-.88-.35-1.41c0-.69.19-1.28.57-1.79.38-.51.92-.9,1.6-1.17.69-.28,1.47-.41,2.36-.41s1.7.14,2.39.41,1.23.67,1.61,1.17.57,1.1.57,1.79c0,.53-.12,1-.35,1.41s-.58.75-1.03,1.02c.59.29,1.03.68,1.34,1.15Zm-2.91,2.8c.4-.31.6-.72.6-1.24s-.2-.93-.6-1.23c-.4-.3-.94-.46-1.63-.46s-1.21.15-1.6.46-.59.72-.59,1.23.2.95.59,1.25c.39.3.93.46,1.6.46s1.23-.15,1.63-.46Zm-2.96-7.35c-.33.26-.5.63-.5,1.09s.16.81.49,1.06c.33.26.77.39,1.33.39s1.01-.13,1.35-.39c.34-.26.51-.61.51-1.06s-.17-.82-.51-1.09c-.34-.26-.79-.4-1.35-.4s-.99.13-1.33.4Z" style="fill: #333;"/>
  <path d="m387.51,2.78c.93,1.01,1.4,2.46,1.4,4.35,0,1.34-.25,2.49-.75,3.45s-1.21,1.68-2.12,2.18c-.91.5-1.97.74-3.16.74-.63,0-1.23-.07-1.81-.21s-1.06-.34-1.47-.6l1.01-2.01c.57.39,1.31.59,2.21.59,1,0,1.8-.3,2.38-.89s.9-1.44.95-2.56c-.71.71-1.69,1.06-2.94,1.06-.75,0-1.44-.15-2.06-.46s-1.11-.73-1.47-1.29c-.36-.56-.54-1.2-.54-1.93,0-.79.2-1.48.59-2.08.39-.6.93-1.06,1.61-1.38.68-.32,1.44-.48,2.27-.48,1.66,0,2.95.5,3.88,1.51Zm-2.22,3.56c.38-.33.57-.76.57-1.28s-.18-.94-.55-1.27c-.37-.33-.87-.49-1.51-.49-.59,0-1.06.16-1.43.47-.37.32-.55.74-.55,1.28s.18.97.55,1.29c.37.32.85.48,1.46.48s1.08-.17,1.46-.5Z" style="fill: #333;"/>
  <g>
    <path d="m422.59,1.47v11.82h-2.74V3.66h-2.36V1.47h5.1Z" style="fill: #333;"/>
    <path d="m427.1,12.77c-.77-.48-1.37-1.19-1.8-2.1-.43-.92-.65-2.01-.65-3.29s.22-2.37.65-3.29c.43-.92,1.03-1.62,1.8-2.1.77-.48,1.64-.73,2.62-.73s1.85.24,2.62.73c.77.48,1.37,1.19,1.8,2.1.43.92.65,2.01.65,3.29s-.22,2.37-.65,3.29c-.43.92-1.03,1.62-1.8,2.1-.77.48-1.64.73-2.62.73s-1.85-.24-2.62-.73Zm4.32-2.52c.41-.62.62-1.58.62-2.87s-.21-2.25-.62-2.87c-.41-.62-.98-.93-1.7-.93s-1.27.31-1.68.93-.62,1.58-.62,2.87.21,2.25.62,2.87.97.93,1.68.93,1.29-.31,1.7-.93Z" style="fill: #333;"/>
  </g>
  <g>
    <path d="m467.24,1.47v11.82h-2.74V3.66h-2.36V1.47h5.1Z" style="fill: #333;"/>
    <path d="m473.86,1.47v11.82h-2.74V3.66h-2.36V1.47h5.1Z" style="fill: #333;"/>
  </g>
  <g>
    <path d="m507.79,1.47v11.82h-2.74V3.66h-2.36V1.47h5.1Z" style="fill: #333;"/>
    <path d="m518.69,11.06v2.23h-8.93v-1.77l4.56-4.31c.48-.46.81-.86.98-1.19s.25-.66.25-.99c0-.47-.16-.84-.48-1.09-.32-.25-.79-.38-1.41-.38-.52,0-.99.1-1.4.3-.42.2-.77.49-1.05.89l-1.99-1.28c.46-.69,1.1-1.22,1.91-1.61.81-.39,1.74-.58,2.79-.58.88,0,1.65.14,2.31.43.66.29,1.17.69,1.54,1.22s.55,1.14.55,1.85c0,.64-.13,1.24-.41,1.81s-.79,1.21-1.57,1.93l-2.72,2.57h5.08Z" style="fill: #333;"/>
  </g>
  <g>
    <path d="m550,1.47v11.82h-2.74V3.66h-2.36V1.47h5.1Z" style="fill: #333;"/>
    <path d="m559.97,7.44c.55.6.83,1.35.83,2.24,0,.69-.18,1.32-.54,1.9-.36.58-.91,1.04-1.65,1.39-.74.35-1.64.52-2.71.52-.83,0-1.65-.11-2.46-.33-.8-.22-1.49-.53-2.05-.94l1.06-2.09c.45.34.97.6,1.56.79s1.2.28,1.82.28c.69,0,1.23-.13,1.62-.4.39-.26.59-.64.59-1.12,0-.97-.74-1.45-2.21-1.45h-1.25v-1.81l2.43-2.75h-5.03V1.47h8.28v1.77l-2.67,3.04c1.04.17,1.83.55,2.38,1.16Z" style="fill: #333;"/>
  </g>
  <g>
    <path d="m591.41,1.47v11.82h-2.74V3.66h-2.36V1.47h5.1Z" style="fill: #333;"/>
    <path d="m604.3,10.81h-1.93v2.48h-2.67v-2.48h-6.37v-1.84l5.57-7.5h2.87l-5.17,7.11h3.18v-2.21h2.58v2.21h1.93v2.23Z" style="fill: #333;"/>
  </g>
  <g>
    <path d="m634.43,1.47v11.82h-2.74V3.66h-2.36V1.47h5.1Z" style="fill: #333;"/>
    <path d="m644.23,6.91c.79.66,1.19,1.55,1.19,2.67,0,.72-.18,1.38-.54,1.97s-.91,1.06-1.65,1.42c-.74.35-1.65.53-2.73.53-.83,0-1.65-.11-2.46-.33-.8-.22-1.49-.53-2.05-.94l1.08-2.09c.45.34.97.6,1.55.79.58.19,1.19.28,1.81.28.69,0,1.23-.14,1.62-.41.39-.27.59-.65.59-1.13s-.21-.89-.62-1.15c-.41-.26-1.12-.39-2.14-.39h-3.02l.61-6.65h7.21v2.2h-4.93l-.19,2.25h.96c1.67,0,2.9.33,3.69,1Z" style="fill: #333;"/>
  </g>
  <g>
    <path d="m676.3,1.47v11.82h-2.74V3.66h-2.36V1.47h5.1Z" style="fill: #333;"/>
    <path d="m686.11,6.33c.62.3,1.11.73,1.47,1.29.36.56.54,1.2.54,1.93,0,.79-.2,1.48-.59,2.08-.39.6-.93,1.06-1.61,1.38s-1.44.48-2.27.48c-1.66,0-2.95-.51-3.88-1.52-.93-1.01-1.4-2.46-1.4-4.34,0-1.34.25-2.49.76-3.45s1.21-1.68,2.12-2.18c.91-.5,1.96-.74,3.15-.74.63,0,1.24.07,1.82.21s1.07.34,1.48.6l-1.01,2.01c-.59-.39-1.32-.59-2.21-.59-1,0-1.8.29-2.38.88-.59.59-.9,1.44-.95,2.55.7-.7,1.67-1.05,2.92-1.05.75,0,1.44.15,2.06.46Zm-1.19,4.64c.37-.31.55-.74.55-1.28s-.18-.97-.55-1.29c-.37-.32-.85-.48-1.46-.48s-1.09.17-1.47.5-.57.76-.57,1.27.19.94.56,1.27c.37.33.88.49,1.52.49.59,0,1.06-.16,1.43-.47Z" style="fill: #333;"/>
  </g>
  <g>
    <path d="m718.67,1.47v11.82h-2.74V3.66h-2.36V1.47h5.1Z" style="fill: #333;"/>
    <path d="m729.98,1.47v1.77l-4.39,10.05h-2.97l4.24-9.59h-3.92v1.93h-2.43V1.47h9.47Z" style="fill: #333;"/>
  </g>
  <g>
    <path d="m760.55,1.47v11.82h-2.74V3.66h-2.36V1.47h5.1Z" style="fill: #333;"/>
    <path d="m772.05,8.23c.31.47.46,1.02.46,1.64,0,.73-.21,1.37-.62,1.92-.42.55-1,.97-1.76,1.27-.75.3-1.63.45-2.62.45s-1.86-.15-2.61-.45c-.75-.3-1.33-.72-1.74-1.27-.41-.55-.62-1.19-.62-1.92,0-.62.16-1.17.46-1.64.31-.47.75-.86,1.33-1.15-.44-.27-.78-.61-1.01-1.02s-.35-.88-.35-1.41c0-.69.19-1.28.57-1.79s.92-.9,1.6-1.17c.69-.28,1.47-.41,2.36-.41s1.7.14,2.39.41c.69.28,1.23.67,1.61,1.17s.57,1.1.57,1.79c0,.53-.12,1-.35,1.41s-.58.75-1.03,1.02c.58.29,1.03.68,1.34,1.15Zm-2.91,2.8c.4-.31.6-.72.6-1.24s-.2-.93-.6-1.23-.94-.46-1.63-.46-1.21.15-1.6.46-.59.72-.59,1.23.2.95.59,1.25c.39.3.93.46,1.6.46s1.23-.15,1.63-.46Zm-2.96-7.35c-.33.26-.5.63-.5,1.09s.16.81.49,1.06c.33.26.77.39,1.33.39s1.01-.13,1.35-.39c.34-.26.51-.61.51-1.06s-.17-.82-.51-1.09-.79-.4-1.35-.4-.99.13-1.33.4Z" style="fill: #333;"/>
  </g>
  <g>
    <path d="m802.98,1.47v11.82h-2.74V3.66h-2.36V1.47h5.1Z" style="fill: #333;"/>
    <path d="m813.08,2.78c.93,1.01,1.4,2.46,1.4,4.35,0,1.34-.25,2.49-.75,3.45s-1.21,1.68-2.12,2.18c-.91.5-1.96.74-3.16.74-.63,0-1.23-.07-1.81-.21s-1.06-.34-1.47-.6l1.01-2.01c.57.39,1.31.59,2.21.59,1,0,1.8-.3,2.38-.89.58-.59.9-1.44.95-2.56-.71.71-1.69,1.06-2.94,1.06-.75,0-1.44-.15-2.06-.46s-1.11-.73-1.47-1.29c-.36-.56-.54-1.2-.54-1.93,0-.79.2-1.48.59-2.08.39-.6.93-1.06,1.61-1.38.68-.32,1.44-.48,2.27-.48,1.66,0,2.95.5,3.88,1.51Zm-2.22,3.56c.38-.33.57-.76.57-1.28s-.18-.94-.55-1.27-.87-.49-1.51-.49c-.59,0-1.06.16-1.43.47-.37.32-.55.74-.55,1.28s.18.97.55,1.29c.37.32.85.48,1.46.48s1.08-.17,1.46-.5Z" style="fill: #333;"/>
  </g>
  <g>
    <path d="m847.46,11.06v2.23h-8.93v-1.77l4.56-4.31c.48-.46.81-.86.98-1.19s.25-.66.25-.99c0-.47-.16-.84-.48-1.09-.32-.25-.79-.38-1.41-.38-.52,0-.99.1-1.4.3-.42.2-.77.49-1.05.89l-1.99-1.28c.46-.69,1.1-1.22,1.91-1.61.81-.39,1.74-.58,2.79-.58.88,0,1.65.14,2.31.43.66.29,1.17.69,1.54,1.22s.55,1.14.55,1.85c0,.64-.13,1.24-.41,1.81s-.79,1.21-1.57,1.93l-2.72,2.57h5.08Z" style="fill: #333;"/>
    <path d="m851.01,12.77c-.77-.48-1.37-1.19-1.8-2.1-.43-.92-.65-2.01-.65-3.29s.22-2.37.65-3.29c.43-.92,1.03-1.62,1.8-2.1.77-.48,1.64-.73,2.62-.73s1.85.24,2.62.73c.77.48,1.37,1.19,1.8,2.1.43.92.65,2.01.65,3.29s-.22,2.37-.65,3.29c-.43.92-1.03,1.62-1.8,2.1-.77.48-1.64.73-2.62.73s-1.85-.24-2.62-.73Zm4.32-2.52c.41-.62.62-1.58.62-2.87s-.21-2.25-.62-2.87-.98-.93-1.7-.93-1.27.31-1.68.93-.62,1.58-.62,2.87.21,2.25.62,2.87.97.93,1.68.93,1.29-.31,1.7-.93Z" style="fill: #333;"/>
  </g>
  <g>
    <path d="m892.1,11.06v2.23h-8.93v-1.77l4.56-4.31c.48-.46.81-.86.98-1.19s.25-.66.25-.99c0-.47-.16-.84-.48-1.09-.32-.25-.79-.38-1.41-.38-.52,0-.99.1-1.4.3-.42.2-.77.49-1.05.89l-1.99-1.28c.46-.69,1.1-1.22,1.91-1.61.81-.39,1.74-.58,2.79-.58.88,0,1.65.14,2.31.43.66.29,1.17.69,1.54,1.22s.55,1.14.55,1.85c0,.64-.13,1.24-.41,1.81s-.79,1.21-1.57,1.93l-2.72,2.57h5.08Z" style="fill: #333;"/>
    <path d="m897.79,1.47v11.82h-2.74V3.66h-2.36V1.47h5.1Z" style="fill: #333;"/>
  </g>
  <g>
    <path d="m932.65,11.06v2.23h-8.93v-1.77l4.56-4.31c.48-.46.81-.86.98-1.19s.25-.66.25-.99c0-.47-.16-.84-.48-1.09-.32-.25-.79-.38-1.41-.38-.52,0-.99.1-1.4.3-.42.2-.77.49-1.05.89l-1.99-1.28c.46-.69,1.1-1.22,1.91-1.61.81-.39,1.74-.58,2.79-.58.88,0,1.65.14,2.31.43.66.29,1.17.69,1.54,1.22s.55,1.14.55,1.85c0,.64-.13,1.24-.41,1.81s-.79,1.21-1.57,1.93l-2.72,2.57h5.08Z" style="fill: #333;"/>
    <path d="m942.62,11.06v2.23h-8.93v-1.77l4.56-4.31c.48-.46.81-.86.98-1.19s.25-.66.25-.99c0-.47-.16-.84-.48-1.09-.32-.25-.79-.38-1.41-.38-.52,0-.99.1-1.4.3-.42.2-.77.49-1.05.89l-1.99-1.28c.46-.69,1.1-1.22,1.91-1.61.81-.39,1.74-.58,2.79-.58.88,0,1.65.14,2.31.43.66.29,1.17.69,1.54,1.22s.55,1.14.55,1.85c0,.64-.13,1.24-.41,1.81s-.79,1.21-1.57,1.93l-2.72,2.57h5.08Z" style="fill: #333;"/>
  </g>
  <g>
    <path d="m974.86,11.06v2.23h-8.93v-1.77l4.56-4.31c.48-.46.81-.86.98-1.19s.25-.66.25-.99c0-.47-.16-.84-.48-1.09-.32-.25-.79-.38-1.41-.38-.52,0-.99.1-1.4.3-.42.2-.77.49-1.05.89l-1.99-1.28c.46-.69,1.1-1.22,1.91-1.61.81-.39,1.74-.58,2.79-.58.88,0,1.65.14,2.31.43.66.29,1.17.69,1.54,1.22s.55,1.14.55,1.85c0,.64-.13,1.24-.41,1.81s-.79,1.21-1.57,1.93l-2.72,2.57h5.08Z" style="fill: #333;"/>
    <path d="m983.9,7.44c.55.6.83,1.35.83,2.24,0,.69-.18,1.32-.54,1.9-.36.58-.91,1.04-1.65,1.39-.74.35-1.64.52-2.71.52-.83,0-1.65-.11-2.46-.33-.8-.22-1.49-.53-2.05-.94l1.06-2.09c.45.34.97.6,1.56.79s1.2.28,1.82.28c.69,0,1.23-.13,1.62-.4.39-.26.59-.64.59-1.12,0-.97-.74-1.45-2.21-1.45h-1.25v-1.81l2.43-2.75h-5.03V1.47h8.28v1.77l-2.67,3.04c1.04.17,1.83.55,2.38,1.16Z" style="fill: #333;"/>
  </g>
  <rect x="257.51" y="256.86" width="717.82" height="42.22" style="fill: #dd222b;"/>
  <rect x="257.52" y="397.61" width="717.82" height="42.22" style="fill: #dd222b;"/>
  <rect x="341.96" y="158.33" width="591.15" height="42.22" style="fill: #32ba04;"/>
  <rect x="341.96" y="397.61" width="591.15" height="42.22" style="fill: #32ba04;"/>
  <rect x="426.41" y="59.81" width="126.68" height="42.22" style="fill: #ffe000;"/>
  <rect x="426.41" y="397.61" width="126.68" height="42.22" style="fill: #ffe000;"/>
  <rect x="637.54" y="59.81" width="211.13" height="42.22" style="fill: #ffe000;"/>
  <rect x="637.54" y="397.61" width="211.13" height="42.22" style="fill: #ffe000;"/>
  <g>
    <rect x="340.71" y="198.79" width="2.5" height=".83" style="fill: #32ba04;"/>
    <path d="m343.22,392.25h-2.5v-1.66h2.5v1.66Zm0-3.32h-2.5v-1.66h2.5v1.66Zm0-3.32h-2.5v-1.66h2.5v1.66Zm0-3.32h-2.5v-1.66h2.5v1.66Zm0-3.32h-2.5v-1.66h2.5v1.66Zm0-3.32h-2.5v-1.66h2.5v1.66Zm0-3.32h-2.5v-1.66h2.5v1.66Zm0-3.32h-2.5v-1.66h2.5v1.66Zm0-3.32h-2.5v-1.66h2.5v1.66Zm0-3.32h-2.5v-1.66h2.5v1.66Zm0-3.32h-2.5v-1.66h2.5v1.66Zm0-3.32h-2.5v-1.66h2.5v1.66Zm0-3.32h-2.5v-1.66h2.5v1.66Zm0-3.32h-2.5v-1.66h2.5v1.66Zm0-3.32h-2.5v-1.66h2.5v1.66Zm0-3.32h-2.5v-1.66h2.5v1.66Zm0-3.32h-2.5v-1.66h2.5v1.66Zm0-3.32h-2.5v-1.66h2.5v1.66Zm0-3.32h-2.5v-1.66h2.5v1.66Zm0-3.32h-2.5v-1.66h2.5v1.66Zm0-3.32h-2.5v-1.66h2.5v1.66Zm0-3.32h-2.5v-1.66h2.5v1.66Zm0-3.32h-2.5v-1.66h2.5v1.66Zm0-3.32h-2.5v-1.66h2.5v1.66Zm0-3.32h-2.5v-1.66h2.5v1.66Zm0-3.32h-2.5v-1.66h2.5v1.66Zm0-3.32h-2.5v-1.66h2.5v1.66Zm0-3.32h-2.5v-1.66h2.5v1.66Zm0-3.32h-2.5v-1.66h2.5v1.66Zm0-3.32h-2.5v-1.66h2.5v1.66Zm0-3.32h-2.5v-1.66h2.5v1.66Zm0-3.32h-2.5v-1.66h2.5v1.66Zm0-3.32h-2.5v-1.66h2.5v1.66Zm0-3.32h-2.5v-1.66h2.5v1.66Zm0-3.32h-2.5v-1.66h2.5v1.66Zm0-3.32h-2.5v-1.66h2.5v1.66Zm0-3.32h-2.5v-1.66h2.5v1.66Zm0-3.32h-2.5v-1.66h2.5v1.66Zm0-3.32h-2.5v-1.66h2.5v1.66Zm0-3.32h-2.5v-1.66h2.5v1.66Zm0-3.32h-2.5v-1.66h2.5v1.66Zm0-3.32h-2.5v-1.66h2.5v1.66Zm0-3.32h-2.5v-1.66h2.5v1.66Zm0-3.32h-2.5v-1.66h2.5v1.66Zm0-3.32h-2.5v-1.66h2.5v1.66Zm0-3.32h-2.5v-1.66h2.5v1.66Zm0-3.32h-2.5v-1.66h2.5v1.66Zm0-3.32h-2.5v-1.66h2.5v1.66Zm0-3.32h-2.5v-1.66h2.5v1.66Zm0-3.32h-2.5v-1.66h2.5v1.66Zm0-3.32h-2.5v-1.66h2.5v1.66Zm0-3.32h-2.5v-1.66h2.5v1.66Zm0-3.32h-2.5v-1.66h2.5v1.66Zm0-3.32h-2.5v-1.66h2.5v1.66Zm0-3.32h-2.5v-1.66h2.5v1.66Zm0-3.32h-2.5v-1.66h2.5v1.66Zm0-3.32h-2.5v-1.66h2.5v1.66Zm0-3.32h-2.5v-1.66h2.5v1.66Z" style="fill: #32ba04;"/>
    <rect x="340.71" y="393.91" width="2.5" height=".83" style="fill: #32ba04;"/>
    <polygon points="337.72 389.76 341.96 394.01 346.21 389.76 346.21 393.37 341.96 397.61 337.72 393.37 337.72 389.76" style="fill: #32ba04;"/>
  </g>
  <g>
    <rect x="256.26" y="299.08" width="2.5" height=".83" style="fill: #dd222b;"/>
    <path d="m258.77,392.27h-2.5v-1.65h2.5v1.65Zm0-3.3h-2.5v-1.65h2.5v1.65Zm0-3.3h-2.5v-1.65h2.5v1.65Zm0-3.3h-2.5v-1.65h2.5v1.65Zm0-3.3h-2.5v-1.65h2.5v1.65Zm0-3.3h-2.5v-1.65h2.5v1.65Zm0-3.3h-2.5v-1.65h2.5v1.65Zm0-3.3h-2.5v-1.65h2.5v1.65Zm0-3.3h-2.5v-1.65h2.5v1.65Zm0-3.3h-2.5v-1.65h2.5v1.65Zm0-3.3h-2.5v-1.65h2.5v1.65Zm0-3.3h-2.5v-1.65h2.5v1.65Zm0-3.3h-2.5v-1.65h2.5v1.65Zm0-3.3h-2.5v-1.65h2.5v1.65Zm0-3.3h-2.5v-1.65h2.5v1.65Zm0-3.3h-2.5v-1.65h2.5v1.65Zm0-3.3h-2.5v-1.65h2.5v1.65Zm0-3.3h-2.5v-1.65h2.5v1.65Zm0-3.3h-2.5v-1.65h2.5v1.65Zm0-3.3h-2.5v-1.65h2.5v1.65Zm0-3.3h-2.5v-1.65h2.5v1.65Zm0-3.3h-2.5v-1.65h2.5v1.65Zm0-3.3h-2.5v-1.65h2.5v1.65Zm0-3.3h-2.5v-1.65h2.5v1.65Zm0-3.3h-2.5v-1.65h2.5v1.65Zm0-3.3h-2.5v-1.65h2.5v1.65Zm0-3.3h-2.5v-1.65h2.5v1.65Zm0-3.3h-2.5v-1.65h2.5v1.65Z" style="fill: #dd222b;"/>
    <rect x="256.26" y="393.91" width="2.5" height=".83" style="fill: #dd222b;"/>
    <polygon points="253.27 389.76 257.52 394.01 261.76 389.76 261.76 393.37 257.52 397.61 253.27 393.37 253.27 389.76" style="fill: #dd222b;"/>
  </g>
  <g>
    <rect x="974.09" y="299.08" width="2.5" height=".83" style="fill: #dd222b;"/>
    <path d="m976.59,392.27h-2.5v-1.65h2.5v1.65Zm0-3.3h-2.5v-1.65h2.5v1.65Zm0-3.3h-2.5v-1.65h2.5v1.65Zm0-3.3h-2.5v-1.65h2.5v1.65Zm0-3.3h-2.5v-1.65h2.5v1.65Zm0-3.3h-2.5v-1.65h2.5v1.65Zm0-3.3h-2.5v-1.65h2.5v1.65Zm0-3.3h-2.5v-1.65h2.5v1.65Zm0-3.3h-2.5v-1.65h2.5v1.65Zm0-3.3h-2.5v-1.65h2.5v1.65Zm0-3.3h-2.5v-1.65h2.5v1.65Zm0-3.3h-2.5v-1.65h2.5v1.65Zm0-3.3h-2.5v-1.65h2.5v1.65Zm0-3.3h-2.5v-1.65h2.5v1.65Zm0-3.3h-2.5v-1.65h2.5v1.65Zm0-3.3h-2.5v-1.65h2.5v1.65Zm0-3.3h-2.5v-1.65h2.5v1.65Zm0-3.3h-2.5v-1.65h2.5v1.65Zm0-3.3h-2.5v-1.65h2.5v1.65Zm0-3.3h-2.5v-1.65h2.5v1.65Zm0-3.3h-2.5v-1.65h2.5v1.65Zm0-3.3h-2.5v-1.65h2.5v1.65Zm0-3.3h-2.5v-1.65h2.5v1.65Zm0-3.3h-2.5v-1.65h2.5v1.65Zm0-3.3h-2.5v-1.65h2.5v1.65Zm0-3.3h-2.5v-1.65h2.5v1.65Zm0-3.3h-2.5v-1.65h2.5v1.65Zm0-3.3h-2.5v-1.65h2.5v1.65Z" style="fill: #dd222b;"/>
    <rect x="974.09" y="393.91" width="2.5" height=".83" style="fill: #dd222b;"/>
    <polygon points="971.1 389.76 975.34 394.01 979.58 389.76 979.58 393.37 975.34 397.61 971.1 393.37 971.1 389.76" style="fill: #dd222b;"/>
  </g>
  <g>
    <rect x="425.17" y="102.03" width="2.5" height=".83" style="fill: #ffe000;"/>
    <path d="m427.67,392.25h-2.5v-1.66h2.5v1.66Zm0-3.33h-2.5v-1.66h2.5v1.66Zm0-3.33h-2.5v-1.66h2.5v1.66Zm0-3.33h-2.5v-1.66h2.5v1.66Zm0-3.33h-2.5v-1.66h2.5v1.66Zm0-3.33h-2.5v-1.66h2.5v1.66Zm0-3.33h-2.5v-1.66h2.5v1.66Zm0-3.33h-2.5v-1.66h2.5v1.66Zm0-3.33h-2.5v-1.66h2.5v1.66Zm0-3.33h-2.5v-1.66h2.5v1.66Zm0-3.33h-2.5v-1.66h2.5v1.66Zm0-3.33h-2.5v-1.66h2.5v1.66Zm0-3.33h-2.5v-1.66h2.5v1.66Zm0-3.33h-2.5v-1.66h2.5v1.66Zm0-3.33h-2.5v-1.66h2.5v1.66Zm0-3.33h-2.5v-1.66h2.5v1.66Zm0-3.33h-2.5v-1.66h2.5v1.66Zm0-3.33h-2.5v-1.66h2.5v1.66Zm0-3.33h-2.5v-1.66h2.5v1.66Zm0-3.33h-2.5v-1.66h2.5v1.66Zm0-3.33h-2.5v-1.66h2.5v1.66Zm0-3.33h-2.5v-1.66h2.5v1.66Zm0-3.33h-2.5v-1.66h2.5v1.66Zm0-3.33h-2.5v-1.66h2.5v1.66Zm0-3.33h-2.5v-1.66h2.5v1.66Zm0-3.33h-2.5v-1.66h2.5v1.66Zm0-3.33h-2.5v-1.66h2.5v1.66Zm0-3.33h-2.5v-1.66h2.5v1.66Zm0-3.33h-2.5v-1.66h2.5v1.66Zm0-3.33h-2.5v-1.66h2.5v1.66Zm0-3.33h-2.5v-1.66h2.5v1.66Zm0-3.33h-2.5v-1.66h2.5v1.66Zm0-3.33h-2.5v-1.66h2.5v1.66Zm0-3.33h-2.5v-1.66h2.5v1.66Zm0-3.33h-2.5v-1.66h2.5v1.66Zm0-3.33h-2.5v-1.66h2.5v1.66Zm0-3.33h-2.5v-1.66h2.5v1.66Zm0-3.33h-2.5v-1.66h2.5v1.66Zm0-3.33h-2.5v-1.66h2.5v1.66Zm0-3.33h-2.5v-1.66h2.5v1.66Zm0-3.33h-2.5v-1.66h2.5v1.66Zm0-3.33h-2.5v-1.66h2.5v1.66Zm0-3.33h-2.5v-1.66h2.5v1.66Zm0-3.33h-2.5v-1.66h2.5v1.66Zm0-3.33h-2.5v-1.66h2.5v1.66Zm0-3.33h-2.5v-1.66h2.5v1.66Zm0-3.33h-2.5v-1.66h2.5v1.66Zm0-3.33h-2.5v-1.66h2.5v1.66Zm0-3.33h-2.5v-1.66h2.5v1.66Zm0-3.33h-2.5v-1.66h2.5v1.66Zm0-3.33h-2.5v-1.66h2.5v1.66Zm0-3.33h-2.5v-1.66h2.5v1.66Zm0-3.33h-2.5v-1.66h2.5v1.66Zm0-3.33h-2.5v-1.66h2.5v1.66Zm0-3.33h-2.5v-1.66h2.5v1.66Zm0-3.33h-2.5v-1.66h2.5v1.66Zm0-3.33h-2.5v-1.66h2.5v1.66Zm0-3.33h-2.5v-1.66h2.5v1.66Zm0-3.33h-2.5v-1.66h2.5v1.66Zm0-3.33h-2.5v-1.66h2.5v1.66Zm0-3.33h-2.5v-1.66h2.5v1.66Zm0-3.33h-2.5v-1.66h2.5v1.66Zm0-3.33h-2.5v-1.66h2.5v1.66Zm0-3.33h-2.5v-1.66h2.5v1.66Zm0-3.33h-2.5v-1.66h2.5v1.66Zm0-3.33h-2.5v-1.66h2.5v1.66Zm0-3.33h-2.5v-1.66h2.5v1.66Zm0-3.33h-2.5v-1.66h2.5v1.66Zm0-3.33h-2.5v-1.66h2.5v1.66Zm0-3.33h-2.5v-1.66h2.5v1.66Zm0-3.33h-2.5v-1.66h2.5v1.66Zm0-3.33h-2.5v-1.66h2.5v1.66Zm0-3.33h-2.5v-1.66h2.5v1.66Zm0-3.33h-2.5v-1.66h2.5v1.66Zm0-3.33h-2.5v-1.66h2.5v1.66Zm0-3.33h-2.5v-1.66h2.5v1.66Zm0-3.33h-2.5v-1.66h2.5v1.66Zm0-3.33h-2.5v-1.66h2.5v1.66Zm0-3.33h-2.5v-1.66h2.5v1.66Zm0-3.33h-2.5v-1.66h2.5v1.66Zm0-3.33h-2.5v-1.66h2.5v1.66Zm0-3.33h-2.5v-1.66h2.5v1.66Zm0-3.33h-2.5v-1.66h2.5v1.66Zm0-3.33h-2.5v-1.66h2.5v1.66Zm0-3.33h-2.5v-1.66h2.5v1.66Zm0-3.33h-2.5v-1.66h2.5v1.66Zm0-3.33h-2.5v-1.66h2.5v1.66Z" style="fill: #ffe000;"/>
    <rect x="425.17" y="393.91" width="2.5" height=".83" style="fill: #ffe000;"/>
    <polygon points="422.17 389.76 426.42 394.01 430.66 389.76 430.66 393.37 426.42 397.61 422.17 393.37 422.17 389.76" style="fill: #ffe000;"/>
  </g>
  <g>
    <rect x="551.84" y="102.03" width="2.5" height=".83" style="fill: #ffe000;"/>
    <path d="m554.34,392.25h-2.5v-1.66h2.5v1.66Zm0-3.33h-2.5v-1.66h2.5v1.66Zm0-3.33h-2.5v-1.66h2.5v1.66Zm0-3.33h-2.5v-1.66h2.5v1.66Zm0-3.33h-2.5v-1.66h2.5v1.66Zm0-3.33h-2.5v-1.66h2.5v1.66Zm0-3.33h-2.5v-1.66h2.5v1.66Zm0-3.33h-2.5v-1.66h2.5v1.66Zm0-3.33h-2.5v-1.66h2.5v1.66Zm0-3.33h-2.5v-1.66h2.5v1.66Zm0-3.33h-2.5v-1.66h2.5v1.66Zm0-3.33h-2.5v-1.66h2.5v1.66Zm0-3.33h-2.5v-1.66h2.5v1.66Zm0-3.33h-2.5v-1.66h2.5v1.66Zm0-3.33h-2.5v-1.66h2.5v1.66Zm0-3.33h-2.5v-1.66h2.5v1.66Zm0-3.33h-2.5v-1.66h2.5v1.66Zm0-3.33h-2.5v-1.66h2.5v1.66Zm0-3.33h-2.5v-1.66h2.5v1.66Zm0-3.33h-2.5v-1.66h2.5v1.66Zm0-3.33h-2.5v-1.66h2.5v1.66Zm0-3.33h-2.5v-1.66h2.5v1.66Zm0-3.33h-2.5v-1.66h2.5v1.66Zm0-3.33h-2.5v-1.66h2.5v1.66Zm0-3.33h-2.5v-1.66h2.5v1.66Zm0-3.33h-2.5v-1.66h2.5v1.66Zm0-3.33h-2.5v-1.66h2.5v1.66Zm0-3.33h-2.5v-1.66h2.5v1.66Zm0-3.33h-2.5v-1.66h2.5v1.66Zm0-3.33h-2.5v-1.66h2.5v1.66Zm0-3.33h-2.5v-1.66h2.5v1.66Zm0-3.33h-2.5v-1.66h2.5v1.66Zm0-3.33h-2.5v-1.66h2.5v1.66Zm0-3.33h-2.5v-1.66h2.5v1.66Zm0-3.33h-2.5v-1.66h2.5v1.66Zm0-3.33h-2.5v-1.66h2.5v1.66Zm0-3.33h-2.5v-1.66h2.5v1.66Zm0-3.33h-2.5v-1.66h2.5v1.66Zm0-3.33h-2.5v-1.66h2.5v1.66Zm0-3.33h-2.5v-1.66h2.5v1.66Zm0-3.33h-2.5v-1.66h2.5v1.66Zm0-3.33h-2.5v-1.66h2.5v1.66Zm0-3.33h-2.5v-1.66h2.5v1.66Zm0-3.33h-2.5v-1.66h2.5v1.66Zm0-3.33h-2.5v-1.66h2.5v1.66Zm0-3.33h-2.5v-1.66h2.5v1.66Zm0-3.33h-2.5v-1.66h2.5v1.66Zm0-3.33h-2.5v-1.66h2.5v1.66Zm0-3.33h-2.5v-1.66h2.5v1.66Zm0-3.33h-2.5v-1.66h2.5v1.66Zm0-3.33h-2.5v-1.66h2.5v1.66Zm0-3.33h-2.5v-1.66h2.5v1.66Zm0-3.33h-2.5v-1.66h2.5v1.66Zm0-3.33h-2.5v-1.66h2.5v1.66Zm0-3.33h-2.5v-1.66h2.5v1.66Zm0-3.33h-2.5v-1.66h2.5v1.66Zm0-3.33h-2.5v-1.66h2.5v1.66Zm0-3.33h-2.5v-1.66h2.5v1.66Zm0-3.33h-2.5v-1.66h2.5v1.66Zm0-3.33h-2.5v-1.66h2.5v1.66Zm0-3.33h-2.5v-1.66h2.5v1.66Zm0-3.33h-2.5v-1.66h2.5v1.66Zm0-3.33h-2.5v-1.66h2.5v1.66Zm0-3.33h-2.5v-1.66h2.5v1.66Zm0-3.33h-2.5v-1.66h2.5v1.66Zm0-3.33h-2.5v-1.66h2.5v1.66Zm0-3.33h-2.5v-1.66h2.5v1.66Zm0-3.33h-2.5v-1.66h2.5v1.66Zm0-3.33h-2.5v-1.66h2.5v1.66Zm0-3.33h-2.5v-1.66h2.5v1.66Zm0-3.33h-2.5v-1.66h2.5v1.66Zm0-3.33h-2.5v-1.66h2.5v1.66Zm0-3.33h-2.5v-1.66h2.5v1.66Zm0-3.33h-2.5v-1.66h2.5v1.66Zm0-3.33h-2.5v-1.66h2.5v1.66Zm0-3.33h-2.5v-1.66h2.5v1.66Zm0-3.33h-2.5v-1.66h2.5v1.66Zm0-3.33h-2.5v-1.66h2.5v1.66Zm0-3.33h-2.5v-1.66h2.5v1.66Zm0-3.33h-2.5v-1.66h2.5v1.66Zm0-3.33h-2.5v-1.66h2.5v1.66Zm0-3.33h-2.5v-1.66h2.5v1.66Zm0-3.33h-2.5v-1.66h2.5v1.66Zm0-3.33h-2.5v-1.66h2.5v1.66Zm0-3.33h-2.5v-1.66h2.5v1.66Zm0-3.33h-2.5v-1.66h2.5v1.66Zm0-3.33h-2.5v-1.66h2.5v1.66Z" style="fill: #ffe000;"/>
    <rect x="551.84" y="393.91" width="2.5" height=".83" style="fill: #ffe000;"/>
    <polygon points="548.85 389.76 553.09 394.01 557.33 389.76 557.33 393.37 553.09 397.61 548.85 393.37 548.85 389.76" style="fill: #ffe000;"/>
  </g>
  <g>
    <rect x="636.29" y="102.03" width="2.5" height=".83" style="fill: #ffe000;"/>
    <path d="m638.79,392.25h-2.5v-1.66h2.5v1.66Zm0-3.33h-2.5v-1.66h2.5v1.66Zm0-3.33h-2.5v-1.66h2.5v1.66Zm0-3.33h-2.5v-1.66h2.5v1.66Zm0-3.33h-2.5v-1.66h2.5v1.66Zm0-3.33h-2.5v-1.66h2.5v1.66Zm0-3.33h-2.5v-1.66h2.5v1.66Zm0-3.33h-2.5v-1.66h2.5v1.66Zm0-3.33h-2.5v-1.66h2.5v1.66Zm0-3.33h-2.5v-1.66h2.5v1.66Zm0-3.33h-2.5v-1.66h2.5v1.66Zm0-3.33h-2.5v-1.66h2.5v1.66Zm0-3.33h-2.5v-1.66h2.5v1.66Zm0-3.33h-2.5v-1.66h2.5v1.66Zm0-3.33h-2.5v-1.66h2.5v1.66Zm0-3.33h-2.5v-1.66h2.5v1.66Zm0-3.33h-2.5v-1.66h2.5v1.66Zm0-3.33h-2.5v-1.66h2.5v1.66Zm0-3.33h-2.5v-1.66h2.5v1.66Zm0-3.33h-2.5v-1.66h2.5v1.66Zm0-3.33h-2.5v-1.66h2.5v1.66Zm0-3.33h-2.5v-1.66h2.5v1.66Zm0-3.33h-2.5v-1.66h2.5v1.66Zm0-3.33h-2.5v-1.66h2.5v1.66Zm0-3.33h-2.5v-1.66h2.5v1.66Zm0-3.33h-2.5v-1.66h2.5v1.66Zm0-3.33h-2.5v-1.66h2.5v1.66Zm0-3.33h-2.5v-1.66h2.5v1.66Zm0-3.33h-2.5v-1.66h2.5v1.66Zm0-3.33h-2.5v-1.66h2.5v1.66Zm0-3.33h-2.5v-1.66h2.5v1.66Zm0-3.33h-2.5v-1.66h2.5v1.66Zm0-3.33h-2.5v-1.66h2.5v1.66Zm0-3.33h-2.5v-1.66h2.5v1.66Zm0-3.33h-2.5v-1.66h2.5v1.66Zm0-3.33h-2.5v-1.66h2.5v1.66Zm0-3.33h-2.5v-1.66h2.5v1.66Zm0-3.33h-2.5v-1.66h2.5v1.66Zm0-3.33h-2.5v-1.66h2.5v1.66Zm0-3.33h-2.5v-1.66h2.5v1.66Zm0-3.33h-2.5v-1.66h2.5v1.66Zm0-3.33h-2.5v-1.66h2.5v1.66Zm0-3.33h-2.5v-1.66h2.5v1.66Zm0-3.33h-2.5v-1.66h2.5v1.66Zm0-3.33h-2.5v-1.66h2.5v1.66Zm0-3.33h-2.5v-1.66h2.5v1.66Zm0-3.33h-2.5v-1.66h2.5v1.66Zm0-3.33h-2.5v-1.66h2.5v1.66Zm0-3.33h-2.5v-1.66h2.5v1.66Zm0-3.33h-2.5v-1.66h2.5v1.66Zm0-3.33h-2.5v-1.66h2.5v1.66Zm0-3.33h-2.5v-1.66h2.5v1.66Zm0-3.33h-2.5v-1.66h2.5v1.66Zm0-3.33h-2.5v-1.66h2.5v1.66Zm0-3.33h-2.5v-1.66h2.5v1.66Zm0-3.33h-2.5v-1.66h2.5v1.66Zm0-3.33h-2.5v-1.66h2.5v1.66Zm0-3.33h-2.5v-1.66h2.5v1.66Zm0-3.33h-2.5v-1.66h2.5v1.66Zm0-3.33h-2.5v-1.66h2.5v1.66Zm0-3.33h-2.5v-1.66h2.5v1.66Zm0-3.33h-2.5v-1.66h2.5v1.66Zm0-3.33h-2.5v-1.66h2.5v1.66Zm0-3.33h-2.5v-1.66h2.5v1.66Zm0-3.33h-2.5v-1.66h2.5v1.66Zm0-3.33h-2.5v-1.66h2.5v1.66Zm0-3.33h-2.5v-1.66h2.5v1.66Zm0-3.33h-2.5v-1.66h2.5v1.66Zm0-3.33h-2.5v-1.66h2.5v1.66Zm0-3.33h-2.5v-1.66h2.5v1.66Zm0-3.33h-2.5v-1.66h2.5v1.66Zm0-3.33h-2.5v-1.66h2.5v1.66Zm0-3.33h-2.5v-1.66h2.5v1.66Zm0-3.33h-2.5v-1.66h2.5v1.66Zm0-3.33h-2.5v-1.66h2.5v1.66Zm0-3.33h-2.5v-1.66h2.5v1.66Zm0-3.33h-2.5v-1.66h2.5v1.66Zm0-3.33h-2.5v-1.66h2.5v1.66Zm0-3.33h-2.5v-1.66h2.5v1.66Zm0-3.33h-2.5v-1.66h2.5v1.66Zm0-3.33h-2.5v-1.66h2.5v1.66Zm0-3.33h-2.5v-1.66h2.5v1.66Zm0-3.33h-2.5v-1.66h2.5v1.66Zm0-3.33h-2.5v-1.66h2.5v1.66Zm0-3.33h-2.5v-1.66h2.5v1.66Zm0-3.33h-2.5v-1.66h2.5v1.66Zm0-3.33h-2.5v-1.66h2.5v1.66Z" style="fill: #ffe000;"/>
    <rect x="636.29" y="393.91" width="2.5" height=".83" style="fill: #ffe000;"/>
    <polygon points="633.3 389.76 637.54 394.01 641.78 389.76 641.78 393.37 637.54 397.61 633.3 393.37 633.3 389.76" style="fill: #ffe000;"/>
  </g>
  <g>
    <rect x="847.42" y="102.03" width="2.5" height=".83" style="fill: #ffe000;"/>
    <path d="m849.92,392.25h-2.5v-1.66h2.5v1.66Zm0-3.33h-2.5v-1.66h2.5v1.66Zm0-3.33h-2.5v-1.66h2.5v1.66Zm0-3.33h-2.5v-1.66h2.5v1.66Zm0-3.33h-2.5v-1.66h2.5v1.66Zm0-3.33h-2.5v-1.66h2.5v1.66Zm0-3.33h-2.5v-1.66h2.5v1.66Zm0-3.33h-2.5v-1.66h2.5v1.66Zm0-3.33h-2.5v-1.66h2.5v1.66Zm0-3.33h-2.5v-1.66h2.5v1.66Zm0-3.33h-2.5v-1.66h2.5v1.66Zm0-3.33h-2.5v-1.66h2.5v1.66Zm0-3.33h-2.5v-1.66h2.5v1.66Zm0-3.33h-2.5v-1.66h2.5v1.66Zm0-3.33h-2.5v-1.66h2.5v1.66Zm0-3.33h-2.5v-1.66h2.5v1.66Zm0-3.33h-2.5v-1.66h2.5v1.66Zm0-3.33h-2.5v-1.66h2.5v1.66Zm0-3.33h-2.5v-1.66h2.5v1.66Zm0-3.33h-2.5v-1.66h2.5v1.66Zm0-3.33h-2.5v-1.66h2.5v1.66Zm0-3.33h-2.5v-1.66h2.5v1.66Zm0-3.33h-2.5v-1.66h2.5v1.66Zm0-3.33h-2.5v-1.66h2.5v1.66Zm0-3.33h-2.5v-1.66h2.5v1.66Zm0-3.33h-2.5v-1.66h2.5v1.66Zm0-3.33h-2.5v-1.66h2.5v1.66Zm0-3.33h-2.5v-1.66h2.5v1.66Zm0-3.33h-2.5v-1.66h2.5v1.66Zm0-3.33h-2.5v-1.66h2.5v1.66Zm0-3.33h-2.5v-1.66h2.5v1.66Zm0-3.33h-2.5v-1.66h2.5v1.66Zm0-3.33h-2.5v-1.66h2.5v1.66Zm0-3.33h-2.5v-1.66h2.5v1.66Zm0-3.33h-2.5v-1.66h2.5v1.66Zm0-3.33h-2.5v-1.66h2.5v1.66Zm0-3.33h-2.5v-1.66h2.5v1.66Zm0-3.33h-2.5v-1.66h2.5v1.66Zm0-3.33h-2.5v-1.66h2.5v1.66Zm0-3.33h-2.5v-1.66h2.5v1.66Zm0-3.33h-2.5v-1.66h2.5v1.66Zm0-3.33h-2.5v-1.66h2.5v1.66Zm0-3.33h-2.5v-1.66h2.5v1.66Zm0-3.33h-2.5v-1.66h2.5v1.66Zm0-3.33h-2.5v-1.66h2.5v1.66Zm0-3.33h-2.5v-1.66h2.5v1.66Zm0-3.33h-2.5v-1.66h2.5v1.66Zm0-3.33h-2.5v-1.66h2.5v1.66Zm0-3.33h-2.5v-1.66h2.5v1.66Zm0-3.33h-2.5v-1.66h2.5v1.66Zm0-3.33h-2.5v-1.66h2.5v1.66Zm0-3.33h-2.5v-1.66h2.5v1.66Zm0-3.33h-2.5v-1.66h2.5v1.66Zm0-3.33h-2.5v-1.66h2.5v1.66Zm0-3.33h-2.5v-1.66h2.5v1.66Zm0-3.33h-2.5v-1.66h2.5v1.66Zm0-3.33h-2.5v-1.66h2.5v1.66Zm0-3.33h-2.5v-1.66h2.5v1.66Zm0-3.33h-2.5v-1.66h2.5v1.66Zm0-3.33h-2.5v-1.66h2.5v1.66Zm0-3.33h-2.5v-1.66h2.5v1.66Zm0-3.33h-2.5v-1.66h2.5v1.66Zm0-3.33h-2.5v-1.66h2.5v1.66Zm0-3.33h-2.5v-1.66h2.5v1.66Zm0-3.33h-2.5v-1.66h2.5v1.66Zm0-3.33h-2.5v-1.66h2.5v1.66Zm0-3.33h-2.5v-1.66h2.5v1.66Zm0-3.33h-2.5v-1.66h2.5v1.66Zm0-3.33h-2.5v-1.66h2.5v1.66Zm0-3.33h-2.5v-1.66h2.5v1.66Zm0-3.33h-2.5v-1.66h2.5v1.66Zm0-3.33h-2.5v-1.66h2.5v1.66Zm0-3.33h-2.5v-1.66h2.5v1.66Zm0-3.33h-2.5v-1.66h2.5v1.66Zm0-3.33h-2.5v-1.66h2.5v1.66Zm0-3.33h-2.5v-1.66h2.5v1.66Zm0-3.33h-2.5v-1.66h2.5v1.66Zm0-3.33h-2.5v-1.66h2.5v1.66Zm0-3.33h-2.5v-1.66h2.5v1.66Zm0-3.33h-2.5v-1.66h2.5v1.66Zm0-3.33h-2.5v-1.66h2.5v1.66Zm0-3.33h-2.5v-1.66h2.5v1.66Zm0-3.33h-2.5v-1.66h2.5v1.66Zm0-3.33h-2.5v-1.66h2.5v1.66Zm0-3.33h-2.5v-1.66h2.5v1.66Zm0-3.33h-2.5v-1.66h2.5v1.66Zm0-3.33h-2.5v-1.66h2.5v1.66Z" style="fill: #ffe000;"/>
    <rect x="847.42" y="393.91" width="2.5" height=".83" style="fill: #ffe000;"/>
    <polygon points="844.43 389.76 848.67 394.01 852.91 389.76 852.91 393.37 848.67 397.61 844.43 393.37 844.43 389.76" style="fill: #ffe000;"/>
  </g>
  <g>
    <rect x="931.87" y="198.79" width="2.5" height=".83" style="fill: #32ba04;"/>
    <path d="m934.37,392.25h-2.5v-1.66h2.5v1.66Zm0-3.32h-2.5v-1.66h2.5v1.66Zm0-3.32h-2.5v-1.66h2.5v1.66Zm0-3.32h-2.5v-1.66h2.5v1.66Zm0-3.32h-2.5v-1.66h2.5v1.66Zm0-3.32h-2.5v-1.66h2.5v1.66Zm0-3.32h-2.5v-1.66h2.5v1.66Zm0-3.32h-2.5v-1.66h2.5v1.66Zm0-3.32h-2.5v-1.66h2.5v1.66Zm0-3.32h-2.5v-1.66h2.5v1.66Zm0-3.32h-2.5v-1.66h2.5v1.66Zm0-3.32h-2.5v-1.66h2.5v1.66Zm0-3.32h-2.5v-1.66h2.5v1.66Zm0-3.32h-2.5v-1.66h2.5v1.66Zm0-3.32h-2.5v-1.66h2.5v1.66Zm0-3.32h-2.5v-1.66h2.5v1.66Zm0-3.32h-2.5v-1.66h2.5v1.66Zm0-3.32h-2.5v-1.66h2.5v1.66Zm0-3.32h-2.5v-1.66h2.5v1.66Zm0-3.32h-2.5v-1.66h2.5v1.66Zm0-3.32h-2.5v-1.66h2.5v1.66Zm0-3.32h-2.5v-1.66h2.5v1.66Zm0-3.32h-2.5v-1.66h2.5v1.66Zm0-3.32h-2.5v-1.66h2.5v1.66Zm0-3.32h-2.5v-1.66h2.5v1.66Zm0-3.32h-2.5v-1.66h2.5v1.66Zm0-3.32h-2.5v-1.66h2.5v1.66Zm0-3.32h-2.5v-1.66h2.5v1.66Zm0-3.32h-2.5v-1.66h2.5v1.66Zm0-3.32h-2.5v-1.66h2.5v1.66Zm0-3.32h-2.5v-1.66h2.5v1.66Zm0-3.32h-2.5v-1.66h2.5v1.66Zm0-3.32h-2.5v-1.66h2.5v1.66Zm0-3.32h-2.5v-1.66h2.5v1.66Zm0-3.32h-2.5v-1.66h2.5v1.66Zm0-3.32h-2.5v-1.66h2.5v1.66Zm0-3.32h-2.5v-1.66h2.5v1.66Zm0-3.32h-2.5v-1.66h2.5v1.66Zm0-3.32h-2.5v-1.66h2.5v1.66Zm0-3.32h-2.5v-1.66h2.5v1.66Zm0-3.32h-2.5v-1.66h2.5v1.66Zm0-3.32h-2.5v-1.66h2.5v1.66Zm0-3.32h-2.5v-1.66h2.5v1.66Zm0-3.32h-2.5v-1.66h2.5v1.66Zm0-3.32h-2.5v-1.66h2.5v1.66Zm0-3.32h-2.5v-1.66h2.5v1.66Zm0-3.32h-2.5v-1.66h2.5v1.66Zm0-3.32h-2.5v-1.66h2.5v1.66Zm0-3.32h-2.5v-1.66h2.5v1.66Zm0-3.32h-2.5v-1.66h2.5v1.66Zm0-3.32h-2.5v-1.66h2.5v1.66Zm0-3.32h-2.5v-1.66h2.5v1.66Zm0-3.32h-2.5v-1.66h2.5v1.66Zm0-3.32h-2.5v-1.66h2.5v1.66Zm0-3.32h-2.5v-1.66h2.5v1.66Zm0-3.32h-2.5v-1.66h2.5v1.66Zm0-3.32h-2.5v-1.66h2.5v1.66Zm0-3.32h-2.5v-1.66h2.5v1.66Z" style="fill: #32ba04;"/>
    <rect x="931.87" y="393.91" width="2.5" height=".83" style="fill: #32ba04;"/>
    <polygon points="928.88 389.76 933.12 394.01 937.36 389.76 937.36 393.37 933.12 397.61 928.88 393.37 928.88 389.76" style="fill: #32ba04;"/>
  </g>
</svg>